G75*
%MOIN*%
%OFA0B0*%
%FSLAX25Y25*%
%IPPOS*%
%LPD*%
%AMOC8*
5,1,8,0,0,1.08239X$1,22.5*
%
%ADD10C,0.00000*%
%ADD11C,0.00300*%
%ADD12C,0.00500*%
%ADD13C,0.01200*%
%ADD14C,0.01000*%
%ADD15C,0.00800*%
D10*
X0086078Y0053500D02*
X0086185Y0053498D01*
X0086292Y0053492D01*
X0086399Y0053483D01*
X0086505Y0053469D01*
X0086611Y0053452D01*
X0086716Y0053431D01*
X0086820Y0053407D01*
X0086923Y0053378D01*
X0087025Y0053346D01*
X0087126Y0053311D01*
X0087226Y0053272D01*
X0087324Y0053229D01*
X0087421Y0053183D01*
X0087516Y0053133D01*
X0087609Y0053080D01*
X0087700Y0053024D01*
X0087789Y0052964D01*
X0087876Y0052902D01*
X0087960Y0052836D01*
X0088043Y0052767D01*
X0088122Y0052696D01*
X0088199Y0052621D01*
X0088274Y0052544D01*
X0088345Y0052465D01*
X0088414Y0052382D01*
X0088480Y0052298D01*
X0088542Y0052211D01*
X0088602Y0052122D01*
X0088658Y0052031D01*
X0088711Y0051938D01*
X0088761Y0051843D01*
X0088807Y0051746D01*
X0088850Y0051648D01*
X0088889Y0051548D01*
X0088924Y0051447D01*
X0088956Y0051345D01*
X0088985Y0051242D01*
X0089009Y0051138D01*
X0089030Y0051033D01*
X0089047Y0050927D01*
X0089061Y0050821D01*
X0089070Y0050714D01*
X0089076Y0050607D01*
X0089078Y0050500D01*
X0089078Y0006500D01*
X0089080Y0006393D01*
X0089086Y0006286D01*
X0089095Y0006179D01*
X0089109Y0006073D01*
X0089126Y0005967D01*
X0089147Y0005862D01*
X0089171Y0005758D01*
X0089200Y0005655D01*
X0089232Y0005553D01*
X0089267Y0005452D01*
X0089306Y0005352D01*
X0089349Y0005254D01*
X0089395Y0005157D01*
X0089445Y0005062D01*
X0089498Y0004969D01*
X0089554Y0004878D01*
X0089614Y0004789D01*
X0089676Y0004702D01*
X0089742Y0004618D01*
X0089811Y0004535D01*
X0089882Y0004456D01*
X0089957Y0004379D01*
X0090034Y0004304D01*
X0090113Y0004233D01*
X0090196Y0004164D01*
X0090280Y0004098D01*
X0090367Y0004036D01*
X0090456Y0003976D01*
X0090547Y0003920D01*
X0090640Y0003867D01*
X0090735Y0003817D01*
X0090832Y0003771D01*
X0090930Y0003728D01*
X0091030Y0003689D01*
X0091131Y0003654D01*
X0091233Y0003622D01*
X0091336Y0003593D01*
X0091440Y0003569D01*
X0091545Y0003548D01*
X0091651Y0003531D01*
X0091757Y0003517D01*
X0091864Y0003508D01*
X0091971Y0003502D01*
X0092078Y0003500D01*
X0190578Y0003500D01*
X0190676Y0003502D01*
X0190774Y0003508D01*
X0190872Y0003517D01*
X0190969Y0003531D01*
X0191066Y0003548D01*
X0191162Y0003569D01*
X0191257Y0003594D01*
X0191351Y0003622D01*
X0191443Y0003655D01*
X0191535Y0003690D01*
X0191625Y0003730D01*
X0191713Y0003772D01*
X0191800Y0003819D01*
X0191884Y0003868D01*
X0191967Y0003921D01*
X0192047Y0003977D01*
X0192126Y0004037D01*
X0192202Y0004099D01*
X0192275Y0004164D01*
X0192346Y0004232D01*
X0192414Y0004303D01*
X0192479Y0004376D01*
X0192541Y0004452D01*
X0192601Y0004531D01*
X0192657Y0004611D01*
X0192710Y0004694D01*
X0192759Y0004778D01*
X0192806Y0004865D01*
X0192848Y0004953D01*
X0192888Y0005043D01*
X0192923Y0005135D01*
X0192956Y0005227D01*
X0192984Y0005321D01*
X0193009Y0005416D01*
X0193030Y0005512D01*
X0193047Y0005609D01*
X0193061Y0005706D01*
X0193070Y0005804D01*
X0193076Y0005902D01*
X0193078Y0006000D01*
X0193078Y0101000D01*
X0193076Y0101107D01*
X0193070Y0101214D01*
X0193061Y0101321D01*
X0193047Y0101427D01*
X0193030Y0101533D01*
X0193009Y0101638D01*
X0192985Y0101742D01*
X0192956Y0101845D01*
X0192924Y0101947D01*
X0192889Y0102048D01*
X0192850Y0102148D01*
X0192807Y0102246D01*
X0192761Y0102343D01*
X0192711Y0102438D01*
X0192658Y0102531D01*
X0192602Y0102622D01*
X0192542Y0102711D01*
X0192480Y0102798D01*
X0192414Y0102882D01*
X0192345Y0102965D01*
X0192274Y0103044D01*
X0192199Y0103121D01*
X0192122Y0103196D01*
X0192043Y0103267D01*
X0191960Y0103336D01*
X0191876Y0103402D01*
X0191789Y0103464D01*
X0191700Y0103524D01*
X0191609Y0103580D01*
X0191516Y0103633D01*
X0191421Y0103683D01*
X0191324Y0103729D01*
X0191226Y0103772D01*
X0191126Y0103811D01*
X0191025Y0103846D01*
X0190923Y0103878D01*
X0190820Y0103907D01*
X0190716Y0103931D01*
X0190611Y0103952D01*
X0190505Y0103969D01*
X0190399Y0103983D01*
X0190292Y0103992D01*
X0190185Y0103998D01*
X0190078Y0104000D01*
X0084120Y0104000D01*
X0084011Y0103998D01*
X0083903Y0103992D01*
X0083795Y0103983D01*
X0083687Y0103969D01*
X0083580Y0103952D01*
X0083474Y0103931D01*
X0083368Y0103906D01*
X0083263Y0103877D01*
X0083160Y0103844D01*
X0083057Y0103808D01*
X0082956Y0103769D01*
X0082857Y0103725D01*
X0082759Y0103678D01*
X0082663Y0103628D01*
X0082568Y0103574D01*
X0082476Y0103517D01*
X0082386Y0103457D01*
X0082298Y0103393D01*
X0082212Y0103327D01*
X0082129Y0103257D01*
X0082048Y0103185D01*
X0081970Y0103109D01*
X0081894Y0103031D01*
X0081822Y0102950D01*
X0081752Y0102867D01*
X0081686Y0102781D01*
X0081622Y0102693D01*
X0081562Y0102603D01*
X0081505Y0102511D01*
X0081451Y0102416D01*
X0081401Y0102320D01*
X0081354Y0102222D01*
X0081310Y0102123D01*
X0081271Y0102022D01*
X0081235Y0101919D01*
X0081202Y0101816D01*
X0081173Y0101711D01*
X0081148Y0101605D01*
X0081127Y0101499D01*
X0081110Y0101392D01*
X0081096Y0101284D01*
X0081087Y0101176D01*
X0081081Y0101068D01*
X0081079Y0100959D01*
X0081078Y0100959D02*
X0081078Y0056500D01*
X0081080Y0056393D01*
X0081086Y0056286D01*
X0081095Y0056179D01*
X0081109Y0056073D01*
X0081126Y0055967D01*
X0081147Y0055862D01*
X0081171Y0055758D01*
X0081200Y0055655D01*
X0081232Y0055553D01*
X0081267Y0055452D01*
X0081306Y0055352D01*
X0081349Y0055254D01*
X0081395Y0055157D01*
X0081445Y0055062D01*
X0081498Y0054969D01*
X0081554Y0054878D01*
X0081614Y0054789D01*
X0081676Y0054702D01*
X0081742Y0054618D01*
X0081811Y0054535D01*
X0081882Y0054456D01*
X0081957Y0054379D01*
X0082034Y0054304D01*
X0082113Y0054233D01*
X0082196Y0054164D01*
X0082280Y0054098D01*
X0082367Y0054036D01*
X0082456Y0053976D01*
X0082547Y0053920D01*
X0082640Y0053867D01*
X0082735Y0053817D01*
X0082832Y0053771D01*
X0082930Y0053728D01*
X0083030Y0053689D01*
X0083131Y0053654D01*
X0083233Y0053622D01*
X0083336Y0053593D01*
X0083440Y0053569D01*
X0083545Y0053548D01*
X0083651Y0053531D01*
X0083757Y0053517D01*
X0083864Y0053508D01*
X0083971Y0053502D01*
X0084078Y0053500D01*
X0086078Y0053500D01*
X0092722Y0096804D02*
X0092724Y0096883D01*
X0092730Y0096962D01*
X0092740Y0097041D01*
X0092754Y0097119D01*
X0092771Y0097196D01*
X0092793Y0097272D01*
X0092818Y0097347D01*
X0092848Y0097420D01*
X0092880Y0097492D01*
X0092917Y0097563D01*
X0092957Y0097631D01*
X0093000Y0097697D01*
X0093046Y0097761D01*
X0093096Y0097823D01*
X0093149Y0097882D01*
X0093204Y0097938D01*
X0093263Y0097992D01*
X0093324Y0098042D01*
X0093387Y0098090D01*
X0093453Y0098134D01*
X0093521Y0098175D01*
X0093591Y0098212D01*
X0093662Y0098246D01*
X0093736Y0098276D01*
X0093810Y0098302D01*
X0093886Y0098324D01*
X0093963Y0098343D01*
X0094041Y0098358D01*
X0094119Y0098369D01*
X0094198Y0098376D01*
X0094277Y0098379D01*
X0094356Y0098378D01*
X0094435Y0098373D01*
X0094514Y0098364D01*
X0094592Y0098351D01*
X0094669Y0098334D01*
X0094746Y0098314D01*
X0094821Y0098289D01*
X0094895Y0098261D01*
X0094968Y0098229D01*
X0095038Y0098194D01*
X0095107Y0098155D01*
X0095174Y0098112D01*
X0095239Y0098066D01*
X0095301Y0098018D01*
X0095361Y0097966D01*
X0095418Y0097911D01*
X0095472Y0097853D01*
X0095523Y0097793D01*
X0095571Y0097730D01*
X0095616Y0097665D01*
X0095658Y0097597D01*
X0095696Y0097528D01*
X0095730Y0097457D01*
X0095761Y0097384D01*
X0095789Y0097309D01*
X0095812Y0097234D01*
X0095832Y0097157D01*
X0095848Y0097080D01*
X0095860Y0097001D01*
X0095868Y0096923D01*
X0095872Y0096844D01*
X0095872Y0096764D01*
X0095868Y0096685D01*
X0095860Y0096607D01*
X0095848Y0096528D01*
X0095832Y0096451D01*
X0095812Y0096374D01*
X0095789Y0096299D01*
X0095761Y0096224D01*
X0095730Y0096151D01*
X0095696Y0096080D01*
X0095658Y0096011D01*
X0095616Y0095943D01*
X0095571Y0095878D01*
X0095523Y0095815D01*
X0095472Y0095755D01*
X0095418Y0095697D01*
X0095361Y0095642D01*
X0095301Y0095590D01*
X0095239Y0095542D01*
X0095174Y0095496D01*
X0095107Y0095453D01*
X0095038Y0095414D01*
X0094968Y0095379D01*
X0094895Y0095347D01*
X0094821Y0095319D01*
X0094746Y0095294D01*
X0094669Y0095274D01*
X0094592Y0095257D01*
X0094514Y0095244D01*
X0094435Y0095235D01*
X0094356Y0095230D01*
X0094277Y0095229D01*
X0094198Y0095232D01*
X0094119Y0095239D01*
X0094041Y0095250D01*
X0093963Y0095265D01*
X0093886Y0095284D01*
X0093810Y0095306D01*
X0093736Y0095332D01*
X0093662Y0095362D01*
X0093591Y0095396D01*
X0093521Y0095433D01*
X0093453Y0095474D01*
X0093387Y0095518D01*
X0093324Y0095566D01*
X0093263Y0095616D01*
X0093204Y0095670D01*
X0093149Y0095726D01*
X0093096Y0095785D01*
X0093046Y0095847D01*
X0093000Y0095911D01*
X0092957Y0095977D01*
X0092917Y0096045D01*
X0092880Y0096116D01*
X0092848Y0096188D01*
X0092818Y0096261D01*
X0092793Y0096336D01*
X0092771Y0096412D01*
X0092754Y0096489D01*
X0092740Y0096567D01*
X0092730Y0096646D01*
X0092724Y0096725D01*
X0092722Y0096804D01*
X0104533Y0096804D02*
X0104535Y0096883D01*
X0104541Y0096962D01*
X0104551Y0097041D01*
X0104565Y0097119D01*
X0104582Y0097196D01*
X0104604Y0097272D01*
X0104629Y0097347D01*
X0104659Y0097420D01*
X0104691Y0097492D01*
X0104728Y0097563D01*
X0104768Y0097631D01*
X0104811Y0097697D01*
X0104857Y0097761D01*
X0104907Y0097823D01*
X0104960Y0097882D01*
X0105015Y0097938D01*
X0105074Y0097992D01*
X0105135Y0098042D01*
X0105198Y0098090D01*
X0105264Y0098134D01*
X0105332Y0098175D01*
X0105402Y0098212D01*
X0105473Y0098246D01*
X0105547Y0098276D01*
X0105621Y0098302D01*
X0105697Y0098324D01*
X0105774Y0098343D01*
X0105852Y0098358D01*
X0105930Y0098369D01*
X0106009Y0098376D01*
X0106088Y0098379D01*
X0106167Y0098378D01*
X0106246Y0098373D01*
X0106325Y0098364D01*
X0106403Y0098351D01*
X0106480Y0098334D01*
X0106557Y0098314D01*
X0106632Y0098289D01*
X0106706Y0098261D01*
X0106779Y0098229D01*
X0106849Y0098194D01*
X0106918Y0098155D01*
X0106985Y0098112D01*
X0107050Y0098066D01*
X0107112Y0098018D01*
X0107172Y0097966D01*
X0107229Y0097911D01*
X0107283Y0097853D01*
X0107334Y0097793D01*
X0107382Y0097730D01*
X0107427Y0097665D01*
X0107469Y0097597D01*
X0107507Y0097528D01*
X0107541Y0097457D01*
X0107572Y0097384D01*
X0107600Y0097309D01*
X0107623Y0097234D01*
X0107643Y0097157D01*
X0107659Y0097080D01*
X0107671Y0097001D01*
X0107679Y0096923D01*
X0107683Y0096844D01*
X0107683Y0096764D01*
X0107679Y0096685D01*
X0107671Y0096607D01*
X0107659Y0096528D01*
X0107643Y0096451D01*
X0107623Y0096374D01*
X0107600Y0096299D01*
X0107572Y0096224D01*
X0107541Y0096151D01*
X0107507Y0096080D01*
X0107469Y0096011D01*
X0107427Y0095943D01*
X0107382Y0095878D01*
X0107334Y0095815D01*
X0107283Y0095755D01*
X0107229Y0095697D01*
X0107172Y0095642D01*
X0107112Y0095590D01*
X0107050Y0095542D01*
X0106985Y0095496D01*
X0106918Y0095453D01*
X0106849Y0095414D01*
X0106779Y0095379D01*
X0106706Y0095347D01*
X0106632Y0095319D01*
X0106557Y0095294D01*
X0106480Y0095274D01*
X0106403Y0095257D01*
X0106325Y0095244D01*
X0106246Y0095235D01*
X0106167Y0095230D01*
X0106088Y0095229D01*
X0106009Y0095232D01*
X0105930Y0095239D01*
X0105852Y0095250D01*
X0105774Y0095265D01*
X0105697Y0095284D01*
X0105621Y0095306D01*
X0105547Y0095332D01*
X0105473Y0095362D01*
X0105402Y0095396D01*
X0105332Y0095433D01*
X0105264Y0095474D01*
X0105198Y0095518D01*
X0105135Y0095566D01*
X0105074Y0095616D01*
X0105015Y0095670D01*
X0104960Y0095726D01*
X0104907Y0095785D01*
X0104857Y0095847D01*
X0104811Y0095911D01*
X0104768Y0095977D01*
X0104728Y0096045D01*
X0104691Y0096116D01*
X0104659Y0096188D01*
X0104629Y0096261D01*
X0104604Y0096336D01*
X0104582Y0096412D01*
X0104565Y0096489D01*
X0104551Y0096567D01*
X0104541Y0096646D01*
X0104535Y0096725D01*
X0104533Y0096804D01*
D11*
X0104662Y0099549D02*
X0102727Y0099549D01*
X0104662Y0099549D02*
X0102727Y0101484D01*
X0102727Y0101968D01*
X0103211Y0102452D01*
X0104178Y0102452D01*
X0104662Y0101968D01*
X0106641Y0102452D02*
X0106641Y0099549D01*
X0107608Y0099549D02*
X0105673Y0099549D01*
X0107608Y0101484D02*
X0106641Y0102452D01*
X0108620Y0101968D02*
X0108620Y0101001D01*
X0109104Y0100517D01*
X0110555Y0100517D01*
X0110555Y0099549D02*
X0110555Y0102452D01*
X0109104Y0102452D01*
X0108620Y0101968D01*
X0109587Y0100517D02*
X0108620Y0099549D01*
X0094646Y0093729D02*
X0094646Y0090827D01*
X0094646Y0091794D02*
X0093195Y0091794D01*
X0092711Y0092278D01*
X0092711Y0093246D01*
X0093195Y0093729D01*
X0094646Y0093729D01*
X0093679Y0091794D02*
X0092711Y0090827D01*
X0091700Y0090827D02*
X0089765Y0092762D01*
X0089765Y0093246D01*
X0090249Y0093729D01*
X0091216Y0093729D01*
X0091700Y0093246D01*
X0091700Y0090827D02*
X0089765Y0090827D01*
X0094284Y0086569D02*
X0096219Y0084634D01*
X0095735Y0084150D01*
X0094767Y0084150D01*
X0094284Y0084634D01*
X0094284Y0086569D01*
X0094767Y0087052D01*
X0095735Y0087052D01*
X0096219Y0086569D01*
X0096219Y0084634D01*
X0097208Y0084634D02*
X0097208Y0084150D01*
X0097692Y0084150D01*
X0097692Y0084634D01*
X0097208Y0084634D01*
X0098703Y0084150D02*
X0100638Y0084150D01*
X0099671Y0084150D02*
X0099671Y0087052D01*
X0100638Y0086085D01*
X0101650Y0086085D02*
X0102617Y0084150D01*
X0103585Y0086085D01*
X0091952Y0083716D02*
X0091952Y0082749D01*
X0091952Y0083232D02*
X0089049Y0083232D01*
X0089049Y0082749D02*
X0089049Y0083716D01*
X0090501Y0081737D02*
X0090017Y0081253D01*
X0090017Y0079802D01*
X0089049Y0079802D02*
X0091952Y0079802D01*
X0091952Y0081253D01*
X0091468Y0081737D01*
X0090501Y0081737D01*
X0090017Y0078791D02*
X0089533Y0078791D01*
X0089049Y0078307D01*
X0089049Y0077339D01*
X0089533Y0076856D01*
X0090501Y0077339D02*
X0090501Y0078307D01*
X0090017Y0078791D01*
X0091468Y0078791D02*
X0091952Y0078307D01*
X0091952Y0077339D01*
X0091468Y0076856D01*
X0090984Y0076856D01*
X0090501Y0077339D01*
X0134180Y0050846D02*
X0134180Y0047944D01*
X0133213Y0047944D02*
X0135148Y0047944D01*
X0136159Y0048427D02*
X0136159Y0049395D01*
X0137127Y0049395D01*
X0138094Y0050362D02*
X0137611Y0050846D01*
X0136643Y0050846D01*
X0136159Y0050362D01*
X0135148Y0049878D02*
X0134180Y0050846D01*
X0136159Y0048427D02*
X0136643Y0047944D01*
X0137611Y0047944D01*
X0138094Y0048427D01*
X0138094Y0050362D01*
X0145347Y0050169D02*
X0145831Y0050652D01*
X0146798Y0050652D01*
X0147282Y0050169D01*
X0148293Y0050169D02*
X0148777Y0050652D01*
X0149745Y0050652D01*
X0150228Y0050169D01*
X0150228Y0048234D01*
X0149745Y0047750D01*
X0148777Y0047750D01*
X0148293Y0048234D01*
X0147282Y0047750D02*
X0145347Y0047750D01*
X0147282Y0047750D02*
X0145347Y0049685D01*
X0145347Y0050169D01*
X0180528Y0036155D02*
X0180528Y0035187D01*
X0181012Y0034703D01*
X0181980Y0034703D02*
X0182463Y0035671D01*
X0182463Y0036155D01*
X0181980Y0036638D01*
X0181012Y0036638D01*
X0180528Y0036155D01*
X0181980Y0034703D02*
X0183431Y0034703D01*
X0183431Y0036638D01*
X0183480Y0040757D02*
X0183480Y0042692D01*
X0183963Y0042692D02*
X0182028Y0042692D01*
X0183480Y0043703D02*
X0184931Y0045155D01*
X0182028Y0045155D01*
X0183480Y0045638D02*
X0183480Y0043703D01*
X0183963Y0042692D02*
X0184931Y0041724D01*
X0183963Y0040757D01*
X0182028Y0040757D01*
X0181496Y0029138D02*
X0181980Y0028655D01*
X0181980Y0027203D01*
X0181012Y0027203D01*
X0180528Y0027687D01*
X0180528Y0028655D01*
X0181012Y0029138D01*
X0181496Y0029138D01*
X0182947Y0028171D02*
X0181980Y0027203D01*
X0182947Y0028171D02*
X0183431Y0029138D01*
X0183431Y0019138D02*
X0182947Y0019138D01*
X0181012Y0017203D01*
X0180528Y0017203D01*
X0183431Y0017203D02*
X0183431Y0019138D01*
X0175778Y0010402D02*
X0174811Y0010402D01*
X0175295Y0010402D02*
X0175295Y0007500D01*
X0175778Y0007500D02*
X0174811Y0007500D01*
X0173814Y0007984D02*
X0173330Y0007500D01*
X0172363Y0007500D01*
X0171879Y0007984D01*
X0170868Y0007500D02*
X0168933Y0007500D01*
X0169900Y0007500D02*
X0169900Y0010402D01*
X0170868Y0009435D01*
X0171879Y0009919D02*
X0172363Y0010402D01*
X0173330Y0010402D01*
X0173814Y0009919D01*
X0173814Y0007984D01*
X0180528Y0007687D02*
X0181012Y0007203D01*
X0181496Y0007203D01*
X0181980Y0007687D01*
X0181980Y0008655D01*
X0181496Y0009138D01*
X0181012Y0009138D01*
X0180528Y0008655D01*
X0180528Y0007687D01*
X0181980Y0007687D02*
X0182463Y0007203D01*
X0182947Y0007203D01*
X0183431Y0007687D01*
X0183431Y0008655D01*
X0182947Y0009138D01*
X0182463Y0009138D01*
X0181980Y0008655D01*
X0138428Y0024772D02*
X0137944Y0024289D01*
X0136976Y0024289D01*
X0136493Y0024772D01*
X0135481Y0024289D02*
X0133546Y0024289D01*
X0134514Y0024289D02*
X0134514Y0027191D01*
X0135481Y0026224D01*
X0136493Y0026707D02*
X0136976Y0027191D01*
X0137944Y0027191D01*
X0138428Y0026707D01*
X0138428Y0024772D01*
X0117442Y0008352D02*
X0116475Y0007385D01*
X0115507Y0008352D01*
X0115507Y0005450D01*
X0114496Y0005934D02*
X0114496Y0007385D01*
X0114496Y0005934D02*
X0114012Y0005450D01*
X0112561Y0005450D01*
X0112561Y0004966D02*
X0113044Y0004483D01*
X0113528Y0004483D01*
X0112561Y0004966D02*
X0112561Y0007385D01*
X0111549Y0007385D02*
X0111065Y0006901D01*
X0110098Y0006901D01*
X0109614Y0006417D01*
X0109614Y0005934D01*
X0110098Y0005450D01*
X0111065Y0005450D01*
X0111549Y0005934D01*
X0111549Y0007385D02*
X0111549Y0007869D01*
X0111065Y0008352D01*
X0110098Y0008352D01*
X0109614Y0007869D01*
X0108603Y0006901D02*
X0108119Y0007385D01*
X0107151Y0007385D01*
X0106668Y0006901D01*
X0106668Y0006417D01*
X0108603Y0006417D01*
X0108603Y0005934D02*
X0108603Y0006901D01*
X0108603Y0005934D02*
X0108119Y0005450D01*
X0107151Y0005450D01*
X0105656Y0005450D02*
X0105656Y0007385D01*
X0104205Y0007385D01*
X0103721Y0006901D01*
X0103721Y0005450D01*
X0102710Y0005450D02*
X0101258Y0005450D01*
X0100775Y0005934D01*
X0101258Y0006417D01*
X0102226Y0006417D01*
X0102710Y0006901D01*
X0102226Y0007385D01*
X0100775Y0007385D01*
X0099763Y0006901D02*
X0099763Y0005934D01*
X0099279Y0005450D01*
X0098312Y0005450D01*
X0097828Y0005934D01*
X0097828Y0006901D01*
X0098312Y0007385D01*
X0099279Y0007385D01*
X0099763Y0006901D01*
X0096817Y0006417D02*
X0095849Y0007385D01*
X0095365Y0007385D01*
X0094361Y0006901D02*
X0093877Y0006417D01*
X0092910Y0006417D01*
X0092426Y0005934D01*
X0092910Y0005450D01*
X0094361Y0005450D01*
X0094361Y0006901D02*
X0093877Y0007385D01*
X0092426Y0007385D01*
X0094028Y0009757D02*
X0094028Y0011208D01*
X0094512Y0011692D01*
X0096447Y0011692D01*
X0096931Y0011208D01*
X0096931Y0009757D01*
X0094028Y0009757D01*
X0094512Y0012703D02*
X0095480Y0012703D01*
X0095963Y0013187D01*
X0095963Y0014155D01*
X0095480Y0014638D01*
X0094996Y0014638D01*
X0094996Y0012703D01*
X0094512Y0012703D02*
X0094028Y0013187D01*
X0094028Y0014155D01*
X0093431Y0014040D02*
X0092947Y0013556D01*
X0092463Y0013556D01*
X0091980Y0014040D01*
X0091980Y0015007D01*
X0091496Y0015491D01*
X0091012Y0015491D01*
X0090528Y0015007D01*
X0090528Y0014040D01*
X0091012Y0013556D01*
X0093431Y0014040D02*
X0093431Y0015007D01*
X0092947Y0015491D01*
X0094028Y0015650D02*
X0095963Y0015650D01*
X0095963Y0016134D01*
X0095480Y0016617D01*
X0095963Y0017101D01*
X0095480Y0017585D01*
X0094028Y0017585D01*
X0094028Y0016617D02*
X0095480Y0016617D01*
X0095480Y0018597D02*
X0094512Y0018597D01*
X0094028Y0019080D01*
X0094028Y0020048D01*
X0094512Y0020531D01*
X0095480Y0020531D01*
X0095963Y0020048D01*
X0095963Y0019080D01*
X0095480Y0018597D01*
X0092463Y0017954D02*
X0092463Y0016986D01*
X0091980Y0016503D01*
X0091012Y0016503D01*
X0090528Y0016986D01*
X0090528Y0017954D01*
X0091496Y0018437D02*
X0091496Y0016503D01*
X0092463Y0017954D02*
X0091980Y0018437D01*
X0091496Y0018437D01*
X0092463Y0019449D02*
X0092463Y0020900D01*
X0091980Y0021384D01*
X0090528Y0021384D01*
X0090528Y0022396D02*
X0090528Y0023847D01*
X0091012Y0024331D01*
X0091496Y0023847D01*
X0091496Y0022879D01*
X0091980Y0022396D01*
X0092463Y0022879D01*
X0092463Y0024331D01*
X0091980Y0025342D02*
X0091012Y0025342D01*
X0090528Y0025826D01*
X0090528Y0026793D01*
X0091012Y0027277D01*
X0091980Y0027277D01*
X0092463Y0026793D01*
X0092463Y0025826D01*
X0091980Y0025342D01*
X0092463Y0028289D02*
X0090528Y0028289D01*
X0091496Y0028289D02*
X0092463Y0029256D01*
X0092463Y0029740D01*
X0092463Y0019449D02*
X0090528Y0019449D01*
X0096817Y0007385D02*
X0096817Y0005450D01*
X0117442Y0005450D02*
X0117442Y0008352D01*
X0181028Y0058757D02*
X0182963Y0058757D01*
X0183931Y0059724D01*
X0182963Y0060692D01*
X0181028Y0060692D01*
X0181512Y0061703D02*
X0181028Y0062187D01*
X0181028Y0063155D01*
X0181512Y0063638D01*
X0182480Y0063638D01*
X0182963Y0063155D01*
X0182963Y0062671D01*
X0182480Y0061703D01*
X0183931Y0061703D01*
X0183931Y0063638D01*
X0182480Y0060692D02*
X0182480Y0058757D01*
X0182947Y0067203D02*
X0183431Y0067687D01*
X0183431Y0068655D01*
X0182947Y0069138D01*
X0182463Y0069138D01*
X0180528Y0067203D01*
X0180528Y0069138D01*
X0181012Y0077203D02*
X0180528Y0077687D01*
X0180528Y0078655D01*
X0181012Y0079138D01*
X0181496Y0079138D01*
X0181980Y0078655D01*
X0181980Y0078171D01*
X0181980Y0078655D02*
X0182463Y0079138D01*
X0182947Y0079138D01*
X0183431Y0078655D01*
X0183431Y0077687D01*
X0182947Y0077203D01*
X0183431Y0083310D02*
X0181496Y0083310D01*
X0180528Y0084278D01*
X0181496Y0085245D01*
X0183431Y0085245D01*
X0182947Y0086257D02*
X0183431Y0086741D01*
X0183431Y0087708D01*
X0182947Y0088192D01*
X0182947Y0089203D02*
X0181012Y0089203D01*
X0180528Y0089687D01*
X0180528Y0090655D01*
X0181012Y0091138D01*
X0180380Y0092151D02*
X0180380Y0095053D01*
X0178445Y0095053D01*
X0177434Y0095053D02*
X0175499Y0095053D01*
X0176466Y0095053D02*
X0176466Y0092151D01*
X0174487Y0092151D02*
X0173036Y0092151D01*
X0172552Y0092634D01*
X0172552Y0094569D01*
X0173036Y0095053D01*
X0174487Y0095053D01*
X0174487Y0092151D01*
X0171541Y0092151D02*
X0170573Y0092151D01*
X0171057Y0092151D02*
X0171057Y0095053D01*
X0171541Y0095053D02*
X0170573Y0095053D01*
X0179413Y0093602D02*
X0180380Y0093602D01*
X0181012Y0094310D02*
X0180528Y0094794D01*
X0180528Y0095762D01*
X0181012Y0096245D01*
X0181980Y0096245D01*
X0181980Y0095278D01*
X0182947Y0096245D02*
X0183431Y0095762D01*
X0183431Y0094794D01*
X0182947Y0094310D01*
X0181012Y0094310D01*
X0182947Y0091138D02*
X0183431Y0090655D01*
X0183431Y0089687D01*
X0182947Y0089203D01*
X0181012Y0088192D02*
X0180528Y0087708D01*
X0180528Y0086741D01*
X0181012Y0086257D01*
X0182947Y0086257D01*
X0183431Y0097257D02*
X0180528Y0097257D01*
X0180528Y0099192D02*
X0183431Y0099192D01*
X0183431Y0100203D02*
X0183431Y0101655D01*
X0182947Y0102138D01*
X0181012Y0102138D01*
X0180528Y0101655D01*
X0180528Y0100203D01*
X0183431Y0100203D01*
X0183431Y0097257D02*
X0180528Y0099192D01*
D12*
X0179779Y0101352D02*
X0179779Y0096352D01*
X0154779Y0096352D01*
X0154779Y0101352D01*
X0164779Y0101352D01*
X0164779Y0096352D01*
X0154779Y0096352D01*
X0154779Y0101352D01*
X0179779Y0101352D01*
X0164779Y0101161D02*
X0154779Y0101161D01*
X0154779Y0100662D02*
X0164779Y0100662D01*
X0164779Y0100164D02*
X0154779Y0100164D01*
X0154779Y0099665D02*
X0164779Y0099665D01*
X0164779Y0099167D02*
X0154779Y0099167D01*
X0154779Y0098668D02*
X0164779Y0098668D01*
X0164779Y0098170D02*
X0154779Y0098170D01*
X0154779Y0097671D02*
X0164779Y0097671D01*
X0164779Y0097172D02*
X0154779Y0097172D01*
X0154779Y0096674D02*
X0164779Y0096674D01*
X0087641Y0085979D02*
X0087641Y0055979D01*
X0082641Y0055979D01*
X0082641Y0085979D01*
X0087641Y0085979D01*
X0087641Y0075979D01*
X0082641Y0075979D01*
X0082641Y0085979D01*
X0087641Y0085979D01*
X0087641Y0085707D02*
X0082641Y0085707D01*
X0082641Y0085208D02*
X0087641Y0085208D01*
X0087641Y0084710D02*
X0082641Y0084710D01*
X0082641Y0084211D02*
X0087641Y0084211D01*
X0087641Y0083713D02*
X0082641Y0083713D01*
X0082641Y0083214D02*
X0087641Y0083214D01*
X0087641Y0082716D02*
X0082641Y0082716D01*
X0082641Y0082217D02*
X0087641Y0082217D01*
X0087641Y0081719D02*
X0082641Y0081719D01*
X0082641Y0081220D02*
X0087641Y0081220D01*
X0087641Y0080722D02*
X0082641Y0080722D01*
X0082641Y0080223D02*
X0087641Y0080223D01*
X0087641Y0079725D02*
X0082641Y0079725D01*
X0082641Y0079226D02*
X0087641Y0079226D01*
X0087641Y0078728D02*
X0082641Y0078728D01*
X0082641Y0078229D02*
X0087641Y0078229D01*
X0087641Y0077731D02*
X0082641Y0077731D01*
X0082641Y0077232D02*
X0087641Y0077232D01*
X0087641Y0076734D02*
X0082641Y0076734D01*
X0082641Y0076235D02*
X0087641Y0076235D01*
D13*
X0121677Y0090569D02*
X0121677Y0101396D01*
X0151992Y0101396D01*
X0151992Y0090175D01*
X0092937Y0049231D02*
X0092950Y0050294D01*
X0092989Y0051356D01*
X0093054Y0052417D01*
X0093146Y0053476D01*
X0093263Y0054532D01*
X0093406Y0055585D01*
X0093575Y0056635D01*
X0093769Y0057680D01*
X0093989Y0058720D01*
X0094235Y0059754D01*
X0094506Y0060782D01*
X0094802Y0061802D01*
X0095123Y0062816D01*
X0095469Y0063821D01*
X0095839Y0064817D01*
X0096234Y0065804D01*
X0096652Y0066781D01*
X0097095Y0067747D01*
X0097561Y0068702D01*
X0098051Y0069646D01*
X0098563Y0070577D01*
X0099098Y0071495D01*
X0099656Y0072400D01*
X0100236Y0073291D01*
X0100837Y0074168D01*
X0101459Y0075029D01*
X0102103Y0075875D01*
X0102767Y0076705D01*
X0103452Y0077518D01*
X0104156Y0078314D01*
X0104879Y0079093D01*
X0105621Y0079854D01*
X0106382Y0080596D01*
X0107161Y0081319D01*
X0107957Y0082023D01*
X0108770Y0082708D01*
X0109600Y0083372D01*
X0110446Y0084016D01*
X0111307Y0084638D01*
X0112184Y0085239D01*
X0113075Y0085819D01*
X0113980Y0086377D01*
X0114898Y0086912D01*
X0115829Y0087424D01*
X0116773Y0087914D01*
X0117728Y0088380D01*
X0118694Y0088823D01*
X0119671Y0089241D01*
X0120658Y0089636D01*
X0121654Y0090006D01*
X0122659Y0090352D01*
X0123673Y0090673D01*
X0124693Y0090969D01*
X0125721Y0091240D01*
X0126755Y0091486D01*
X0127795Y0091706D01*
X0128840Y0091900D01*
X0129890Y0092069D01*
X0130943Y0092212D01*
X0131999Y0092329D01*
X0133058Y0092421D01*
X0134119Y0092486D01*
X0135181Y0092525D01*
X0136244Y0092538D01*
X0137307Y0092525D01*
X0138369Y0092486D01*
X0139430Y0092421D01*
X0140489Y0092329D01*
X0141545Y0092212D01*
X0142598Y0092069D01*
X0143648Y0091900D01*
X0144693Y0091706D01*
X0145733Y0091486D01*
X0146767Y0091240D01*
X0147795Y0090969D01*
X0148815Y0090673D01*
X0149829Y0090352D01*
X0150834Y0090006D01*
X0151830Y0089636D01*
X0152817Y0089241D01*
X0153794Y0088823D01*
X0154760Y0088380D01*
X0155715Y0087914D01*
X0156659Y0087424D01*
X0157590Y0086912D01*
X0158508Y0086377D01*
X0159413Y0085819D01*
X0160304Y0085239D01*
X0161181Y0084638D01*
X0162042Y0084016D01*
X0162888Y0083372D01*
X0163718Y0082708D01*
X0164531Y0082023D01*
X0165327Y0081319D01*
X0166106Y0080596D01*
X0166867Y0079854D01*
X0167609Y0079093D01*
X0168332Y0078314D01*
X0169036Y0077518D01*
X0169721Y0076705D01*
X0170385Y0075875D01*
X0171029Y0075029D01*
X0171651Y0074168D01*
X0172252Y0073291D01*
X0172832Y0072400D01*
X0173390Y0071495D01*
X0173925Y0070577D01*
X0174437Y0069646D01*
X0174927Y0068702D01*
X0175393Y0067747D01*
X0175836Y0066781D01*
X0176254Y0065804D01*
X0176649Y0064817D01*
X0177019Y0063821D01*
X0177365Y0062816D01*
X0177686Y0061802D01*
X0177982Y0060782D01*
X0178253Y0059754D01*
X0178499Y0058720D01*
X0178719Y0057680D01*
X0178913Y0056635D01*
X0179082Y0055585D01*
X0179225Y0054532D01*
X0179342Y0053476D01*
X0179434Y0052417D01*
X0179499Y0051356D01*
X0179538Y0050294D01*
X0179551Y0049231D01*
X0179538Y0048168D01*
X0179499Y0047106D01*
X0179434Y0046045D01*
X0179342Y0044986D01*
X0179225Y0043930D01*
X0179082Y0042877D01*
X0178913Y0041827D01*
X0178719Y0040782D01*
X0178499Y0039742D01*
X0178253Y0038708D01*
X0177982Y0037680D01*
X0177686Y0036660D01*
X0177365Y0035646D01*
X0177019Y0034641D01*
X0176649Y0033645D01*
X0176254Y0032658D01*
X0175836Y0031681D01*
X0175393Y0030715D01*
X0174927Y0029760D01*
X0174437Y0028816D01*
X0173925Y0027885D01*
X0173390Y0026967D01*
X0172832Y0026062D01*
X0172252Y0025171D01*
X0171651Y0024294D01*
X0171029Y0023433D01*
X0170385Y0022587D01*
X0169721Y0021757D01*
X0169036Y0020944D01*
X0168332Y0020148D01*
X0167609Y0019369D01*
X0166867Y0018608D01*
X0166106Y0017866D01*
X0165327Y0017143D01*
X0164531Y0016439D01*
X0163718Y0015754D01*
X0162888Y0015090D01*
X0162042Y0014446D01*
X0161181Y0013824D01*
X0160304Y0013223D01*
X0159413Y0012643D01*
X0158508Y0012085D01*
X0157590Y0011550D01*
X0156659Y0011038D01*
X0155715Y0010548D01*
X0154760Y0010082D01*
X0153794Y0009639D01*
X0152817Y0009221D01*
X0151830Y0008826D01*
X0150834Y0008456D01*
X0149829Y0008110D01*
X0148815Y0007789D01*
X0147795Y0007493D01*
X0146767Y0007222D01*
X0145733Y0006976D01*
X0144693Y0006756D01*
X0143648Y0006562D01*
X0142598Y0006393D01*
X0141545Y0006250D01*
X0140489Y0006133D01*
X0139430Y0006041D01*
X0138369Y0005976D01*
X0137307Y0005937D01*
X0136244Y0005924D01*
X0135181Y0005937D01*
X0134119Y0005976D01*
X0133058Y0006041D01*
X0131999Y0006133D01*
X0130943Y0006250D01*
X0129890Y0006393D01*
X0128840Y0006562D01*
X0127795Y0006756D01*
X0126755Y0006976D01*
X0125721Y0007222D01*
X0124693Y0007493D01*
X0123673Y0007789D01*
X0122659Y0008110D01*
X0121654Y0008456D01*
X0120658Y0008826D01*
X0119671Y0009221D01*
X0118694Y0009639D01*
X0117728Y0010082D01*
X0116773Y0010548D01*
X0115829Y0011038D01*
X0114898Y0011550D01*
X0113980Y0012085D01*
X0113075Y0012643D01*
X0112184Y0013223D01*
X0111307Y0013824D01*
X0110446Y0014446D01*
X0109600Y0015090D01*
X0108770Y0015754D01*
X0107957Y0016439D01*
X0107161Y0017143D01*
X0106382Y0017866D01*
X0105621Y0018608D01*
X0104879Y0019369D01*
X0104156Y0020148D01*
X0103452Y0020944D01*
X0102767Y0021757D01*
X0102103Y0022587D01*
X0101459Y0023433D01*
X0100837Y0024294D01*
X0100236Y0025171D01*
X0099656Y0026062D01*
X0099098Y0026967D01*
X0098563Y0027885D01*
X0098051Y0028816D01*
X0097561Y0029760D01*
X0097095Y0030715D01*
X0096652Y0031681D01*
X0096234Y0032658D01*
X0095839Y0033645D01*
X0095469Y0034641D01*
X0095123Y0035646D01*
X0094802Y0036660D01*
X0094506Y0037680D01*
X0094235Y0038708D01*
X0093989Y0039742D01*
X0093769Y0040782D01*
X0093575Y0041827D01*
X0093406Y0042877D01*
X0093263Y0043930D01*
X0093146Y0044986D01*
X0093054Y0046045D01*
X0092989Y0047106D01*
X0092950Y0048168D01*
X0092937Y0049231D01*
D14*
X0133351Y0028168D02*
X0138351Y0028168D01*
X0136244Y0083168D02*
X0136244Y0088168D01*
X0138744Y0085668D02*
X0133744Y0085668D01*
D15*
X0154678Y0032300D02*
X0154678Y0006500D01*
X0167678Y0006500D01*
X0167678Y0032300D01*
X0154678Y0032300D01*
M02*
