G75*
%MOIN*%
%OFA0B0*%
%FSLAX25Y25*%
%IPPOS*%
%LPD*%
%AMOC8*
5,1,8,0,0,1.08239X$1,22.5*
%
%ADD10C,0.00000*%
D10*
X0086078Y0053500D02*
X0086185Y0053498D01*
X0086292Y0053492D01*
X0086399Y0053483D01*
X0086505Y0053469D01*
X0086611Y0053452D01*
X0086716Y0053431D01*
X0086820Y0053407D01*
X0086923Y0053378D01*
X0087025Y0053346D01*
X0087126Y0053311D01*
X0087226Y0053272D01*
X0087324Y0053229D01*
X0087421Y0053183D01*
X0087516Y0053133D01*
X0087609Y0053080D01*
X0087700Y0053024D01*
X0087789Y0052964D01*
X0087876Y0052902D01*
X0087960Y0052836D01*
X0088043Y0052767D01*
X0088122Y0052696D01*
X0088199Y0052621D01*
X0088274Y0052544D01*
X0088345Y0052465D01*
X0088414Y0052382D01*
X0088480Y0052298D01*
X0088542Y0052211D01*
X0088602Y0052122D01*
X0088658Y0052031D01*
X0088711Y0051938D01*
X0088761Y0051843D01*
X0088807Y0051746D01*
X0088850Y0051648D01*
X0088889Y0051548D01*
X0088924Y0051447D01*
X0088956Y0051345D01*
X0088985Y0051242D01*
X0089009Y0051138D01*
X0089030Y0051033D01*
X0089047Y0050927D01*
X0089061Y0050821D01*
X0089070Y0050714D01*
X0089076Y0050607D01*
X0089078Y0050500D01*
X0089078Y0006500D01*
X0089080Y0006393D01*
X0089086Y0006286D01*
X0089095Y0006179D01*
X0089109Y0006073D01*
X0089126Y0005967D01*
X0089147Y0005862D01*
X0089171Y0005758D01*
X0089200Y0005655D01*
X0089232Y0005553D01*
X0089267Y0005452D01*
X0089306Y0005352D01*
X0089349Y0005254D01*
X0089395Y0005157D01*
X0089445Y0005062D01*
X0089498Y0004969D01*
X0089554Y0004878D01*
X0089614Y0004789D01*
X0089676Y0004702D01*
X0089742Y0004618D01*
X0089811Y0004535D01*
X0089882Y0004456D01*
X0089957Y0004379D01*
X0090034Y0004304D01*
X0090113Y0004233D01*
X0090196Y0004164D01*
X0090280Y0004098D01*
X0090367Y0004036D01*
X0090456Y0003976D01*
X0090547Y0003920D01*
X0090640Y0003867D01*
X0090735Y0003817D01*
X0090832Y0003771D01*
X0090930Y0003728D01*
X0091030Y0003689D01*
X0091131Y0003654D01*
X0091233Y0003622D01*
X0091336Y0003593D01*
X0091440Y0003569D01*
X0091545Y0003548D01*
X0091651Y0003531D01*
X0091757Y0003517D01*
X0091864Y0003508D01*
X0091971Y0003502D01*
X0092078Y0003500D01*
X0190578Y0003500D01*
X0190676Y0003502D01*
X0190774Y0003508D01*
X0190872Y0003517D01*
X0190969Y0003531D01*
X0191066Y0003548D01*
X0191162Y0003569D01*
X0191257Y0003594D01*
X0191351Y0003622D01*
X0191443Y0003655D01*
X0191535Y0003690D01*
X0191625Y0003730D01*
X0191713Y0003772D01*
X0191800Y0003819D01*
X0191884Y0003868D01*
X0191967Y0003921D01*
X0192047Y0003977D01*
X0192126Y0004037D01*
X0192202Y0004099D01*
X0192275Y0004164D01*
X0192346Y0004232D01*
X0192414Y0004303D01*
X0192479Y0004376D01*
X0192541Y0004452D01*
X0192601Y0004531D01*
X0192657Y0004611D01*
X0192710Y0004694D01*
X0192759Y0004778D01*
X0192806Y0004865D01*
X0192848Y0004953D01*
X0192888Y0005043D01*
X0192923Y0005135D01*
X0192956Y0005227D01*
X0192984Y0005321D01*
X0193009Y0005416D01*
X0193030Y0005512D01*
X0193047Y0005609D01*
X0193061Y0005706D01*
X0193070Y0005804D01*
X0193076Y0005902D01*
X0193078Y0006000D01*
X0193078Y0101000D01*
X0193076Y0101107D01*
X0193070Y0101214D01*
X0193061Y0101321D01*
X0193047Y0101427D01*
X0193030Y0101533D01*
X0193009Y0101638D01*
X0192985Y0101742D01*
X0192956Y0101845D01*
X0192924Y0101947D01*
X0192889Y0102048D01*
X0192850Y0102148D01*
X0192807Y0102246D01*
X0192761Y0102343D01*
X0192711Y0102438D01*
X0192658Y0102531D01*
X0192602Y0102622D01*
X0192542Y0102711D01*
X0192480Y0102798D01*
X0192414Y0102882D01*
X0192345Y0102965D01*
X0192274Y0103044D01*
X0192199Y0103121D01*
X0192122Y0103196D01*
X0192043Y0103267D01*
X0191960Y0103336D01*
X0191876Y0103402D01*
X0191789Y0103464D01*
X0191700Y0103524D01*
X0191609Y0103580D01*
X0191516Y0103633D01*
X0191421Y0103683D01*
X0191324Y0103729D01*
X0191226Y0103772D01*
X0191126Y0103811D01*
X0191025Y0103846D01*
X0190923Y0103878D01*
X0190820Y0103907D01*
X0190716Y0103931D01*
X0190611Y0103952D01*
X0190505Y0103969D01*
X0190399Y0103983D01*
X0190292Y0103992D01*
X0190185Y0103998D01*
X0190078Y0104000D01*
X0084120Y0104000D01*
X0084011Y0103998D01*
X0083903Y0103992D01*
X0083795Y0103983D01*
X0083687Y0103969D01*
X0083580Y0103952D01*
X0083474Y0103931D01*
X0083368Y0103906D01*
X0083263Y0103877D01*
X0083160Y0103844D01*
X0083057Y0103808D01*
X0082956Y0103769D01*
X0082857Y0103725D01*
X0082759Y0103678D01*
X0082663Y0103628D01*
X0082568Y0103574D01*
X0082476Y0103517D01*
X0082386Y0103457D01*
X0082298Y0103393D01*
X0082212Y0103327D01*
X0082129Y0103257D01*
X0082048Y0103185D01*
X0081970Y0103109D01*
X0081894Y0103031D01*
X0081822Y0102950D01*
X0081752Y0102867D01*
X0081686Y0102781D01*
X0081622Y0102693D01*
X0081562Y0102603D01*
X0081505Y0102511D01*
X0081451Y0102416D01*
X0081401Y0102320D01*
X0081354Y0102222D01*
X0081310Y0102123D01*
X0081271Y0102022D01*
X0081235Y0101919D01*
X0081202Y0101816D01*
X0081173Y0101711D01*
X0081148Y0101605D01*
X0081127Y0101499D01*
X0081110Y0101392D01*
X0081096Y0101284D01*
X0081087Y0101176D01*
X0081081Y0101068D01*
X0081079Y0100959D01*
X0081078Y0100959D02*
X0081078Y0056500D01*
X0081080Y0056393D01*
X0081086Y0056286D01*
X0081095Y0056179D01*
X0081109Y0056073D01*
X0081126Y0055967D01*
X0081147Y0055862D01*
X0081171Y0055758D01*
X0081200Y0055655D01*
X0081232Y0055553D01*
X0081267Y0055452D01*
X0081306Y0055352D01*
X0081349Y0055254D01*
X0081395Y0055157D01*
X0081445Y0055062D01*
X0081498Y0054969D01*
X0081554Y0054878D01*
X0081614Y0054789D01*
X0081676Y0054702D01*
X0081742Y0054618D01*
X0081811Y0054535D01*
X0081882Y0054456D01*
X0081957Y0054379D01*
X0082034Y0054304D01*
X0082113Y0054233D01*
X0082196Y0054164D01*
X0082280Y0054098D01*
X0082367Y0054036D01*
X0082456Y0053976D01*
X0082547Y0053920D01*
X0082640Y0053867D01*
X0082735Y0053817D01*
X0082832Y0053771D01*
X0082930Y0053728D01*
X0083030Y0053689D01*
X0083131Y0053654D01*
X0083233Y0053622D01*
X0083336Y0053593D01*
X0083440Y0053569D01*
X0083545Y0053548D01*
X0083651Y0053531D01*
X0083757Y0053517D01*
X0083864Y0053508D01*
X0083971Y0053502D01*
X0084078Y0053500D01*
X0086078Y0053500D01*
X0092722Y0096804D02*
X0092724Y0096883D01*
X0092730Y0096962D01*
X0092740Y0097041D01*
X0092754Y0097119D01*
X0092771Y0097196D01*
X0092793Y0097272D01*
X0092818Y0097347D01*
X0092848Y0097420D01*
X0092880Y0097492D01*
X0092917Y0097563D01*
X0092957Y0097631D01*
X0093000Y0097697D01*
X0093046Y0097761D01*
X0093096Y0097823D01*
X0093149Y0097882D01*
X0093204Y0097938D01*
X0093263Y0097992D01*
X0093324Y0098042D01*
X0093387Y0098090D01*
X0093453Y0098134D01*
X0093521Y0098175D01*
X0093591Y0098212D01*
X0093662Y0098246D01*
X0093736Y0098276D01*
X0093810Y0098302D01*
X0093886Y0098324D01*
X0093963Y0098343D01*
X0094041Y0098358D01*
X0094119Y0098369D01*
X0094198Y0098376D01*
X0094277Y0098379D01*
X0094356Y0098378D01*
X0094435Y0098373D01*
X0094514Y0098364D01*
X0094592Y0098351D01*
X0094669Y0098334D01*
X0094746Y0098314D01*
X0094821Y0098289D01*
X0094895Y0098261D01*
X0094968Y0098229D01*
X0095038Y0098194D01*
X0095107Y0098155D01*
X0095174Y0098112D01*
X0095239Y0098066D01*
X0095301Y0098018D01*
X0095361Y0097966D01*
X0095418Y0097911D01*
X0095472Y0097853D01*
X0095523Y0097793D01*
X0095571Y0097730D01*
X0095616Y0097665D01*
X0095658Y0097597D01*
X0095696Y0097528D01*
X0095730Y0097457D01*
X0095761Y0097384D01*
X0095789Y0097309D01*
X0095812Y0097234D01*
X0095832Y0097157D01*
X0095848Y0097080D01*
X0095860Y0097001D01*
X0095868Y0096923D01*
X0095872Y0096844D01*
X0095872Y0096764D01*
X0095868Y0096685D01*
X0095860Y0096607D01*
X0095848Y0096528D01*
X0095832Y0096451D01*
X0095812Y0096374D01*
X0095789Y0096299D01*
X0095761Y0096224D01*
X0095730Y0096151D01*
X0095696Y0096080D01*
X0095658Y0096011D01*
X0095616Y0095943D01*
X0095571Y0095878D01*
X0095523Y0095815D01*
X0095472Y0095755D01*
X0095418Y0095697D01*
X0095361Y0095642D01*
X0095301Y0095590D01*
X0095239Y0095542D01*
X0095174Y0095496D01*
X0095107Y0095453D01*
X0095038Y0095414D01*
X0094968Y0095379D01*
X0094895Y0095347D01*
X0094821Y0095319D01*
X0094746Y0095294D01*
X0094669Y0095274D01*
X0094592Y0095257D01*
X0094514Y0095244D01*
X0094435Y0095235D01*
X0094356Y0095230D01*
X0094277Y0095229D01*
X0094198Y0095232D01*
X0094119Y0095239D01*
X0094041Y0095250D01*
X0093963Y0095265D01*
X0093886Y0095284D01*
X0093810Y0095306D01*
X0093736Y0095332D01*
X0093662Y0095362D01*
X0093591Y0095396D01*
X0093521Y0095433D01*
X0093453Y0095474D01*
X0093387Y0095518D01*
X0093324Y0095566D01*
X0093263Y0095616D01*
X0093204Y0095670D01*
X0093149Y0095726D01*
X0093096Y0095785D01*
X0093046Y0095847D01*
X0093000Y0095911D01*
X0092957Y0095977D01*
X0092917Y0096045D01*
X0092880Y0096116D01*
X0092848Y0096188D01*
X0092818Y0096261D01*
X0092793Y0096336D01*
X0092771Y0096412D01*
X0092754Y0096489D01*
X0092740Y0096567D01*
X0092730Y0096646D01*
X0092724Y0096725D01*
X0092722Y0096804D01*
X0104533Y0096804D02*
X0104535Y0096883D01*
X0104541Y0096962D01*
X0104551Y0097041D01*
X0104565Y0097119D01*
X0104582Y0097196D01*
X0104604Y0097272D01*
X0104629Y0097347D01*
X0104659Y0097420D01*
X0104691Y0097492D01*
X0104728Y0097563D01*
X0104768Y0097631D01*
X0104811Y0097697D01*
X0104857Y0097761D01*
X0104907Y0097823D01*
X0104960Y0097882D01*
X0105015Y0097938D01*
X0105074Y0097992D01*
X0105135Y0098042D01*
X0105198Y0098090D01*
X0105264Y0098134D01*
X0105332Y0098175D01*
X0105402Y0098212D01*
X0105473Y0098246D01*
X0105547Y0098276D01*
X0105621Y0098302D01*
X0105697Y0098324D01*
X0105774Y0098343D01*
X0105852Y0098358D01*
X0105930Y0098369D01*
X0106009Y0098376D01*
X0106088Y0098379D01*
X0106167Y0098378D01*
X0106246Y0098373D01*
X0106325Y0098364D01*
X0106403Y0098351D01*
X0106480Y0098334D01*
X0106557Y0098314D01*
X0106632Y0098289D01*
X0106706Y0098261D01*
X0106779Y0098229D01*
X0106849Y0098194D01*
X0106918Y0098155D01*
X0106985Y0098112D01*
X0107050Y0098066D01*
X0107112Y0098018D01*
X0107172Y0097966D01*
X0107229Y0097911D01*
X0107283Y0097853D01*
X0107334Y0097793D01*
X0107382Y0097730D01*
X0107427Y0097665D01*
X0107469Y0097597D01*
X0107507Y0097528D01*
X0107541Y0097457D01*
X0107572Y0097384D01*
X0107600Y0097309D01*
X0107623Y0097234D01*
X0107643Y0097157D01*
X0107659Y0097080D01*
X0107671Y0097001D01*
X0107679Y0096923D01*
X0107683Y0096844D01*
X0107683Y0096764D01*
X0107679Y0096685D01*
X0107671Y0096607D01*
X0107659Y0096528D01*
X0107643Y0096451D01*
X0107623Y0096374D01*
X0107600Y0096299D01*
X0107572Y0096224D01*
X0107541Y0096151D01*
X0107507Y0096080D01*
X0107469Y0096011D01*
X0107427Y0095943D01*
X0107382Y0095878D01*
X0107334Y0095815D01*
X0107283Y0095755D01*
X0107229Y0095697D01*
X0107172Y0095642D01*
X0107112Y0095590D01*
X0107050Y0095542D01*
X0106985Y0095496D01*
X0106918Y0095453D01*
X0106849Y0095414D01*
X0106779Y0095379D01*
X0106706Y0095347D01*
X0106632Y0095319D01*
X0106557Y0095294D01*
X0106480Y0095274D01*
X0106403Y0095257D01*
X0106325Y0095244D01*
X0106246Y0095235D01*
X0106167Y0095230D01*
X0106088Y0095229D01*
X0106009Y0095232D01*
X0105930Y0095239D01*
X0105852Y0095250D01*
X0105774Y0095265D01*
X0105697Y0095284D01*
X0105621Y0095306D01*
X0105547Y0095332D01*
X0105473Y0095362D01*
X0105402Y0095396D01*
X0105332Y0095433D01*
X0105264Y0095474D01*
X0105198Y0095518D01*
X0105135Y0095566D01*
X0105074Y0095616D01*
X0105015Y0095670D01*
X0104960Y0095726D01*
X0104907Y0095785D01*
X0104857Y0095847D01*
X0104811Y0095911D01*
X0104768Y0095977D01*
X0104728Y0096045D01*
X0104691Y0096116D01*
X0104659Y0096188D01*
X0104629Y0096261D01*
X0104604Y0096336D01*
X0104582Y0096412D01*
X0104565Y0096489D01*
X0104551Y0096567D01*
X0104541Y0096646D01*
X0104535Y0096725D01*
X0104533Y0096804D01*
M02*
