%
M48
M72
T01C0.0180
T02C0.0197
T03C0.0315
T04C0.0400
T05C0.0472
%
T01
X8514Y5848
X8514Y8348
X15728Y9885
X17728Y9885
T02
X9108Y5450
X10558Y4550
X12237Y4613
X12237Y4113
X12237Y3613
X12237Y3113
X12237Y2613
X12237Y2113
X12237Y1613
X12237Y1113
X10358Y1650
X9858Y1650
X9858Y850
X9308Y750
X15708Y1700
X16608Y3500
X14508Y5600
X13458Y5900
X12208Y5900
X12758Y5150
X13608Y6850
X13345Y7175
X13608Y7488
X13358Y7800
X14458Y7700
X15308Y7850
X15658Y7500
X15658Y7000
X15658Y6500
X16708Y6538
X16708Y6050
X16708Y7200
X16733Y7638
X16733Y8100
X16858Y8550
X17608Y8550
X18320Y9388
X16633Y9363
X15158Y10100
X13608Y8950
X12545Y9063
X11908Y9550
X10020Y9678
X10108Y9250
X9058Y10050
X11293Y8338
X10095Y7413
T03
X9430Y9680
X10611Y9680
T04
X15308Y4050
X18758Y3875
X18758Y4875
X18758Y5875
X18758Y6875
X18758Y7875
X18758Y8875
X18758Y9875
X18758Y2875
X18758Y1875
X18758Y875
T05
X13624Y1892
X13624Y9766
M30
