G75*
%MOIN*%
%OFA0B0*%
%FSLAX25Y25*%
%IPPOS*%
%LPD*%
%AMOC8*
5,1,8,0,0,1.08239X$1,22.5*
%
%ADD10C,0.00000*%
%ADD11C,0.00400*%
%ADD12C,0.01600*%
%ADD13C,0.00300*%
%ADD14C,0.00500*%
%ADD15C,0.00600*%
%ADD16R,0.00984X0.00984*%
%ADD17C,0.00800*%
%ADD18R,0.28949X0.00044*%
%ADD19R,0.29260X0.00044*%
%ADD20R,0.29526X0.00044*%
%ADD21R,0.29704X0.00044*%
%ADD22R,0.29837X0.00044*%
%ADD23R,0.29970X0.00044*%
%ADD24R,0.30059X0.00044*%
%ADD25R,0.30148X0.00044*%
%ADD26R,0.30236X0.00044*%
%ADD27R,0.30325X0.00044*%
%ADD28R,0.30414X0.00044*%
%ADD29R,0.30414X0.00044*%
%ADD30R,0.30503X0.00044*%
%ADD31R,0.30592X0.00044*%
%ADD32R,0.30636X0.00044*%
%ADD33R,0.30636X0.00044*%
%ADD34R,0.30680X0.00044*%
%ADD35R,0.30547X0.00044*%
%ADD36R,0.30503X0.00044*%
%ADD37R,0.30458X0.00044*%
%ADD38R,0.01465X0.00044*%
%ADD39R,0.01421X0.00044*%
%ADD40R,0.01465X0.00044*%
%ADD41R,0.00311X0.00044*%
%ADD42R,0.00710X0.00044*%
%ADD43R,0.00755X0.00044*%
%ADD44R,0.01421X0.00044*%
%ADD45R,0.01510X0.00044*%
%ADD46R,0.00755X0.00044*%
%ADD47R,0.01421X0.00044*%
%ADD48R,0.00755X0.00044*%
%ADD49R,0.01510X0.00044*%
%ADD50R,0.01465X0.00044*%
%ADD51R,0.00710X0.00044*%
%ADD52R,0.01421X0.00044*%
%ADD53R,0.01510X0.00044*%
%ADD54R,0.00710X0.00044*%
%ADD55R,0.01510X0.00044*%
%ADD56R,0.00755X0.00044*%
%ADD57R,0.00311X0.00044*%
%ADD58R,0.00577X0.00044*%
%ADD59R,0.00444X0.00044*%
%ADD60R,0.00266X0.00044*%
%ADD61R,0.00666X0.00044*%
%ADD62R,0.00666X0.00044*%
%ADD63R,0.01021X0.00044*%
%ADD64R,0.00533X0.00044*%
%ADD65R,0.00622X0.00044*%
%ADD66R,0.00089X0.00044*%
%ADD67R,0.00622X0.00044*%
%ADD68R,0.00932X0.00044*%
%ADD69R,0.01243X0.00044*%
%ADD70R,0.00577X0.00044*%
%ADD71R,0.00888X0.00044*%
%ADD72R,0.00888X0.00044*%
%ADD73R,0.01465X0.00044*%
%ADD74R,0.00622X0.00044*%
%ADD75R,0.00710X0.00044*%
%ADD76R,0.01066X0.00044*%
%ADD77R,0.00577X0.00044*%
%ADD78R,0.01154X0.00044*%
%ADD79R,0.01199X0.00044*%
%ADD80R,0.01199X0.00044*%
%ADD81R,0.01332X0.00044*%
%ADD82R,0.01288X0.00044*%
%ADD83R,0.01598X0.00044*%
%ADD84R,0.01332X0.00044*%
%ADD85R,0.00799X0.00044*%
%ADD86R,0.01687X0.00044*%
%ADD87R,0.01820X0.00044*%
%ADD88R,0.01554X0.00044*%
%ADD89R,0.00844X0.00044*%
%ADD90R,0.01598X0.00044*%
%ADD91R,0.01909X0.00044*%
%ADD92R,0.01643X0.00044*%
%ADD93R,0.01776X0.00044*%
%ADD94R,0.00844X0.00044*%
%ADD95R,0.01687X0.00044*%
%ADD96R,0.01998X0.00044*%
%ADD97R,0.01865X0.00044*%
%ADD98R,0.01776X0.00044*%
%ADD99R,0.02087X0.00044*%
%ADD100R,0.01732X0.00044*%
%ADD101R,0.01954X0.00044*%
%ADD102R,0.01732X0.00044*%
%ADD103R,0.01820X0.00044*%
%ADD104R,0.02176X0.00044*%
%ADD105R,0.01776X0.00044*%
%ADD106R,0.01909X0.00044*%
%ADD107R,0.00133X0.00044*%
%ADD108R,0.01021X0.00044*%
%ADD109R,0.00977X0.00044*%
%ADD110R,0.01954X0.00044*%
%ADD111R,0.00799X0.00044*%
%ADD112R,0.00622X0.00044*%
%ADD113R,0.02176X0.00044*%
%ADD114R,0.00666X0.00044*%
%ADD115R,0.01066X0.00044*%
%ADD116R,0.00977X0.00044*%
%ADD117R,0.00488X0.00044*%
%ADD118R,0.02220X0.00044*%
%ADD119R,0.00355X0.00044*%
%ADD120R,0.02309X0.00044*%
%ADD121R,0.00355X0.00044*%
%ADD122R,0.01110X0.00044*%
%ADD123R,0.00844X0.00044*%
%ADD124R,0.00222X0.00044*%
%ADD125R,0.00977X0.00044*%
%ADD126R,0.01154X0.00044*%
%ADD127R,0.00178X0.00044*%
%ADD128R,0.00133X0.00044*%
%ADD129R,0.00044X0.00044*%
%ADD130R,0.01243X0.00044*%
%ADD131R,0.00799X0.00044*%
%ADD132R,0.01243X0.00044*%
%ADD133R,0.00400X0.00044*%
%ADD134R,0.01376X0.00044*%
%ADD135R,0.00400X0.00044*%
%ADD136R,0.02442X0.00044*%
%ADD137R,0.02486X0.00044*%
%ADD138R,0.02486X0.00044*%
%ADD139R,0.02531X0.00044*%
%ADD140R,0.01021X0.00044*%
%ADD141R,0.01066X0.00044*%
%ADD142R,0.00932X0.00044*%
%ADD143R,0.02531X0.00044*%
%ADD144R,0.00666X0.00044*%
%ADD145R,0.02486X0.00044*%
%ADD146R,0.00888X0.00044*%
%ADD147R,0.00844X0.00044*%
%ADD148R,0.00932X0.00044*%
%ADD149R,0.00266X0.00044*%
%ADD150R,0.00444X0.00044*%
%ADD151R,0.01554X0.00044*%
%ADD152R,0.01332X0.00044*%
%ADD153R,0.00888X0.00044*%
%ADD154R,0.01066X0.00044*%
%ADD155R,0.02087X0.00044*%
%ADD156R,0.00577X0.00044*%
%ADD157R,0.01820X0.00044*%
%ADD158R,0.01865X0.00044*%
%ADD159R,0.01643X0.00044*%
%ADD160R,0.01954X0.00044*%
%ADD161R,0.02042X0.00044*%
%ADD162R,0.02131X0.00044*%
%ADD163R,0.01154X0.00044*%
%ADD164R,0.01288X0.00044*%
%ADD165R,0.01865X0.00044*%
%ADD166R,0.01998X0.00044*%
%ADD167R,0.01154X0.00044*%
%ADD168R,0.01909X0.00044*%
%ADD169R,0.01376X0.00044*%
%ADD170R,0.00266X0.00044*%
%ADD171R,0.01199X0.00044*%
%ADD172R,0.00533X0.00044*%
%ADD173R,0.01199X0.00044*%
%ADD174R,0.00044X0.00044*%
%ADD175R,0.00089X0.00044*%
%ADD176R,0.01554X0.00044*%
%ADD177R,0.00178X0.00044*%
%ADD178R,0.00488X0.00044*%
%ADD179R,0.00178X0.00044*%
%ADD180R,0.02708X0.00044*%
%ADD181R,0.02975X0.00044*%
%ADD182R,0.03774X0.00044*%
%ADD183R,0.03907X0.00044*%
%ADD184R,0.03996X0.00044*%
%ADD185R,0.04129X0.00044*%
%ADD186R,0.00355X0.00044*%
%ADD187R,0.01376X0.00044*%
%ADD188R,0.00488X0.00044*%
%ADD189R,0.00355X0.00044*%
%ADD190R,0.00222X0.00044*%
%ADD191R,0.00222X0.00044*%
%ADD192R,0.00178X0.00044*%
%ADD193R,0.01554X0.00044*%
%ADD194R,0.00133X0.00044*%
%ADD195R,0.00133X0.00044*%
%ADD196R,0.00311X0.00044*%
%ADD197R,0.00222X0.00044*%
%ADD198R,0.00400X0.00044*%
%ADD199R,0.00444X0.00044*%
%ADD200R,0.00400X0.00044*%
%ADD201R,0.01643X0.00044*%
%ADD202R,0.00089X0.00044*%
%ADD203R,0.00044X0.00044*%
%ADD204R,0.00089X0.00044*%
%ADD205R,0.00444X0.00044*%
%ADD206R,0.02264X0.00044*%
%ADD207R,0.01598X0.00044*%
%ADD208R,0.01643X0.00044*%
%ADD209R,0.01243X0.00044*%
%ADD210R,0.01687X0.00044*%
%ADD211R,0.01687X0.00044*%
%ADD212R,0.02575X0.00044*%
%ADD213R,0.02309X0.00044*%
%ADD214R,0.01288X0.00044*%
%ADD215R,0.00533X0.00044*%
%ADD216R,0.01288X0.00044*%
%ADD217R,0.02264X0.00044*%
%ADD218R,0.01732X0.00044*%
%ADD219R,0.02264X0.00044*%
%ADD220R,0.02353X0.00044*%
%ADD221R,0.01110X0.00044*%
%ADD222R,0.02398X0.00044*%
%ADD223R,0.02664X0.00044*%
%ADD224R,0.01110X0.00044*%
%ADD225R,0.01732X0.00044*%
%ADD226R,0.01598X0.00044*%
%ADD227R,0.01776X0.00044*%
%ADD228R,0.03463X0.00044*%
%ADD229R,0.03419X0.00044*%
%ADD230R,0.03374X0.00044*%
%ADD231R,0.03330X0.00044*%
%ADD232R,0.03286X0.00044*%
%ADD233R,0.03241X0.00044*%
%ADD234R,0.03152X0.00044*%
%ADD235R,0.03108X0.00044*%
%ADD236R,0.03064X0.00044*%
%ADD237R,0.03019X0.00044*%
%ADD238R,0.02975X0.00044*%
%ADD239R,0.02886X0.00044*%
%ADD240R,0.02842X0.00044*%
%ADD241R,0.02797X0.00044*%
%ADD242R,0.02753X0.00044*%
%ADD243R,0.02664X0.00044*%
%ADD244R,0.02620X0.00044*%
%ADD245R,0.02442X0.00044*%
%ADD246R,0.02353X0.00044*%
%ADD247R,0.02131X0.00044*%
%ADD248R,0.01820X0.00044*%
D10*
X0086078Y0053500D02*
X0086185Y0053498D01*
X0086292Y0053492D01*
X0086399Y0053483D01*
X0086505Y0053469D01*
X0086611Y0053452D01*
X0086716Y0053431D01*
X0086820Y0053407D01*
X0086923Y0053378D01*
X0087025Y0053346D01*
X0087126Y0053311D01*
X0087226Y0053272D01*
X0087324Y0053229D01*
X0087421Y0053183D01*
X0087516Y0053133D01*
X0087609Y0053080D01*
X0087700Y0053024D01*
X0087789Y0052964D01*
X0087876Y0052902D01*
X0087960Y0052836D01*
X0088043Y0052767D01*
X0088122Y0052696D01*
X0088199Y0052621D01*
X0088274Y0052544D01*
X0088345Y0052465D01*
X0088414Y0052382D01*
X0088480Y0052298D01*
X0088542Y0052211D01*
X0088602Y0052122D01*
X0088658Y0052031D01*
X0088711Y0051938D01*
X0088761Y0051843D01*
X0088807Y0051746D01*
X0088850Y0051648D01*
X0088889Y0051548D01*
X0088924Y0051447D01*
X0088956Y0051345D01*
X0088985Y0051242D01*
X0089009Y0051138D01*
X0089030Y0051033D01*
X0089047Y0050927D01*
X0089061Y0050821D01*
X0089070Y0050714D01*
X0089076Y0050607D01*
X0089078Y0050500D01*
X0089078Y0006500D01*
X0089080Y0006393D01*
X0089086Y0006286D01*
X0089095Y0006179D01*
X0089109Y0006073D01*
X0089126Y0005967D01*
X0089147Y0005862D01*
X0089171Y0005758D01*
X0089200Y0005655D01*
X0089232Y0005553D01*
X0089267Y0005452D01*
X0089306Y0005352D01*
X0089349Y0005254D01*
X0089395Y0005157D01*
X0089445Y0005062D01*
X0089498Y0004969D01*
X0089554Y0004878D01*
X0089614Y0004789D01*
X0089676Y0004702D01*
X0089742Y0004618D01*
X0089811Y0004535D01*
X0089882Y0004456D01*
X0089957Y0004379D01*
X0090034Y0004304D01*
X0090113Y0004233D01*
X0090196Y0004164D01*
X0090280Y0004098D01*
X0090367Y0004036D01*
X0090456Y0003976D01*
X0090547Y0003920D01*
X0090640Y0003867D01*
X0090735Y0003817D01*
X0090832Y0003771D01*
X0090930Y0003728D01*
X0091030Y0003689D01*
X0091131Y0003654D01*
X0091233Y0003622D01*
X0091336Y0003593D01*
X0091440Y0003569D01*
X0091545Y0003548D01*
X0091651Y0003531D01*
X0091757Y0003517D01*
X0091864Y0003508D01*
X0091971Y0003502D01*
X0092078Y0003500D01*
X0190578Y0003500D01*
X0190676Y0003502D01*
X0190774Y0003508D01*
X0190872Y0003517D01*
X0190969Y0003531D01*
X0191066Y0003548D01*
X0191162Y0003569D01*
X0191257Y0003594D01*
X0191351Y0003622D01*
X0191443Y0003655D01*
X0191535Y0003690D01*
X0191625Y0003730D01*
X0191713Y0003772D01*
X0191800Y0003819D01*
X0191884Y0003868D01*
X0191967Y0003921D01*
X0192047Y0003977D01*
X0192126Y0004037D01*
X0192202Y0004099D01*
X0192275Y0004164D01*
X0192346Y0004232D01*
X0192414Y0004303D01*
X0192479Y0004376D01*
X0192541Y0004452D01*
X0192601Y0004531D01*
X0192657Y0004611D01*
X0192710Y0004694D01*
X0192759Y0004778D01*
X0192806Y0004865D01*
X0192848Y0004953D01*
X0192888Y0005043D01*
X0192923Y0005135D01*
X0192956Y0005227D01*
X0192984Y0005321D01*
X0193009Y0005416D01*
X0193030Y0005512D01*
X0193047Y0005609D01*
X0193061Y0005706D01*
X0193070Y0005804D01*
X0193076Y0005902D01*
X0193078Y0006000D01*
X0193078Y0101000D01*
X0193076Y0101107D01*
X0193070Y0101214D01*
X0193061Y0101321D01*
X0193047Y0101427D01*
X0193030Y0101533D01*
X0193009Y0101638D01*
X0192985Y0101742D01*
X0192956Y0101845D01*
X0192924Y0101947D01*
X0192889Y0102048D01*
X0192850Y0102148D01*
X0192807Y0102246D01*
X0192761Y0102343D01*
X0192711Y0102438D01*
X0192658Y0102531D01*
X0192602Y0102622D01*
X0192542Y0102711D01*
X0192480Y0102798D01*
X0192414Y0102882D01*
X0192345Y0102965D01*
X0192274Y0103044D01*
X0192199Y0103121D01*
X0192122Y0103196D01*
X0192043Y0103267D01*
X0191960Y0103336D01*
X0191876Y0103402D01*
X0191789Y0103464D01*
X0191700Y0103524D01*
X0191609Y0103580D01*
X0191516Y0103633D01*
X0191421Y0103683D01*
X0191324Y0103729D01*
X0191226Y0103772D01*
X0191126Y0103811D01*
X0191025Y0103846D01*
X0190923Y0103878D01*
X0190820Y0103907D01*
X0190716Y0103931D01*
X0190611Y0103952D01*
X0190505Y0103969D01*
X0190399Y0103983D01*
X0190292Y0103992D01*
X0190185Y0103998D01*
X0190078Y0104000D01*
X0084120Y0104000D01*
X0084011Y0103998D01*
X0083903Y0103992D01*
X0083795Y0103983D01*
X0083687Y0103969D01*
X0083580Y0103952D01*
X0083474Y0103931D01*
X0083368Y0103906D01*
X0083263Y0103877D01*
X0083160Y0103844D01*
X0083057Y0103808D01*
X0082956Y0103769D01*
X0082857Y0103725D01*
X0082759Y0103678D01*
X0082663Y0103628D01*
X0082568Y0103574D01*
X0082476Y0103517D01*
X0082386Y0103457D01*
X0082298Y0103393D01*
X0082212Y0103327D01*
X0082129Y0103257D01*
X0082048Y0103185D01*
X0081970Y0103109D01*
X0081894Y0103031D01*
X0081822Y0102950D01*
X0081752Y0102867D01*
X0081686Y0102781D01*
X0081622Y0102693D01*
X0081562Y0102603D01*
X0081505Y0102511D01*
X0081451Y0102416D01*
X0081401Y0102320D01*
X0081354Y0102222D01*
X0081310Y0102123D01*
X0081271Y0102022D01*
X0081235Y0101919D01*
X0081202Y0101816D01*
X0081173Y0101711D01*
X0081148Y0101605D01*
X0081127Y0101499D01*
X0081110Y0101392D01*
X0081096Y0101284D01*
X0081087Y0101176D01*
X0081081Y0101068D01*
X0081079Y0100959D01*
X0081078Y0100959D02*
X0081078Y0056500D01*
X0081080Y0056393D01*
X0081086Y0056286D01*
X0081095Y0056179D01*
X0081109Y0056073D01*
X0081126Y0055967D01*
X0081147Y0055862D01*
X0081171Y0055758D01*
X0081200Y0055655D01*
X0081232Y0055553D01*
X0081267Y0055452D01*
X0081306Y0055352D01*
X0081349Y0055254D01*
X0081395Y0055157D01*
X0081445Y0055062D01*
X0081498Y0054969D01*
X0081554Y0054878D01*
X0081614Y0054789D01*
X0081676Y0054702D01*
X0081742Y0054618D01*
X0081811Y0054535D01*
X0081882Y0054456D01*
X0081957Y0054379D01*
X0082034Y0054304D01*
X0082113Y0054233D01*
X0082196Y0054164D01*
X0082280Y0054098D01*
X0082367Y0054036D01*
X0082456Y0053976D01*
X0082547Y0053920D01*
X0082640Y0053867D01*
X0082735Y0053817D01*
X0082832Y0053771D01*
X0082930Y0053728D01*
X0083030Y0053689D01*
X0083131Y0053654D01*
X0083233Y0053622D01*
X0083336Y0053593D01*
X0083440Y0053569D01*
X0083545Y0053548D01*
X0083651Y0053531D01*
X0083757Y0053517D01*
X0083864Y0053508D01*
X0083971Y0053502D01*
X0084078Y0053500D01*
X0086078Y0053500D01*
X0092722Y0096804D02*
X0092724Y0096883D01*
X0092730Y0096962D01*
X0092740Y0097041D01*
X0092754Y0097119D01*
X0092771Y0097196D01*
X0092793Y0097272D01*
X0092818Y0097347D01*
X0092848Y0097420D01*
X0092880Y0097492D01*
X0092917Y0097563D01*
X0092957Y0097631D01*
X0093000Y0097697D01*
X0093046Y0097761D01*
X0093096Y0097823D01*
X0093149Y0097882D01*
X0093204Y0097938D01*
X0093263Y0097992D01*
X0093324Y0098042D01*
X0093387Y0098090D01*
X0093453Y0098134D01*
X0093521Y0098175D01*
X0093591Y0098212D01*
X0093662Y0098246D01*
X0093736Y0098276D01*
X0093810Y0098302D01*
X0093886Y0098324D01*
X0093963Y0098343D01*
X0094041Y0098358D01*
X0094119Y0098369D01*
X0094198Y0098376D01*
X0094277Y0098379D01*
X0094356Y0098378D01*
X0094435Y0098373D01*
X0094514Y0098364D01*
X0094592Y0098351D01*
X0094669Y0098334D01*
X0094746Y0098314D01*
X0094821Y0098289D01*
X0094895Y0098261D01*
X0094968Y0098229D01*
X0095038Y0098194D01*
X0095107Y0098155D01*
X0095174Y0098112D01*
X0095239Y0098066D01*
X0095301Y0098018D01*
X0095361Y0097966D01*
X0095418Y0097911D01*
X0095472Y0097853D01*
X0095523Y0097793D01*
X0095571Y0097730D01*
X0095616Y0097665D01*
X0095658Y0097597D01*
X0095696Y0097528D01*
X0095730Y0097457D01*
X0095761Y0097384D01*
X0095789Y0097309D01*
X0095812Y0097234D01*
X0095832Y0097157D01*
X0095848Y0097080D01*
X0095860Y0097001D01*
X0095868Y0096923D01*
X0095872Y0096844D01*
X0095872Y0096764D01*
X0095868Y0096685D01*
X0095860Y0096607D01*
X0095848Y0096528D01*
X0095832Y0096451D01*
X0095812Y0096374D01*
X0095789Y0096299D01*
X0095761Y0096224D01*
X0095730Y0096151D01*
X0095696Y0096080D01*
X0095658Y0096011D01*
X0095616Y0095943D01*
X0095571Y0095878D01*
X0095523Y0095815D01*
X0095472Y0095755D01*
X0095418Y0095697D01*
X0095361Y0095642D01*
X0095301Y0095590D01*
X0095239Y0095542D01*
X0095174Y0095496D01*
X0095107Y0095453D01*
X0095038Y0095414D01*
X0094968Y0095379D01*
X0094895Y0095347D01*
X0094821Y0095319D01*
X0094746Y0095294D01*
X0094669Y0095274D01*
X0094592Y0095257D01*
X0094514Y0095244D01*
X0094435Y0095235D01*
X0094356Y0095230D01*
X0094277Y0095229D01*
X0094198Y0095232D01*
X0094119Y0095239D01*
X0094041Y0095250D01*
X0093963Y0095265D01*
X0093886Y0095284D01*
X0093810Y0095306D01*
X0093736Y0095332D01*
X0093662Y0095362D01*
X0093591Y0095396D01*
X0093521Y0095433D01*
X0093453Y0095474D01*
X0093387Y0095518D01*
X0093324Y0095566D01*
X0093263Y0095616D01*
X0093204Y0095670D01*
X0093149Y0095726D01*
X0093096Y0095785D01*
X0093046Y0095847D01*
X0093000Y0095911D01*
X0092957Y0095977D01*
X0092917Y0096045D01*
X0092880Y0096116D01*
X0092848Y0096188D01*
X0092818Y0096261D01*
X0092793Y0096336D01*
X0092771Y0096412D01*
X0092754Y0096489D01*
X0092740Y0096567D01*
X0092730Y0096646D01*
X0092724Y0096725D01*
X0092722Y0096804D01*
X0104533Y0096804D02*
X0104535Y0096883D01*
X0104541Y0096962D01*
X0104551Y0097041D01*
X0104565Y0097119D01*
X0104582Y0097196D01*
X0104604Y0097272D01*
X0104629Y0097347D01*
X0104659Y0097420D01*
X0104691Y0097492D01*
X0104728Y0097563D01*
X0104768Y0097631D01*
X0104811Y0097697D01*
X0104857Y0097761D01*
X0104907Y0097823D01*
X0104960Y0097882D01*
X0105015Y0097938D01*
X0105074Y0097992D01*
X0105135Y0098042D01*
X0105198Y0098090D01*
X0105264Y0098134D01*
X0105332Y0098175D01*
X0105402Y0098212D01*
X0105473Y0098246D01*
X0105547Y0098276D01*
X0105621Y0098302D01*
X0105697Y0098324D01*
X0105774Y0098343D01*
X0105852Y0098358D01*
X0105930Y0098369D01*
X0106009Y0098376D01*
X0106088Y0098379D01*
X0106167Y0098378D01*
X0106246Y0098373D01*
X0106325Y0098364D01*
X0106403Y0098351D01*
X0106480Y0098334D01*
X0106557Y0098314D01*
X0106632Y0098289D01*
X0106706Y0098261D01*
X0106779Y0098229D01*
X0106849Y0098194D01*
X0106918Y0098155D01*
X0106985Y0098112D01*
X0107050Y0098066D01*
X0107112Y0098018D01*
X0107172Y0097966D01*
X0107229Y0097911D01*
X0107283Y0097853D01*
X0107334Y0097793D01*
X0107382Y0097730D01*
X0107427Y0097665D01*
X0107469Y0097597D01*
X0107507Y0097528D01*
X0107541Y0097457D01*
X0107572Y0097384D01*
X0107600Y0097309D01*
X0107623Y0097234D01*
X0107643Y0097157D01*
X0107659Y0097080D01*
X0107671Y0097001D01*
X0107679Y0096923D01*
X0107683Y0096844D01*
X0107683Y0096764D01*
X0107679Y0096685D01*
X0107671Y0096607D01*
X0107659Y0096528D01*
X0107643Y0096451D01*
X0107623Y0096374D01*
X0107600Y0096299D01*
X0107572Y0096224D01*
X0107541Y0096151D01*
X0107507Y0096080D01*
X0107469Y0096011D01*
X0107427Y0095943D01*
X0107382Y0095878D01*
X0107334Y0095815D01*
X0107283Y0095755D01*
X0107229Y0095697D01*
X0107172Y0095642D01*
X0107112Y0095590D01*
X0107050Y0095542D01*
X0106985Y0095496D01*
X0106918Y0095453D01*
X0106849Y0095414D01*
X0106779Y0095379D01*
X0106706Y0095347D01*
X0106632Y0095319D01*
X0106557Y0095294D01*
X0106480Y0095274D01*
X0106403Y0095257D01*
X0106325Y0095244D01*
X0106246Y0095235D01*
X0106167Y0095230D01*
X0106088Y0095229D01*
X0106009Y0095232D01*
X0105930Y0095239D01*
X0105852Y0095250D01*
X0105774Y0095265D01*
X0105697Y0095284D01*
X0105621Y0095306D01*
X0105547Y0095332D01*
X0105473Y0095362D01*
X0105402Y0095396D01*
X0105332Y0095433D01*
X0105264Y0095474D01*
X0105198Y0095518D01*
X0105135Y0095566D01*
X0105074Y0095616D01*
X0105015Y0095670D01*
X0104960Y0095726D01*
X0104907Y0095785D01*
X0104857Y0095847D01*
X0104811Y0095911D01*
X0104768Y0095977D01*
X0104728Y0096045D01*
X0104691Y0096116D01*
X0104659Y0096188D01*
X0104629Y0096261D01*
X0104604Y0096336D01*
X0104582Y0096412D01*
X0104565Y0096489D01*
X0104551Y0096567D01*
X0104541Y0096646D01*
X0104535Y0096725D01*
X0104533Y0096804D01*
D11*
X0129501Y0009804D02*
X0131036Y0009804D01*
X0130269Y0009804D02*
X0130269Y0005200D01*
X0131036Y0005200D02*
X0129501Y0005200D01*
X0132571Y0005200D02*
X0134872Y0005200D01*
X0135640Y0005967D01*
X0135640Y0009037D01*
X0134872Y0009804D01*
X0132571Y0009804D01*
X0132571Y0005200D01*
X0137174Y0006735D02*
X0140244Y0006735D01*
X0140244Y0008269D02*
X0139476Y0008269D01*
X0137174Y0008269D01*
X0137942Y0009804D02*
X0137942Y0005200D01*
X0139476Y0005200D02*
X0139476Y0009804D01*
D12*
X0142578Y0009879D02*
X0168078Y0009879D01*
X0168078Y0008281D02*
X0142578Y0008281D01*
X0142578Y0006682D02*
X0168078Y0006682D01*
X0168078Y0005084D02*
X0142578Y0005084D01*
X0142578Y0004500D02*
X0142578Y0014500D01*
X0168078Y0014500D01*
X0168078Y0004500D01*
X0142578Y0004500D01*
X0142578Y0011478D02*
X0168078Y0011478D01*
X0168078Y0013076D02*
X0142578Y0013076D01*
D13*
X0147210Y0017053D02*
X0147897Y0017053D01*
X0148263Y0017351D02*
X0146912Y0017351D01*
X0146613Y0017650D02*
X0148629Y0017650D01*
X0148995Y0017948D02*
X0146315Y0017948D01*
X0146016Y0018247D02*
X0149361Y0018247D01*
X0149727Y0018545D02*
X0145908Y0018545D01*
X0145823Y0018440D02*
X0147519Y0016744D01*
X0149993Y0018761D01*
X0150989Y0018248D01*
X0152401Y0021658D01*
X0151869Y0021942D01*
X0151403Y0022325D01*
X0151021Y0022791D01*
X0150737Y0023323D01*
X0150562Y0023900D01*
X0150502Y0024500D01*
X0150567Y0025128D01*
X0150759Y0025730D01*
X0151070Y0026280D01*
X0151486Y0026755D01*
X0151991Y0027135D01*
X0152562Y0027403D01*
X0153177Y0027550D01*
X0153808Y0027567D01*
X0154430Y0027456D01*
X0155016Y0027220D01*
X0155541Y0026869D01*
X0155983Y0026418D01*
X0156324Y0025886D01*
X0156549Y0025296D01*
X0156649Y0024673D01*
X0156620Y0024042D01*
X0156462Y0023430D01*
X0156183Y0022864D01*
X0155794Y0022366D01*
X0155311Y0021959D01*
X0154756Y0021658D01*
X0156168Y0018248D01*
X0157164Y0018761D01*
X0159638Y0016744D01*
X0161334Y0018440D01*
X0159317Y0020914D01*
X0159830Y0021911D01*
X0160172Y0022978D01*
X0163348Y0023300D01*
X0163348Y0025700D01*
X0160172Y0026022D01*
X0159830Y0027089D01*
X0159317Y0028086D01*
X0161334Y0030560D01*
X0159638Y0032256D01*
X0157164Y0030239D01*
X0156168Y0030752D01*
X0155100Y0031093D01*
X0154778Y0034269D01*
X0152379Y0034269D01*
X0152056Y0031093D01*
X0150989Y0030752D01*
X0149993Y0030239D01*
X0147519Y0032256D01*
X0145823Y0030560D01*
X0147840Y0028086D01*
X0147327Y0027089D01*
X0146985Y0026022D01*
X0143809Y0025700D01*
X0143809Y0023300D01*
X0146985Y0022978D01*
X0147327Y0021911D01*
X0147840Y0020914D01*
X0145823Y0018440D01*
X0146152Y0018844D02*
X0151235Y0018844D01*
X0151359Y0019142D02*
X0146395Y0019142D01*
X0146638Y0019441D02*
X0151483Y0019441D01*
X0151606Y0019739D02*
X0146882Y0019739D01*
X0147125Y0020038D02*
X0151730Y0020038D01*
X0151854Y0020336D02*
X0147369Y0020336D01*
X0147612Y0020635D02*
X0151977Y0020635D01*
X0152101Y0020933D02*
X0147830Y0020933D01*
X0147676Y0021232D02*
X0152225Y0021232D01*
X0152348Y0021530D02*
X0147523Y0021530D01*
X0147369Y0021829D02*
X0152082Y0021829D01*
X0151644Y0022127D02*
X0147257Y0022127D01*
X0147162Y0022426D02*
X0151321Y0022426D01*
X0151076Y0022724D02*
X0147066Y0022724D01*
X0146543Y0023023D02*
X0150897Y0023023D01*
X0150737Y0023321D02*
X0143809Y0023321D01*
X0143809Y0023620D02*
X0150646Y0023620D01*
X0150560Y0023918D02*
X0143809Y0023918D01*
X0143809Y0024217D02*
X0150530Y0024217D01*
X0150504Y0024515D02*
X0143809Y0024515D01*
X0143809Y0024814D02*
X0150535Y0024814D01*
X0150566Y0025112D02*
X0143809Y0025112D01*
X0143809Y0025411D02*
X0150657Y0025411D01*
X0150753Y0025709D02*
X0143906Y0025709D01*
X0146846Y0026008D02*
X0150916Y0026008D01*
X0151093Y0026306D02*
X0147076Y0026306D01*
X0147172Y0026605D02*
X0151355Y0026605D01*
X0151684Y0026903D02*
X0147267Y0026903D01*
X0147385Y0027202D02*
X0152134Y0027202D01*
X0152971Y0027501D02*
X0147538Y0027501D01*
X0147692Y0027799D02*
X0159465Y0027799D01*
X0159327Y0028098D02*
X0147830Y0028098D01*
X0147587Y0028396D02*
X0159570Y0028396D01*
X0159813Y0028695D02*
X0147343Y0028695D01*
X0147100Y0028993D02*
X0160057Y0028993D01*
X0160300Y0029292D02*
X0146857Y0029292D01*
X0146613Y0029590D02*
X0160544Y0029590D01*
X0160787Y0029889D02*
X0146370Y0029889D01*
X0146126Y0030187D02*
X0161030Y0030187D01*
X0161274Y0030486D02*
X0157467Y0030486D01*
X0157833Y0030784D02*
X0161110Y0030784D01*
X0160812Y0031083D02*
X0158199Y0031083D01*
X0158565Y0031381D02*
X0160513Y0031381D01*
X0160214Y0031680D02*
X0158932Y0031680D01*
X0159298Y0031978D02*
X0159916Y0031978D01*
X0156066Y0030784D02*
X0151090Y0030784D01*
X0150472Y0030486D02*
X0156685Y0030486D01*
X0155134Y0031083D02*
X0152023Y0031083D01*
X0152086Y0031381D02*
X0155071Y0031381D01*
X0155041Y0031680D02*
X0152116Y0031680D01*
X0152146Y0031978D02*
X0155011Y0031978D01*
X0154980Y0032277D02*
X0152177Y0032277D01*
X0152207Y0032575D02*
X0154950Y0032575D01*
X0154920Y0032874D02*
X0152237Y0032874D01*
X0152267Y0033172D02*
X0154889Y0033172D01*
X0154859Y0033471D02*
X0152298Y0033471D01*
X0152328Y0033769D02*
X0154829Y0033769D01*
X0154798Y0034068D02*
X0152358Y0034068D01*
X0149324Y0030784D02*
X0146047Y0030784D01*
X0145883Y0030486D02*
X0149690Y0030486D01*
X0148957Y0031083D02*
X0146345Y0031083D01*
X0146644Y0031381D02*
X0148591Y0031381D01*
X0148225Y0031680D02*
X0146942Y0031680D01*
X0147241Y0031978D02*
X0147859Y0031978D01*
X0144414Y0033591D02*
X0142479Y0031656D01*
X0142479Y0031172D01*
X0141468Y0031656D02*
X0140984Y0031172D01*
X0140016Y0031172D01*
X0139533Y0031656D01*
X0139533Y0033591D01*
X0140016Y0034075D01*
X0140984Y0034075D01*
X0141468Y0033591D01*
X0142479Y0034075D02*
X0144414Y0034075D01*
X0144414Y0033591D01*
X0136017Y0031150D02*
X0134082Y0031150D01*
X0135049Y0031150D02*
X0135049Y0034052D01*
X0134082Y0033085D01*
X0133070Y0033569D02*
X0133070Y0032601D01*
X0132587Y0032117D01*
X0131135Y0032117D01*
X0131135Y0031150D02*
X0131135Y0034052D01*
X0132587Y0034052D01*
X0133070Y0033569D01*
X0132103Y0032117D02*
X0133070Y0031150D01*
X0154180Y0027501D02*
X0159618Y0027501D01*
X0159772Y0027202D02*
X0155042Y0027202D01*
X0155489Y0026903D02*
X0159890Y0026903D01*
X0159985Y0026605D02*
X0155799Y0026605D01*
X0156055Y0026306D02*
X0160081Y0026306D01*
X0160310Y0026008D02*
X0156246Y0026008D01*
X0156392Y0025709D02*
X0163251Y0025709D01*
X0163348Y0025411D02*
X0156506Y0025411D01*
X0156579Y0025112D02*
X0163348Y0025112D01*
X0163348Y0024814D02*
X0156627Y0024814D01*
X0156642Y0024515D02*
X0163348Y0024515D01*
X0163348Y0024217D02*
X0156628Y0024217D01*
X0156588Y0023918D02*
X0163348Y0023918D01*
X0163348Y0023620D02*
X0156511Y0023620D01*
X0156409Y0023321D02*
X0163348Y0023321D01*
X0160614Y0023023D02*
X0156261Y0023023D01*
X0156074Y0022724D02*
X0160091Y0022724D01*
X0159995Y0022426D02*
X0155840Y0022426D01*
X0155511Y0022127D02*
X0159899Y0022127D01*
X0159788Y0021829D02*
X0155071Y0021829D01*
X0154809Y0021530D02*
X0159634Y0021530D01*
X0159481Y0021232D02*
X0154932Y0021232D01*
X0155056Y0020933D02*
X0159327Y0020933D01*
X0159545Y0020635D02*
X0155180Y0020635D01*
X0155303Y0020336D02*
X0159788Y0020336D01*
X0160032Y0020038D02*
X0155427Y0020038D01*
X0155550Y0019739D02*
X0160275Y0019739D01*
X0160518Y0019441D02*
X0155674Y0019441D01*
X0155798Y0019142D02*
X0160762Y0019142D01*
X0161005Y0018844D02*
X0155921Y0018844D01*
X0156045Y0018545D02*
X0156745Y0018545D01*
X0157429Y0018545D02*
X0161249Y0018545D01*
X0161141Y0018247D02*
X0157796Y0018247D01*
X0158162Y0017948D02*
X0160842Y0017948D01*
X0160544Y0017650D02*
X0158528Y0017650D01*
X0158894Y0017351D02*
X0160245Y0017351D01*
X0159947Y0017053D02*
X0159260Y0017053D01*
X0159626Y0016754D02*
X0159648Y0016754D01*
X0161389Y0016700D02*
X0161389Y0019602D01*
X0162840Y0019602D01*
X0163324Y0019119D01*
X0163324Y0018151D01*
X0162840Y0017667D01*
X0161389Y0017667D01*
X0162356Y0017667D02*
X0163324Y0016700D01*
X0164335Y0016700D02*
X0166270Y0016700D01*
X0165303Y0016700D02*
X0165303Y0019602D01*
X0164335Y0018635D01*
X0167282Y0019119D02*
X0167282Y0017184D01*
X0169217Y0019119D01*
X0169217Y0017184D01*
X0168733Y0016700D01*
X0167766Y0016700D01*
X0167282Y0017184D01*
X0167282Y0019119D02*
X0167766Y0019602D01*
X0168733Y0019602D01*
X0169217Y0019119D01*
X0171889Y0014602D02*
X0173340Y0014602D01*
X0173824Y0014119D01*
X0173824Y0013151D01*
X0173340Y0012667D01*
X0171889Y0012667D01*
X0171889Y0011700D02*
X0171889Y0014602D01*
X0172856Y0012667D02*
X0173824Y0011700D01*
X0174835Y0011700D02*
X0176770Y0011700D01*
X0175803Y0011700D02*
X0175803Y0014602D01*
X0174835Y0013635D01*
X0177782Y0013635D02*
X0178749Y0014602D01*
X0178749Y0011700D01*
X0177782Y0011700D02*
X0179717Y0011700D01*
X0171326Y0027100D02*
X0171810Y0027584D01*
X0171810Y0029519D01*
X0171326Y0030002D01*
X0170359Y0030002D01*
X0169875Y0029519D01*
X0169875Y0029035D01*
X0170359Y0028551D01*
X0171810Y0028551D01*
X0171326Y0027100D02*
X0170359Y0027100D01*
X0169875Y0027584D01*
X0168863Y0027100D02*
X0167896Y0028067D01*
X0168380Y0028067D02*
X0166928Y0028067D01*
X0166928Y0027100D02*
X0166928Y0030002D01*
X0168380Y0030002D01*
X0168863Y0029519D01*
X0168863Y0028551D01*
X0168380Y0028067D01*
X0168835Y0032700D02*
X0168835Y0035602D01*
X0170287Y0035602D01*
X0170770Y0035119D01*
X0170770Y0034151D01*
X0170287Y0033667D01*
X0168835Y0033667D01*
X0169803Y0033667D02*
X0170770Y0032700D01*
X0171782Y0033184D02*
X0171782Y0033667D01*
X0172266Y0034151D01*
X0173233Y0034151D01*
X0173717Y0033667D01*
X0173717Y0033184D01*
X0173233Y0032700D01*
X0172266Y0032700D01*
X0171782Y0033184D01*
X0172266Y0034151D02*
X0171782Y0034635D01*
X0171782Y0035119D01*
X0172266Y0035602D01*
X0173233Y0035602D01*
X0173717Y0035119D01*
X0173717Y0034635D01*
X0173233Y0034151D01*
X0162228Y0035850D02*
X0159326Y0035850D01*
X0159326Y0037301D01*
X0159810Y0037785D01*
X0160777Y0037785D01*
X0161261Y0037301D01*
X0161261Y0035850D01*
X0161261Y0036817D02*
X0162228Y0037785D01*
X0162228Y0038797D02*
X0160293Y0038797D01*
X0159326Y0039764D01*
X0160293Y0040731D01*
X0162228Y0040731D01*
X0162228Y0041743D02*
X0159326Y0041743D01*
X0160777Y0040731D02*
X0160777Y0038797D01*
X0162228Y0041743D02*
X0161261Y0042711D01*
X0162228Y0043678D01*
X0159326Y0043678D01*
X0159303Y0049703D02*
X0160270Y0049703D01*
X0159787Y0049703D02*
X0159787Y0052606D01*
X0160270Y0052606D02*
X0159303Y0052606D01*
X0161267Y0052122D02*
X0161267Y0050187D01*
X0161751Y0049703D01*
X0162718Y0049703D01*
X0163202Y0050187D01*
X0164214Y0049703D02*
X0166149Y0051638D01*
X0166149Y0052122D01*
X0165665Y0052606D01*
X0164697Y0052606D01*
X0164214Y0052122D01*
X0163202Y0052122D02*
X0162718Y0052606D01*
X0161751Y0052606D01*
X0161267Y0052122D01*
X0164214Y0049703D02*
X0166149Y0049703D01*
X0172335Y0052700D02*
X0172335Y0055602D01*
X0173787Y0055602D01*
X0174270Y0055119D01*
X0174270Y0054151D01*
X0173787Y0053667D01*
X0172335Y0053667D01*
X0173303Y0053667D02*
X0174270Y0052700D01*
X0175282Y0053184D02*
X0175766Y0052700D01*
X0176733Y0052700D01*
X0177217Y0053184D01*
X0177217Y0053667D01*
X0176733Y0054151D01*
X0175282Y0054151D01*
X0175282Y0053184D01*
X0175282Y0054151D02*
X0176249Y0055119D01*
X0177217Y0055602D01*
X0176733Y0062700D02*
X0175766Y0062700D01*
X0175282Y0063184D01*
X0175282Y0064151D02*
X0176249Y0064635D01*
X0176733Y0064635D01*
X0177217Y0064151D01*
X0177217Y0063184D01*
X0176733Y0062700D01*
X0175282Y0064151D02*
X0175282Y0065602D01*
X0177217Y0065602D01*
X0174270Y0065119D02*
X0174270Y0064151D01*
X0173787Y0063667D01*
X0172335Y0063667D01*
X0172335Y0062700D02*
X0172335Y0065602D01*
X0173787Y0065602D01*
X0174270Y0065119D01*
X0173303Y0063667D02*
X0174270Y0062700D01*
X0174270Y0072700D02*
X0173303Y0073667D01*
X0173787Y0073667D02*
X0172335Y0073667D01*
X0172335Y0072700D02*
X0172335Y0075602D01*
X0173787Y0075602D01*
X0174270Y0075119D01*
X0174270Y0074151D01*
X0173787Y0073667D01*
X0175282Y0074151D02*
X0177217Y0074151D01*
X0176733Y0072700D02*
X0176733Y0075602D01*
X0175282Y0074151D01*
X0178826Y0084600D02*
X0178826Y0085567D01*
X0178826Y0085084D02*
X0181728Y0085084D01*
X0181728Y0085567D02*
X0181728Y0084600D01*
X0181245Y0086564D02*
X0179310Y0086564D01*
X0178826Y0087048D01*
X0178826Y0088016D01*
X0179310Y0088499D01*
X0181245Y0088499D01*
X0181728Y0088016D01*
X0181728Y0087048D01*
X0181245Y0086564D01*
X0173199Y0097663D02*
X0172231Y0097663D01*
X0171747Y0098146D01*
X0170736Y0097663D02*
X0169768Y0098630D01*
X0170252Y0098630D02*
X0168801Y0098630D01*
X0168801Y0097663D02*
X0168801Y0100565D01*
X0170252Y0100565D01*
X0170736Y0100081D01*
X0170736Y0099114D01*
X0170252Y0098630D01*
X0171747Y0100081D02*
X0172231Y0100565D01*
X0173199Y0100565D01*
X0173682Y0100081D01*
X0173682Y0099598D01*
X0173199Y0099114D01*
X0173682Y0098630D01*
X0173682Y0098146D01*
X0173199Y0097663D01*
X0173199Y0099114D02*
X0172715Y0099114D01*
X0164719Y0098373D02*
X0164719Y0097889D01*
X0164235Y0097406D01*
X0163268Y0097406D01*
X0162784Y0097889D01*
X0162784Y0098857D01*
X0164235Y0098857D01*
X0164719Y0098373D01*
X0163751Y0099824D02*
X0162784Y0098857D01*
X0163751Y0099824D02*
X0164719Y0100308D01*
X0161772Y0099824D02*
X0161288Y0100308D01*
X0160321Y0100308D01*
X0159837Y0099824D01*
X0159837Y0097889D01*
X0160321Y0097406D01*
X0161288Y0097406D01*
X0161772Y0097889D01*
X0142525Y0092520D02*
X0142525Y0091553D01*
X0142041Y0091069D01*
X0141074Y0091069D02*
X0140590Y0092036D01*
X0140590Y0092520D01*
X0141074Y0093004D01*
X0142041Y0093004D01*
X0142525Y0092520D01*
X0141074Y0091069D02*
X0139622Y0091069D01*
X0139622Y0093004D01*
X0140106Y0090057D02*
X0139622Y0089574D01*
X0139622Y0088606D01*
X0140106Y0088122D01*
X0142041Y0088122D01*
X0142525Y0088606D01*
X0142525Y0089574D01*
X0142041Y0090057D01*
X0131425Y0090859D02*
X0131425Y0091343D01*
X0130941Y0091826D01*
X0129974Y0091826D01*
X0129490Y0091343D01*
X0131425Y0090859D02*
X0129490Y0088924D01*
X0131425Y0088924D01*
X0128478Y0088924D02*
X0126543Y0088924D01*
X0126543Y0091826D01*
X0120471Y0099441D02*
X0118536Y0099441D01*
X0119504Y0099441D02*
X0119504Y0102343D01*
X0118536Y0101376D01*
X0115590Y0102343D02*
X0115590Y0099441D01*
X0117525Y0099441D01*
X0111152Y0099142D02*
X0110668Y0098658D01*
X0109217Y0098658D01*
X0109217Y0097691D02*
X0109217Y0100593D01*
X0110668Y0100593D01*
X0111152Y0100110D01*
X0111152Y0099142D01*
X0110184Y0098658D02*
X0111152Y0097691D01*
X0108205Y0097691D02*
X0108205Y0100593D01*
X0106270Y0100593D02*
X0106270Y0097691D01*
X0107238Y0098658D01*
X0108205Y0097691D01*
X0105259Y0099142D02*
X0104775Y0098658D01*
X0103324Y0098658D01*
X0103324Y0097691D02*
X0103324Y0100593D01*
X0104775Y0100593D01*
X0105259Y0100110D01*
X0105259Y0099142D01*
X0105445Y0089850D02*
X0104477Y0089850D01*
X0103993Y0089366D01*
X0103993Y0087431D01*
X0104477Y0086948D01*
X0105445Y0086948D01*
X0105928Y0087431D01*
X0105928Y0089366D01*
X0105445Y0089850D01*
X0102982Y0089850D02*
X0102982Y0086948D01*
X0101047Y0089850D01*
X0101047Y0086948D01*
X0100128Y0074613D02*
X0100128Y0072678D01*
X0100128Y0073646D02*
X0097226Y0073646D01*
X0098193Y0072678D01*
X0097226Y0071667D02*
X0097226Y0070699D01*
X0097226Y0071183D02*
X0099645Y0071183D01*
X0100128Y0070699D01*
X0100128Y0070216D01*
X0099645Y0069732D01*
X0099645Y0068720D02*
X0099161Y0068720D01*
X0098677Y0068236D01*
X0098677Y0067269D01*
X0098193Y0066785D01*
X0097710Y0066785D01*
X0097226Y0067269D01*
X0097226Y0068236D01*
X0097710Y0068720D01*
X0099645Y0068720D02*
X0100128Y0068236D01*
X0100128Y0067269D01*
X0099645Y0066785D01*
X0088717Y0070040D02*
X0088717Y0071007D01*
X0088233Y0071491D01*
X0087266Y0072503D02*
X0087266Y0074438D01*
X0088717Y0073954D02*
X0085815Y0073954D01*
X0087266Y0072503D01*
X0086298Y0071491D02*
X0085815Y0071007D01*
X0085815Y0070040D01*
X0086298Y0069556D01*
X0088233Y0069556D01*
X0088717Y0070040D01*
X0122426Y0080541D02*
X0122910Y0080057D01*
X0124845Y0080057D01*
X0125328Y0080541D01*
X0125328Y0081508D01*
X0124845Y0081992D01*
X0124845Y0083003D02*
X0125328Y0083487D01*
X0125328Y0084455D01*
X0124845Y0084938D01*
X0124361Y0084938D01*
X0123877Y0084455D01*
X0123877Y0083971D01*
X0123877Y0084455D02*
X0123393Y0084938D01*
X0122910Y0084938D01*
X0122426Y0084455D01*
X0122426Y0083487D01*
X0122910Y0083003D01*
X0122910Y0081992D02*
X0122426Y0081508D01*
X0122426Y0080541D01*
X0172335Y0045602D02*
X0173787Y0045602D01*
X0174270Y0045119D01*
X0174270Y0044151D01*
X0173787Y0043667D01*
X0172335Y0043667D01*
X0172335Y0042700D02*
X0172335Y0045602D01*
X0175282Y0045602D02*
X0177217Y0045602D01*
X0177217Y0045119D01*
X0175282Y0043184D01*
X0175282Y0042700D01*
X0174270Y0042700D02*
X0173303Y0043667D01*
X0151112Y0018545D02*
X0150412Y0018545D01*
X0147531Y0016754D02*
X0147509Y0016754D01*
D14*
X0182578Y0003750D02*
X0192578Y0003750D01*
X0192578Y0103750D01*
X0182578Y0103750D01*
X0182578Y0003750D01*
X0105078Y0086000D02*
X0103578Y0085000D01*
X0105078Y0086000D02*
X0100078Y0086000D01*
X0099021Y0091489D02*
X0105714Y0091489D01*
X0113391Y0094048D02*
X0113391Y0099166D01*
X0112013Y0102119D02*
X0100006Y0102119D01*
X0100006Y0108024D01*
X0094887Y0108024D01*
X0094887Y0102119D01*
X0088391Y0102119D01*
X0087013Y0099166D02*
X0087013Y0094048D01*
X0094887Y0102119D02*
X0100006Y0102119D01*
D15*
X0131332Y0080825D02*
X0157533Y0080825D01*
X0158931Y0079427D01*
X0158931Y0053226D01*
X0131332Y0053226D01*
X0131332Y0080825D01*
X0154518Y0077826D02*
X0154520Y0077901D01*
X0154526Y0077975D01*
X0154536Y0078049D01*
X0154549Y0078122D01*
X0154567Y0078195D01*
X0154588Y0078266D01*
X0154613Y0078337D01*
X0154642Y0078406D01*
X0154675Y0078473D01*
X0154711Y0078538D01*
X0154750Y0078602D01*
X0154792Y0078663D01*
X0154838Y0078722D01*
X0154887Y0078779D01*
X0154939Y0078832D01*
X0154993Y0078883D01*
X0155050Y0078932D01*
X0155110Y0078976D01*
X0155172Y0079018D01*
X0155236Y0079057D01*
X0155302Y0079092D01*
X0155369Y0079123D01*
X0155439Y0079151D01*
X0155509Y0079175D01*
X0155581Y0079196D01*
X0155654Y0079212D01*
X0155727Y0079225D01*
X0155802Y0079234D01*
X0155876Y0079239D01*
X0155951Y0079240D01*
X0156025Y0079237D01*
X0156100Y0079230D01*
X0156173Y0079219D01*
X0156247Y0079205D01*
X0156319Y0079186D01*
X0156390Y0079164D01*
X0156460Y0079138D01*
X0156529Y0079108D01*
X0156595Y0079075D01*
X0156660Y0079038D01*
X0156723Y0078998D01*
X0156784Y0078954D01*
X0156842Y0078908D01*
X0156898Y0078858D01*
X0156951Y0078806D01*
X0157002Y0078751D01*
X0157049Y0078693D01*
X0157093Y0078633D01*
X0157134Y0078570D01*
X0157172Y0078506D01*
X0157206Y0078440D01*
X0157237Y0078371D01*
X0157264Y0078302D01*
X0157287Y0078231D01*
X0157306Y0078159D01*
X0157322Y0078086D01*
X0157334Y0078012D01*
X0157342Y0077938D01*
X0157346Y0077863D01*
X0157346Y0077789D01*
X0157342Y0077714D01*
X0157334Y0077640D01*
X0157322Y0077566D01*
X0157306Y0077493D01*
X0157287Y0077421D01*
X0157264Y0077350D01*
X0157237Y0077281D01*
X0157206Y0077212D01*
X0157172Y0077146D01*
X0157134Y0077082D01*
X0157093Y0077019D01*
X0157049Y0076959D01*
X0157002Y0076901D01*
X0156951Y0076846D01*
X0156898Y0076794D01*
X0156842Y0076744D01*
X0156784Y0076698D01*
X0156723Y0076654D01*
X0156660Y0076614D01*
X0156595Y0076577D01*
X0156529Y0076544D01*
X0156460Y0076514D01*
X0156390Y0076488D01*
X0156319Y0076466D01*
X0156247Y0076447D01*
X0156173Y0076433D01*
X0156100Y0076422D01*
X0156025Y0076415D01*
X0155951Y0076412D01*
X0155876Y0076413D01*
X0155802Y0076418D01*
X0155727Y0076427D01*
X0155654Y0076440D01*
X0155581Y0076456D01*
X0155509Y0076477D01*
X0155439Y0076501D01*
X0155369Y0076529D01*
X0155302Y0076560D01*
X0155236Y0076595D01*
X0155172Y0076634D01*
X0155110Y0076676D01*
X0155050Y0076720D01*
X0154993Y0076769D01*
X0154939Y0076820D01*
X0154887Y0076873D01*
X0154838Y0076930D01*
X0154792Y0076989D01*
X0154750Y0077050D01*
X0154711Y0077114D01*
X0154675Y0077179D01*
X0154642Y0077246D01*
X0154613Y0077315D01*
X0154588Y0077386D01*
X0154567Y0077457D01*
X0154549Y0077530D01*
X0154536Y0077603D01*
X0154526Y0077677D01*
X0154520Y0077751D01*
X0154518Y0077826D01*
X0155578Y0045500D02*
X0150578Y0045500D01*
X0148078Y0043000D01*
X0148078Y0038000D01*
X0150578Y0035500D01*
X0155578Y0035500D01*
X0158078Y0038000D01*
X0158078Y0043000D01*
X0155578Y0045500D01*
D16*
X0125863Y0094526D03*
X0125816Y0101009D03*
D17*
X0104128Y0083937D02*
X0097829Y0083937D01*
X0097829Y0083938D02*
X0097770Y0083924D01*
X0097712Y0083907D01*
X0097655Y0083886D01*
X0097599Y0083862D01*
X0097545Y0083834D01*
X0097493Y0083804D01*
X0097442Y0083770D01*
X0097394Y0083733D01*
X0097348Y0083694D01*
X0097305Y0083651D01*
X0097264Y0083607D01*
X0097226Y0083559D01*
X0097191Y0083510D01*
X0097159Y0083458D01*
X0097130Y0083405D01*
X0097104Y0083350D01*
X0097082Y0083294D01*
X0097063Y0083236D01*
X0097047Y0083177D01*
X0097036Y0083118D01*
X0097027Y0083058D01*
X0097023Y0082997D01*
X0097022Y0082937D01*
X0097025Y0082876D01*
X0097031Y0082816D01*
X0097041Y0082756D01*
X0104128Y0083938D02*
X0104187Y0083924D01*
X0104245Y0083907D01*
X0104302Y0083886D01*
X0104358Y0083862D01*
X0104412Y0083834D01*
X0104464Y0083804D01*
X0104515Y0083770D01*
X0104563Y0083733D01*
X0104609Y0083694D01*
X0104652Y0083651D01*
X0104693Y0083607D01*
X0104731Y0083559D01*
X0104766Y0083510D01*
X0104798Y0083458D01*
X0104827Y0083405D01*
X0104853Y0083350D01*
X0104875Y0083294D01*
X0104894Y0083236D01*
X0104910Y0083177D01*
X0104921Y0083118D01*
X0104930Y0083058D01*
X0104934Y0082997D01*
X0104935Y0082937D01*
X0104932Y0082876D01*
X0104926Y0082816D01*
X0104916Y0082756D01*
X0104916Y0077244D02*
X0104926Y0077184D01*
X0104932Y0077124D01*
X0104935Y0077063D01*
X0104934Y0077003D01*
X0104930Y0076942D01*
X0104921Y0076882D01*
X0104910Y0076823D01*
X0104894Y0076764D01*
X0104875Y0076706D01*
X0104853Y0076650D01*
X0104827Y0076595D01*
X0104798Y0076542D01*
X0104766Y0076490D01*
X0104731Y0076441D01*
X0104693Y0076393D01*
X0104652Y0076349D01*
X0104609Y0076306D01*
X0104563Y0076267D01*
X0104515Y0076230D01*
X0104464Y0076196D01*
X0104412Y0076166D01*
X0104358Y0076138D01*
X0104302Y0076114D01*
X0104245Y0076093D01*
X0104187Y0076076D01*
X0104128Y0076062D01*
X0104128Y0076063D02*
X0097829Y0076063D01*
X0097829Y0076062D02*
X0097770Y0076076D01*
X0097712Y0076093D01*
X0097655Y0076114D01*
X0097599Y0076138D01*
X0097545Y0076166D01*
X0097493Y0076196D01*
X0097442Y0076230D01*
X0097394Y0076267D01*
X0097348Y0076306D01*
X0097305Y0076349D01*
X0097264Y0076393D01*
X0097226Y0076441D01*
X0097191Y0076490D01*
X0097159Y0076542D01*
X0097130Y0076595D01*
X0097104Y0076650D01*
X0097082Y0076706D01*
X0097063Y0076764D01*
X0097047Y0076823D01*
X0097036Y0076882D01*
X0097027Y0076942D01*
X0097023Y0077003D01*
X0097022Y0077063D01*
X0097025Y0077124D01*
X0097031Y0077184D01*
X0097041Y0077244D01*
D18*
X0109863Y0054811D03*
D19*
X0109840Y0054855D03*
D20*
X0109840Y0054900D03*
D21*
X0109840Y0054944D03*
D22*
X0109863Y0054988D03*
D23*
X0109840Y0055033D03*
D24*
X0109840Y0055077D03*
D25*
X0109840Y0055122D03*
D26*
X0109840Y0055166D03*
D27*
X0109840Y0055210D03*
D28*
X0109840Y0055255D03*
D29*
X0109840Y0055299D03*
D30*
X0109840Y0055344D03*
X0109840Y0055388D03*
D31*
X0109840Y0055432D03*
X0109840Y0055477D03*
X0109840Y0055521D03*
X0109840Y0055921D03*
X0109840Y0055965D03*
X0109840Y0056010D03*
D32*
X0109818Y0055832D03*
X0109818Y0055566D03*
D33*
X0109818Y0055610D03*
X0109818Y0055788D03*
X0109818Y0055876D03*
D34*
X0109840Y0055743D03*
X0109840Y0055699D03*
X0109840Y0055654D03*
D35*
X0109818Y0056054D03*
D36*
X0109840Y0056098D03*
D37*
X0109818Y0056143D03*
D38*
X0108952Y0059428D03*
X0106422Y0060094D03*
X0103758Y0058141D03*
X0100605Y0058274D03*
X0100605Y0058318D03*
X0096387Y0058008D03*
X0096076Y0057475D03*
X0095810Y0057031D03*
X0095766Y0056942D03*
X0095544Y0056542D03*
X0095499Y0056498D03*
X0095322Y0056187D03*
X0113748Y0059384D03*
X0116190Y0059473D03*
X0120585Y0059384D03*
X0121962Y0060228D03*
X0121962Y0060272D03*
X0122006Y0060183D03*
X0121917Y0060361D03*
X0121740Y0060627D03*
X0121695Y0060716D03*
X0121651Y0060760D03*
X0121651Y0060805D03*
X0121473Y0061071D03*
X0121429Y0061160D03*
X0121384Y0061249D03*
X0121207Y0061560D03*
X0121162Y0061604D03*
X0121118Y0061693D03*
X0120940Y0062004D03*
X0120896Y0062092D03*
X0120852Y0062137D03*
X0120630Y0062536D03*
X0120585Y0062625D03*
X0120363Y0062980D03*
X0120319Y0063069D03*
X0120141Y0063380D03*
X0120052Y0063513D03*
X0119875Y0063824D03*
X0119564Y0064357D03*
X0122184Y0059872D03*
X0122228Y0059828D03*
X0122272Y0059739D03*
X0122272Y0059695D03*
X0122450Y0059428D03*
X0122494Y0059340D03*
X0122539Y0059295D03*
X0122716Y0058940D03*
X0122761Y0058896D03*
X0122805Y0058807D03*
X0122983Y0058496D03*
X0123027Y0058407D03*
X0123072Y0058363D03*
X0123249Y0058052D03*
X0123294Y0057963D03*
X0123516Y0057608D03*
X0123560Y0057519D03*
X0123604Y0057430D03*
X0123826Y0057075D03*
X0123871Y0056986D03*
X0124004Y0056764D03*
X0124048Y0056676D03*
X0124137Y0056542D03*
X0124315Y0056232D03*
X0109796Y0081140D03*
D39*
X0111905Y0071461D03*
X0106932Y0071550D03*
X0107421Y0063957D03*
X0113770Y0057297D03*
X0122472Y0059384D03*
X0122783Y0058851D03*
X0123271Y0058008D03*
X0123538Y0057564D03*
X0123582Y0057475D03*
X0123804Y0057120D03*
X0123849Y0057031D03*
X0124026Y0056720D03*
X0124115Y0056587D03*
X0124293Y0056276D03*
X0124337Y0056187D03*
D40*
X0124182Y0056454D03*
X0123960Y0056853D03*
X0123738Y0057208D03*
X0123693Y0057297D03*
X0123471Y0057697D03*
X0123427Y0057741D03*
X0123382Y0057830D03*
X0123205Y0058141D03*
X0123160Y0058230D03*
X0123116Y0058274D03*
X0122938Y0058585D03*
X0122894Y0058674D03*
X0122850Y0058762D03*
X0122672Y0059029D03*
X0122628Y0059118D03*
X0122583Y0059162D03*
X0122583Y0059206D03*
X0122406Y0059473D03*
X0122361Y0059562D03*
X0122361Y0059606D03*
X0122317Y0059650D03*
X0122139Y0059917D03*
X0122139Y0059961D03*
X0122095Y0060006D03*
X0122050Y0060094D03*
X0122050Y0060139D03*
X0121873Y0060405D03*
X0121828Y0060450D03*
X0121828Y0060494D03*
X0121784Y0060538D03*
X0121562Y0060938D03*
X0121518Y0061027D03*
X0121340Y0061293D03*
X0121340Y0061338D03*
X0121251Y0061471D03*
X0121074Y0061782D03*
X0121029Y0061870D03*
X0120807Y0062226D03*
X0120763Y0062314D03*
X0120541Y0062670D03*
X0120496Y0062758D03*
X0120452Y0062847D03*
X0120186Y0063291D03*
X0120008Y0063602D03*
X0119742Y0064046D03*
X0099673Y0058851D03*
X0096210Y0057697D03*
X0095943Y0057253D03*
X0095721Y0056853D03*
X0095632Y0056720D03*
X0095455Y0056409D03*
X0095410Y0056320D03*
X0095366Y0056276D03*
X0095366Y0056232D03*
D41*
X0103624Y0056232D03*
X0110284Y0061160D03*
X0112638Y0061426D03*
X0109974Y0064845D03*
X0110018Y0064890D03*
X0109219Y0064090D03*
X0108020Y0064401D03*
X0108020Y0064446D03*
X0108331Y0065378D03*
X0108331Y0065422D03*
X0104468Y0065467D03*
X0103624Y0066000D03*
X0103624Y0066044D03*
X0103624Y0066088D03*
X0103935Y0066754D03*
X0107842Y0063025D03*
X0107842Y0062980D03*
X0107842Y0062892D03*
X0107842Y0062847D03*
X0107842Y0062803D03*
X0107842Y0062758D03*
X0107842Y0062670D03*
X0107842Y0062625D03*
X0111172Y0065422D03*
X0110773Y0065955D03*
X0113614Y0065200D03*
X0113659Y0065245D03*
X0114769Y0066799D03*
X0114636Y0067509D03*
X0112327Y0069241D03*
X0112016Y0069463D03*
X0111972Y0069507D03*
X0111838Y0069596D03*
X0111794Y0069640D03*
X0111616Y0069774D03*
X0112238Y0070129D03*
X0112549Y0069951D03*
X0109041Y0069330D03*
X0108331Y0071061D03*
X0108286Y0071106D03*
X0109130Y0071638D03*
X0110684Y0071994D03*
X0113881Y0057031D03*
X0116367Y0057075D03*
D42*
X0117988Y0057075D03*
X0117988Y0057120D03*
X0117988Y0057208D03*
X0117988Y0057253D03*
X0117988Y0057297D03*
X0117988Y0057342D03*
X0117988Y0057430D03*
X0117988Y0057475D03*
X0120119Y0058851D03*
X0120119Y0058896D03*
X0120119Y0058940D03*
X0121140Y0057830D03*
X0121140Y0057786D03*
X0121140Y0057741D03*
X0121140Y0057697D03*
X0112216Y0057697D03*
X0112216Y0057741D03*
X0112216Y0057786D03*
X0112216Y0057830D03*
X0112216Y0057608D03*
X0112216Y0057564D03*
X0112216Y0057519D03*
X0112216Y0057475D03*
X0112216Y0057430D03*
X0112216Y0057342D03*
X0112216Y0057297D03*
X0112216Y0057253D03*
X0112216Y0057208D03*
X0112216Y0057120D03*
X0109818Y0058851D03*
X0109774Y0058896D03*
X0105822Y0057874D03*
X0103691Y0057031D03*
X0103691Y0056986D03*
X0103469Y0056276D03*
X0101915Y0058807D03*
X0101915Y0058851D03*
X0101915Y0058896D03*
X0101116Y0058762D03*
X0101071Y0058629D03*
X0101071Y0058585D03*
X0100050Y0058807D03*
X0099251Y0058407D03*
X0099251Y0058363D03*
X0099251Y0058318D03*
X0099207Y0058096D03*
X0099207Y0058052D03*
X0099207Y0058008D03*
X0109774Y0064446D03*
X0108753Y0066266D03*
X0104002Y0065822D03*
X0106666Y0071283D03*
D43*
X0109263Y0071994D03*
X0109263Y0072038D03*
X0110062Y0070262D03*
X0105844Y0059606D03*
X0105844Y0059562D03*
X0103713Y0057120D03*
X0103713Y0057075D03*
X0103447Y0056320D03*
X0116944Y0058807D03*
D44*
X0120563Y0059428D03*
X0122650Y0059073D03*
X0122916Y0058629D03*
X0122961Y0058540D03*
X0123094Y0058318D03*
X0123227Y0058096D03*
X0123360Y0057874D03*
X0123405Y0057786D03*
X0123671Y0057342D03*
X0123715Y0057253D03*
X0123893Y0056942D03*
X0123982Y0056809D03*
X0124159Y0056498D03*
X0124204Y0056409D03*
X0124248Y0056320D03*
X0120563Y0057297D03*
X0106488Y0057297D03*
X0101515Y0058940D03*
X0100627Y0058230D03*
X0109152Y0070573D03*
D45*
X0116523Y0069552D03*
X0116833Y0069019D03*
X0117588Y0067731D03*
X0117899Y0067198D03*
X0119453Y0064534D03*
X0119941Y0063735D03*
X0120252Y0063202D03*
X0120519Y0062714D03*
X0098052Y0060849D03*
X0097741Y0060316D03*
X0096187Y0057652D03*
X0095433Y0056365D03*
D46*
X0102914Y0058984D03*
X0105844Y0059517D03*
X0103447Y0056365D03*
D47*
X0100627Y0058185D03*
X0101515Y0058984D03*
X0123760Y0057164D03*
X0123937Y0056898D03*
X0124248Y0056365D03*
D48*
X0121074Y0057608D03*
X0121118Y0057874D03*
X0120186Y0058762D03*
X0120141Y0058807D03*
X0118898Y0059473D03*
X0117966Y0058585D03*
X0117966Y0058540D03*
X0116989Y0058762D03*
X0116989Y0057963D03*
X0115257Y0058230D03*
X0115257Y0058274D03*
X0115257Y0058318D03*
X0115257Y0058363D03*
X0115257Y0058407D03*
X0115257Y0058585D03*
X0115257Y0058629D03*
X0115257Y0058674D03*
X0115302Y0058762D03*
X0114325Y0057874D03*
X0114325Y0057830D03*
X0113348Y0058807D03*
X0113304Y0058940D03*
X0112238Y0058585D03*
X0112238Y0058540D03*
X0112238Y0058496D03*
X0112238Y0058407D03*
X0112238Y0058363D03*
X0112238Y0058318D03*
X0110817Y0058762D03*
X0109041Y0057031D03*
X0107088Y0057741D03*
X0107088Y0057786D03*
X0107088Y0057830D03*
X0107088Y0057874D03*
X0106466Y0057075D03*
X0108153Y0058762D03*
X0104557Y0059562D03*
X0103047Y0058762D03*
X0102825Y0059118D03*
X0102736Y0059295D03*
X0101582Y0060139D03*
X0101582Y0060183D03*
X0101138Y0058807D03*
X0100161Y0058585D03*
X0100161Y0058540D03*
X0100117Y0058629D03*
X0100117Y0058674D03*
X0100072Y0058762D03*
X0100206Y0058407D03*
X0099096Y0057297D03*
X0099540Y0060094D03*
X0099540Y0060139D03*
X0099540Y0060183D03*
X0102026Y0058052D03*
X0102070Y0057697D03*
X0102070Y0057608D03*
X0102070Y0057564D03*
X0102070Y0057519D03*
X0102070Y0057475D03*
X0103669Y0056942D03*
X0103624Y0056809D03*
X0103580Y0056720D03*
X0103580Y0056676D03*
X0103536Y0056587D03*
X0103536Y0056542D03*
X0103491Y0056498D03*
X0103491Y0056454D03*
X0103491Y0056409D03*
X0103802Y0057297D03*
X0103802Y0057342D03*
X0109086Y0065911D03*
X0108908Y0066177D03*
X0114858Y0067021D03*
X0107976Y0070173D03*
X0106732Y0070528D03*
X0106732Y0070573D03*
X0106777Y0069685D03*
X0106422Y0071994D03*
X0107354Y0072260D03*
X0112282Y0071905D03*
D49*
X0116345Y0069862D03*
X0116656Y0069330D03*
X0116967Y0068797D03*
X0117233Y0068353D03*
X0117411Y0068042D03*
X0117455Y0067953D03*
X0117544Y0067820D03*
X0117677Y0067598D03*
X0117721Y0067509D03*
X0117766Y0067420D03*
X0117943Y0067110D03*
X0117988Y0067065D03*
X0118032Y0066976D03*
X0118077Y0066888D03*
X0118254Y0066621D03*
X0118254Y0066577D03*
X0118299Y0066532D03*
X0118343Y0066444D03*
X0118432Y0066310D03*
X0118432Y0066266D03*
X0118476Y0066222D03*
X0118565Y0066088D03*
X0118565Y0066044D03*
X0118609Y0066000D03*
X0118698Y0065822D03*
X0118743Y0065778D03*
X0118743Y0065733D03*
X0118787Y0065689D03*
X0118876Y0065556D03*
X0118876Y0065511D03*
X0118965Y0065378D03*
X0119009Y0065289D03*
X0119053Y0065245D03*
X0119053Y0065200D03*
X0119098Y0065156D03*
X0119142Y0065112D03*
X0119231Y0064934D03*
X0119231Y0064890D03*
X0119275Y0064845D03*
X0119320Y0064756D03*
X0119364Y0064712D03*
X0119364Y0064668D03*
X0119409Y0064623D03*
X0119497Y0064490D03*
X0119497Y0064446D03*
X0119542Y0064401D03*
X0119586Y0064312D03*
X0119631Y0064224D03*
X0119675Y0064179D03*
X0119675Y0064135D03*
X0119808Y0063957D03*
X0119808Y0063913D03*
X0119853Y0063868D03*
X0119897Y0063780D03*
X0120030Y0063558D03*
X0120119Y0063424D03*
X0120163Y0063336D03*
X0120297Y0063114D03*
X0120341Y0063025D03*
X0120430Y0062892D03*
X0120607Y0062581D03*
X0120652Y0062492D03*
X0120696Y0062403D03*
X0120918Y0062048D03*
X0120963Y0061959D03*
X0121096Y0061737D03*
X0121229Y0061515D03*
X0121407Y0061204D03*
X0121717Y0060672D03*
X0120563Y0057342D03*
X0116212Y0057253D03*
X0113770Y0059340D03*
X0109019Y0057208D03*
X0103735Y0058230D03*
X0100627Y0058363D03*
X0097386Y0059695D03*
X0097342Y0059650D03*
X0097297Y0059562D03*
X0097209Y0059428D03*
X0097164Y0059340D03*
X0097075Y0059206D03*
X0097075Y0059162D03*
X0097031Y0059118D03*
X0096942Y0058940D03*
X0096898Y0058896D03*
X0096898Y0058851D03*
X0096853Y0058807D03*
X0096765Y0058674D03*
X0096765Y0058629D03*
X0096676Y0058496D03*
X0096631Y0058407D03*
X0096587Y0058363D03*
X0096587Y0058318D03*
X0096543Y0058274D03*
X0096498Y0058230D03*
X0096409Y0058052D03*
X0096365Y0057963D03*
X0096321Y0057874D03*
X0096276Y0057830D03*
X0096276Y0057786D03*
X0096232Y0057741D03*
X0096143Y0057608D03*
X0096143Y0057564D03*
X0096099Y0057519D03*
X0096054Y0057430D03*
X0096010Y0057342D03*
X0095877Y0057120D03*
X0095832Y0057075D03*
X0095788Y0056986D03*
X0095610Y0056676D03*
X0095566Y0056587D03*
X0095477Y0056454D03*
X0097475Y0059872D03*
X0097564Y0060006D03*
X0097608Y0060094D03*
X0097919Y0060627D03*
X0106977Y0071594D03*
X0107687Y0072082D03*
X0107687Y0072127D03*
X0107687Y0072171D03*
X0109774Y0081096D03*
D50*
X0120674Y0062448D03*
X0121473Y0061116D03*
X0121917Y0060316D03*
X0122228Y0059784D03*
X0122539Y0059251D03*
X0122716Y0058984D03*
X0123027Y0058452D03*
X0123338Y0057919D03*
X0103758Y0058185D03*
X0095588Y0056631D03*
D51*
X0099073Y0057164D03*
X0099118Y0057386D03*
X0099162Y0057652D03*
X0099295Y0058718D03*
X0101027Y0058452D03*
X0101959Y0058452D03*
X0102004Y0058185D03*
X0102048Y0057919D03*
X0102093Y0057386D03*
X0102093Y0057164D03*
X0103558Y0056631D03*
X0112260Y0058185D03*
X0115235Y0058452D03*
X0117011Y0058718D03*
X0117943Y0058452D03*
X0117943Y0058185D03*
X0106710Y0070617D03*
X0112349Y0071949D03*
D52*
X0109019Y0057164D03*
X0124071Y0056631D03*
D53*
X0121584Y0060894D03*
X0121540Y0060982D03*
X0121273Y0061426D03*
X0121051Y0061826D03*
X0120785Y0062270D03*
X0120741Y0062359D03*
X0120474Y0062803D03*
X0120252Y0063158D03*
X0120208Y0063247D03*
X0119986Y0063646D03*
X0119941Y0063691D03*
X0119719Y0064090D03*
X0119453Y0064579D03*
X0119187Y0064978D03*
X0119187Y0065023D03*
X0118920Y0065422D03*
X0118920Y0065467D03*
X0118654Y0065911D03*
X0118387Y0066355D03*
X0118165Y0066754D03*
X0118121Y0066799D03*
X0118121Y0066843D03*
X0117855Y0067287D03*
X0117633Y0067642D03*
X0117322Y0068175D03*
X0117100Y0068575D03*
X0116789Y0069108D03*
X0106488Y0057342D03*
X0097786Y0060405D03*
X0097253Y0059473D03*
X0096987Y0059029D03*
X0096720Y0058585D03*
X0096720Y0058540D03*
X0096454Y0058141D03*
X0096454Y0058096D03*
X0095965Y0057297D03*
X0095921Y0057208D03*
X0095699Y0056809D03*
X0095655Y0056764D03*
D54*
X0099073Y0057120D03*
X0099073Y0057208D03*
X0099073Y0057253D03*
X0099118Y0057342D03*
X0099118Y0057430D03*
X0099118Y0057475D03*
X0099118Y0057519D03*
X0099162Y0057697D03*
X0099162Y0057741D03*
X0099295Y0058629D03*
X0099295Y0058674D03*
X0099295Y0058762D03*
X0099295Y0058807D03*
X0101027Y0058540D03*
X0101027Y0058496D03*
X0101027Y0058407D03*
X0101160Y0058851D03*
X0101160Y0058896D03*
X0101959Y0058585D03*
X0101959Y0058540D03*
X0101959Y0058496D03*
X0101959Y0058407D03*
X0102004Y0058363D03*
X0102004Y0058318D03*
X0102004Y0058274D03*
X0102004Y0058230D03*
X0102004Y0058141D03*
X0102004Y0058096D03*
X0102048Y0058008D03*
X0102048Y0057963D03*
X0102048Y0057874D03*
X0102048Y0057830D03*
X0102048Y0057786D03*
X0102048Y0057741D03*
X0102093Y0057430D03*
X0102093Y0057342D03*
X0102093Y0057297D03*
X0102093Y0057253D03*
X0102093Y0057208D03*
X0102093Y0057120D03*
X0100672Y0057208D03*
X0100672Y0057253D03*
X0103602Y0056764D03*
X0103647Y0056853D03*
X0103780Y0057208D03*
X0103780Y0057253D03*
X0101560Y0060228D03*
X0107021Y0059739D03*
X0108087Y0057830D03*
X0108131Y0057741D03*
X0108175Y0057697D03*
X0110795Y0058629D03*
X0110795Y0058674D03*
X0112260Y0058274D03*
X0112260Y0058230D03*
X0112260Y0058141D03*
X0112260Y0058096D03*
X0112260Y0058052D03*
X0112260Y0058008D03*
X0113326Y0058851D03*
X0113326Y0058896D03*
X0114347Y0057786D03*
X0114347Y0057741D03*
X0114347Y0057697D03*
X0115235Y0058496D03*
X0115235Y0058540D03*
X0117011Y0058008D03*
X0117943Y0058230D03*
X0117943Y0058274D03*
X0117943Y0058318D03*
X0117943Y0058363D03*
X0117943Y0058407D03*
X0117943Y0058496D03*
X0117899Y0059384D03*
X0117899Y0059428D03*
X0117899Y0059473D03*
X0108042Y0070218D03*
X0106710Y0070395D03*
X0106710Y0070440D03*
X0106710Y0070484D03*
X0111017Y0072704D03*
X0110662Y0073459D03*
D55*
X0107687Y0072216D03*
X0111994Y0071416D03*
X0117144Y0068486D03*
X0117277Y0068264D03*
X0118210Y0066666D03*
X0118521Y0066133D03*
X0118698Y0065866D03*
X0118831Y0065600D03*
X0119009Y0065334D03*
X0119142Y0065067D03*
X0119320Y0064801D03*
X0119631Y0064268D03*
X0119764Y0064002D03*
X0120075Y0063469D03*
X0120385Y0062936D03*
X0120829Y0062181D03*
X0121140Y0061648D03*
X0097431Y0059784D03*
X0097120Y0059251D03*
X0096809Y0058718D03*
X0096631Y0058452D03*
X0096498Y0058185D03*
X0096321Y0057919D03*
X0096010Y0057386D03*
X0095743Y0056898D03*
D56*
X0100072Y0058718D03*
X0100206Y0058452D03*
X0102070Y0057652D03*
X0103802Y0057386D03*
X0103669Y0056898D03*
X0109663Y0057652D03*
X0110817Y0058718D03*
X0112238Y0058452D03*
X0113304Y0058984D03*
X0116989Y0057919D03*
X0121118Y0057652D03*
X0110817Y0065600D03*
D57*
X0111128Y0065467D03*
X0110062Y0064934D03*
X0113748Y0065289D03*
X0110062Y0069108D03*
X0111128Y0070129D03*
X0111661Y0069729D03*
X0110862Y0072837D03*
X0104512Y0065422D03*
X0105844Y0064357D03*
X0107931Y0061204D03*
X0098962Y0057031D03*
D58*
X0102115Y0057031D03*
X0106422Y0060361D03*
X0108286Y0060228D03*
X0108375Y0060006D03*
X0108375Y0059961D03*
X0108420Y0059917D03*
X0108420Y0059872D03*
X0111750Y0059562D03*
X0106200Y0064224D03*
X0104024Y0065778D03*
X0108686Y0066355D03*
X0110817Y0065733D03*
X0110817Y0065689D03*
X0110107Y0069196D03*
X0110107Y0069241D03*
X0110107Y0069330D03*
X0110062Y0070218D03*
X0108908Y0069241D03*
X0108908Y0069196D03*
X0106688Y0069596D03*
X0106644Y0069907D03*
X0106644Y0069951D03*
X0106644Y0069996D03*
X0106644Y0070040D03*
X0106644Y0070795D03*
X0107265Y0072304D03*
X0109219Y0071860D03*
X0112638Y0072082D03*
D59*
X0111328Y0072171D03*
X0112482Y0070706D03*
X0112660Y0069862D03*
X0114835Y0067687D03*
X0114791Y0067642D03*
X0114835Y0066888D03*
X0110795Y0065822D03*
X0110307Y0064224D03*
X0108531Y0066532D03*
X0108486Y0066577D03*
X0108442Y0066621D03*
X0108264Y0066843D03*
X0108264Y0066888D03*
X0108175Y0066976D03*
X0108175Y0067021D03*
X0108131Y0067065D03*
X0108131Y0067110D03*
X0108042Y0067287D03*
X0107998Y0067376D03*
X0109019Y0067376D03*
X0107865Y0069196D03*
X0107865Y0069241D03*
X0107909Y0069463D03*
X0107909Y0069507D03*
X0107953Y0069685D03*
X0107953Y0069729D03*
X0107953Y0069774D03*
X0107998Y0069862D03*
X0107998Y0069907D03*
X0107998Y0069951D03*
X0108175Y0071372D03*
X0108175Y0072260D03*
X0108175Y0072304D03*
X0108175Y0072349D03*
X0106577Y0070972D03*
X0103913Y0066621D03*
X0112438Y0061338D03*
X0108042Y0061027D03*
X0106444Y0057031D03*
X0119009Y0058851D03*
D60*
X0120030Y0057786D03*
X0120696Y0057031D03*
X0112971Y0061693D03*
X0112882Y0061604D03*
X0112704Y0061471D03*
X0113104Y0062004D03*
X0113104Y0062048D03*
X0113104Y0062092D03*
X0113059Y0062226D03*
X0112216Y0064090D03*
X0112171Y0064135D03*
X0112127Y0064224D03*
X0112083Y0064312D03*
X0112038Y0064357D03*
X0111417Y0065112D03*
X0111372Y0065156D03*
X0111328Y0065200D03*
X0111328Y0065245D03*
X0111283Y0065289D03*
X0111195Y0065378D03*
X0110795Y0065467D03*
X0110751Y0066000D03*
X0110573Y0066266D03*
X0110617Y0066310D03*
X0110040Y0067243D03*
X0110085Y0067287D03*
X0108886Y0067509D03*
X0108886Y0068974D03*
X0111283Y0069729D03*
X0111283Y0069774D03*
X0111106Y0070173D03*
X0111727Y0069685D03*
X0112305Y0069596D03*
X0113104Y0070129D03*
X0111417Y0072082D03*
X0110662Y0071905D03*
X0110617Y0071860D03*
X0110839Y0072882D03*
X0110839Y0072926D03*
X0110839Y0072970D03*
X0110884Y0073104D03*
X0110884Y0073148D03*
X0109108Y0071594D03*
X0108309Y0071017D03*
X0108175Y0072615D03*
X0108175Y0072660D03*
X0108175Y0072704D03*
X0103957Y0066799D03*
X0103780Y0066577D03*
X0103602Y0066222D03*
X0103602Y0066177D03*
X0104579Y0065378D03*
X0104668Y0065289D03*
X0105645Y0064490D03*
X0105778Y0064401D03*
X0108042Y0064490D03*
X0108042Y0064579D03*
X0108087Y0064712D03*
X0108309Y0065467D03*
X0108975Y0064446D03*
X0109241Y0064046D03*
X0109729Y0064224D03*
X0110351Y0064135D03*
X0110351Y0064090D03*
X0110085Y0064978D03*
X0110129Y0065023D03*
X0107820Y0062581D03*
X0107820Y0062536D03*
X0107820Y0062492D03*
X0107820Y0062403D03*
X0107820Y0062359D03*
X0107820Y0062314D03*
X0107820Y0062270D03*
X0107820Y0062226D03*
X0107909Y0061249D03*
X0110262Y0061204D03*
X0109685Y0057830D03*
X0113859Y0065378D03*
X0113903Y0065422D03*
X0113947Y0065467D03*
X0113992Y0065511D03*
X0114036Y0065556D03*
X0114702Y0066710D03*
X0114747Y0066754D03*
X0114525Y0067243D03*
X0114569Y0067420D03*
D61*
X0113082Y0069640D03*
X0112549Y0070750D03*
X0108064Y0070262D03*
X0106732Y0069640D03*
X0109174Y0067243D03*
X0110773Y0059473D03*
X0110773Y0059428D03*
X0110773Y0058585D03*
X0110773Y0058540D03*
X0110773Y0058496D03*
X0110773Y0058407D03*
X0113881Y0057075D03*
X0117033Y0058052D03*
X0117033Y0058096D03*
X0117033Y0058141D03*
X0117078Y0058274D03*
X0117078Y0058318D03*
X0117078Y0058363D03*
X0117078Y0058407D03*
X0117033Y0058585D03*
X0117033Y0058629D03*
X0117033Y0058674D03*
X0108109Y0057786D03*
X0108064Y0057874D03*
X0108020Y0057963D03*
X0108020Y0058008D03*
X0108020Y0058052D03*
X0108020Y0058096D03*
X0102736Y0059340D03*
X0099140Y0057608D03*
X0099140Y0057564D03*
X0099051Y0057075D03*
D62*
X0099184Y0057786D03*
X0099184Y0057830D03*
X0099184Y0057874D03*
X0099184Y0057963D03*
X0099229Y0058141D03*
X0099229Y0058230D03*
X0099229Y0058274D03*
X0099273Y0058496D03*
X0099273Y0058540D03*
X0099273Y0058585D03*
X0099540Y0060228D03*
X0101582Y0060272D03*
X0101937Y0058762D03*
X0101937Y0058674D03*
X0101937Y0058629D03*
X0101094Y0058674D03*
X0102115Y0057075D03*
X0109840Y0058807D03*
X0112238Y0057963D03*
X0112238Y0057874D03*
X0112194Y0061249D03*
X0110817Y0065644D03*
X0108730Y0066310D03*
X0106688Y0069862D03*
X0106688Y0070218D03*
X0106688Y0070262D03*
X0106688Y0070306D03*
X0106688Y0070662D03*
X0106688Y0070706D03*
X0112460Y0071994D03*
X0109796Y0081406D03*
X0117966Y0058141D03*
X0117966Y0058096D03*
X0117966Y0058052D03*
X0117966Y0058008D03*
X0117966Y0057963D03*
X0117966Y0057874D03*
X0117966Y0057830D03*
X0117966Y0057786D03*
X0117966Y0057741D03*
X0117966Y0057697D03*
X0117966Y0057608D03*
X0117966Y0057564D03*
X0117966Y0057519D03*
D63*
X0120452Y0058540D03*
X0120807Y0058230D03*
X0114014Y0058230D03*
X0113659Y0058540D03*
X0109574Y0057608D03*
X0109041Y0057075D03*
X0106732Y0058496D03*
X0106688Y0058540D03*
X0106644Y0058585D03*
X0106599Y0058629D03*
X0106555Y0058674D03*
X0106200Y0059029D03*
X0106422Y0060272D03*
X0100650Y0057608D03*
X0099584Y0059562D03*
X0099584Y0059606D03*
X0109485Y0067065D03*
X0114902Y0067154D03*
X0111084Y0072260D03*
X0111084Y0072304D03*
X0110107Y0073059D03*
X0109796Y0081318D03*
D64*
X0109197Y0071816D03*
X0108131Y0071550D03*
X0108131Y0071505D03*
X0106621Y0070839D03*
X0106266Y0072038D03*
X0108886Y0069152D03*
X0111328Y0069907D03*
X0111372Y0069862D03*
X0112216Y0069418D03*
X0112349Y0069996D03*
X0112837Y0069729D03*
X0115102Y0067909D03*
X0110795Y0065778D03*
X0112083Y0064490D03*
X0108619Y0066444D03*
X0109108Y0067287D03*
X0109063Y0067332D03*
X0104224Y0066000D03*
X0108175Y0060538D03*
X0108220Y0060450D03*
X0108220Y0060405D03*
X0108264Y0060272D03*
X0108309Y0060183D03*
X0108442Y0059828D03*
X0107021Y0059650D03*
X0109685Y0057741D03*
X0110751Y0057075D03*
X0102803Y0059384D03*
X0099606Y0060272D03*
D65*
X0108975Y0059606D03*
X0109863Y0058762D03*
X0112216Y0057075D03*
X0113725Y0059650D03*
X0120696Y0057075D03*
X0109774Y0064490D03*
X0109463Y0066976D03*
X0106666Y0070129D03*
X0106666Y0070173D03*
X0106666Y0070750D03*
X0106621Y0071239D03*
X0109241Y0071905D03*
X0112527Y0072038D03*
X0114880Y0066976D03*
D66*
X0111417Y0067509D03*
X0110351Y0067642D03*
X0108753Y0067687D03*
X0108397Y0066088D03*
X0108397Y0066044D03*
X0109241Y0063868D03*
X0110351Y0063868D03*
X0104224Y0066532D03*
X0109063Y0071461D03*
X0110529Y0070706D03*
X0111061Y0070262D03*
X0111461Y0068841D03*
X0113326Y0069862D03*
X0113503Y0060361D03*
X0113503Y0060272D03*
X0113503Y0060228D03*
X0113503Y0060183D03*
X0109463Y0058096D03*
X0116123Y0057075D03*
X0119053Y0058762D03*
X0120030Y0057874D03*
D67*
X0120519Y0059650D03*
X0117055Y0058540D03*
X0117055Y0058496D03*
X0117055Y0058230D03*
X0110751Y0058230D03*
X0110751Y0058274D03*
X0110751Y0058318D03*
X0110751Y0058363D03*
X0110751Y0058141D03*
X0110751Y0058096D03*
X0110751Y0058052D03*
X0109685Y0057697D03*
X0107021Y0059695D03*
X0108131Y0060982D03*
X0100672Y0057120D03*
X0108131Y0070306D03*
X0112349Y0071061D03*
D68*
X0110240Y0073148D03*
X0106777Y0071372D03*
X0106821Y0069774D03*
X0114902Y0067110D03*
X0115435Y0058940D03*
X0115435Y0057830D03*
X0116856Y0057786D03*
X0120985Y0058096D03*
X0108331Y0057608D03*
X0106821Y0058407D03*
X0105933Y0057697D03*
X0106466Y0057120D03*
X0103802Y0057564D03*
X0103802Y0057608D03*
X0100650Y0057564D03*
X0100650Y0057519D03*
X0100650Y0057475D03*
X0099584Y0059695D03*
X0099584Y0059739D03*
D69*
X0109019Y0057120D03*
X0109774Y0081229D03*
D70*
X0108109Y0071594D03*
X0108331Y0060139D03*
X0108331Y0060094D03*
X0110728Y0058008D03*
X0110728Y0057963D03*
X0110728Y0057874D03*
X0110728Y0057830D03*
X0110728Y0057786D03*
X0110728Y0057741D03*
X0110728Y0057697D03*
X0110728Y0057608D03*
X0110728Y0057564D03*
X0110728Y0057519D03*
X0110728Y0057475D03*
X0110728Y0057430D03*
X0110728Y0057342D03*
X0110728Y0057297D03*
X0110728Y0057253D03*
X0110728Y0057208D03*
X0110728Y0057120D03*
D71*
X0106843Y0058363D03*
X0105911Y0057741D03*
X0106000Y0059295D03*
X0105955Y0059340D03*
X0104446Y0059206D03*
X0104401Y0059118D03*
X0104401Y0059073D03*
X0104357Y0058940D03*
X0104313Y0058851D03*
X0100672Y0057430D03*
X0099562Y0059828D03*
X0099562Y0059872D03*
X0106488Y0064179D03*
X0114880Y0067065D03*
X0112615Y0070795D03*
X0111994Y0071772D03*
X0107820Y0070040D03*
X0106799Y0069729D03*
X0112127Y0058896D03*
X0114169Y0058096D03*
X0114214Y0058052D03*
X0113859Y0057120D03*
X0115413Y0057874D03*
X0116256Y0057120D03*
X0116833Y0058940D03*
X0116256Y0059606D03*
X0120519Y0059606D03*
X0121007Y0058052D03*
X0121051Y0058008D03*
D72*
X0120341Y0058629D03*
X0118032Y0058762D03*
X0120652Y0057120D03*
X0113548Y0058629D03*
X0113725Y0059606D03*
X0110884Y0058896D03*
X0108264Y0058896D03*
X0106888Y0058318D03*
X0104490Y0059384D03*
X0104268Y0058762D03*
X0104224Y0058629D03*
X0104002Y0065911D03*
X0113193Y0070972D03*
X0111106Y0072571D03*
X0111106Y0072615D03*
D73*
X0120985Y0061915D03*
X0121296Y0061382D03*
X0121606Y0060849D03*
X0121784Y0060583D03*
X0122095Y0060050D03*
X0122406Y0059517D03*
X0122850Y0058718D03*
X0123160Y0058185D03*
X0123471Y0057652D03*
X0123649Y0057386D03*
X0095899Y0057164D03*
D74*
X0100672Y0057164D03*
X0108042Y0057919D03*
X0110751Y0058185D03*
X0117055Y0058185D03*
X0121007Y0058984D03*
D75*
X0120119Y0058984D03*
X0117988Y0057386D03*
X0117988Y0057164D03*
X0114303Y0057652D03*
X0112216Y0057652D03*
X0112216Y0057386D03*
X0112216Y0057164D03*
X0103735Y0057164D03*
X0101116Y0058718D03*
X0099251Y0058452D03*
D76*
X0106266Y0058984D03*
X0106533Y0058718D03*
X0106488Y0057164D03*
X0113814Y0057164D03*
X0113770Y0058452D03*
X0120563Y0058452D03*
X0120607Y0057164D03*
X0111772Y0071683D03*
X0106799Y0071416D03*
D77*
X0118898Y0059517D03*
X0110728Y0057919D03*
X0110728Y0057652D03*
X0110728Y0057386D03*
X0110728Y0057164D03*
D78*
X0108975Y0059517D03*
X0116212Y0057164D03*
X0101560Y0059517D03*
D79*
X0101538Y0059473D03*
X0101538Y0059428D03*
X0099628Y0059206D03*
X0099628Y0059162D03*
X0106466Y0057208D03*
X0109441Y0072438D03*
X0109618Y0072615D03*
X0109663Y0072660D03*
X0109707Y0072704D03*
X0110418Y0073192D03*
D80*
X0109574Y0072571D03*
X0109530Y0072526D03*
X0109485Y0067154D03*
X0109263Y0065955D03*
X0103758Y0057874D03*
X0113792Y0057208D03*
X0120585Y0057208D03*
D81*
X0120563Y0057253D03*
X0116212Y0057208D03*
X0108975Y0059473D03*
X0103780Y0058008D03*
X0101515Y0059162D03*
X0100627Y0058096D03*
X0100627Y0058052D03*
X0099651Y0059029D03*
D82*
X0099628Y0059073D03*
X0099628Y0059118D03*
X0101538Y0059206D03*
X0101538Y0059295D03*
X0103758Y0057963D03*
X0106466Y0057253D03*
X0106422Y0060183D03*
X0113748Y0059473D03*
X0120541Y0059473D03*
D83*
X0120563Y0059073D03*
X0116167Y0059428D03*
X0116212Y0057297D03*
X0113725Y0059029D03*
X0109374Y0058674D03*
X0109019Y0057253D03*
X0106444Y0060006D03*
X0103735Y0058318D03*
X0103735Y0058274D03*
X0098807Y0062137D03*
X0098851Y0062226D03*
X0098940Y0062359D03*
X0099029Y0062536D03*
X0099118Y0062670D03*
X0099162Y0062758D03*
X0099251Y0062892D03*
X0099295Y0062980D03*
X0099340Y0063069D03*
X0099384Y0063114D03*
X0099473Y0063291D03*
X0099517Y0063336D03*
X0099517Y0063380D03*
X0099562Y0063424D03*
X0099606Y0063513D03*
X0099651Y0063558D03*
X0099651Y0063602D03*
X0099695Y0063646D03*
X0099784Y0063824D03*
X0099828Y0063868D03*
X0099828Y0063913D03*
X0099873Y0063957D03*
X0099917Y0064046D03*
X0099961Y0064090D03*
X0099961Y0064135D03*
X0100006Y0064179D03*
X0100006Y0064224D03*
X0100095Y0064312D03*
X0100095Y0064357D03*
X0100139Y0064401D03*
X0100139Y0064446D03*
X0100183Y0064490D03*
X0100228Y0064579D03*
X0100272Y0064623D03*
X0100272Y0064668D03*
X0100317Y0064712D03*
X0100317Y0064756D03*
X0100405Y0064845D03*
X0100405Y0064890D03*
X0100450Y0064934D03*
X0100450Y0064978D03*
X0100494Y0065023D03*
X0100539Y0065112D03*
X0100583Y0065156D03*
X0100583Y0065200D03*
X0100627Y0065245D03*
X0100716Y0065422D03*
X0100761Y0065467D03*
X0100805Y0065556D03*
X0100849Y0065644D03*
X0100894Y0065689D03*
X0100938Y0065778D03*
X0101027Y0065955D03*
X0101071Y0066000D03*
X0101116Y0066088D03*
X0101160Y0066177D03*
X0101249Y0066310D03*
X0101427Y0066621D03*
X0101560Y0066843D03*
X0113814Y0074169D03*
X0113814Y0074214D03*
X0113770Y0074258D03*
X0113725Y0074347D03*
X0113681Y0074391D03*
X0113681Y0074436D03*
X0113548Y0074613D03*
X0113548Y0074658D03*
X0113503Y0074702D03*
X0113503Y0074746D03*
X0113459Y0074791D03*
X0113415Y0074880D03*
X0113326Y0075013D03*
X0113237Y0075146D03*
X0113237Y0075190D03*
X0113193Y0075235D03*
X0113193Y0075279D03*
X0113148Y0075324D03*
X0113059Y0075457D03*
X0113059Y0075501D03*
X0113015Y0075546D03*
X0113015Y0075590D03*
X0112926Y0075679D03*
X0112926Y0075723D03*
X0112882Y0075768D03*
X0112882Y0075812D03*
X0112793Y0075945D03*
X0112749Y0075990D03*
X0112749Y0076034D03*
X0112704Y0076078D03*
X0112615Y0076212D03*
X0112615Y0076256D03*
X0112571Y0076300D03*
X0112571Y0076345D03*
X0112527Y0076389D03*
X0112482Y0076478D03*
X0112438Y0076522D03*
X0112438Y0076567D03*
X0112393Y0076611D03*
X0112305Y0076744D03*
X0112305Y0076789D03*
X0112260Y0076833D03*
X0112216Y0076922D03*
X0112171Y0077011D03*
X0112127Y0077055D03*
X0112083Y0077144D03*
X0111994Y0077277D03*
X0111994Y0077322D03*
X0111949Y0077366D03*
X0111905Y0077455D03*
X0111861Y0077544D03*
X0111816Y0077588D03*
X0111772Y0077677D03*
X0111683Y0077810D03*
X0111639Y0077899D03*
X0111594Y0077988D03*
X0111550Y0078076D03*
X0111505Y0078121D03*
X0111461Y0078210D03*
X0111328Y0078432D03*
X0111283Y0078520D03*
X0111195Y0078654D03*
X0111150Y0078742D03*
X0111017Y0078964D03*
X0110973Y0079053D03*
X0110884Y0079186D03*
X0110839Y0079275D03*
X0109774Y0081051D03*
X0113859Y0074125D03*
X0113947Y0073947D03*
X0113992Y0073903D03*
X0114081Y0073725D03*
X0114125Y0073636D03*
X0114214Y0073503D03*
X0114258Y0073414D03*
X0114303Y0073370D03*
X0114391Y0073192D03*
X0114480Y0073059D03*
X0114525Y0072970D03*
X0114569Y0072882D03*
X0114613Y0072837D03*
X0114702Y0072660D03*
X0114791Y0072526D03*
X0114835Y0072438D03*
X0115013Y0072127D03*
X0115102Y0071994D03*
X0115146Y0071905D03*
X0115413Y0071461D03*
X0115457Y0071372D03*
D84*
X0113770Y0057253D03*
D85*
X0113326Y0057608D03*
X0114258Y0057608D03*
X0115279Y0058096D03*
X0115279Y0058141D03*
X0115324Y0058052D03*
X0115324Y0058008D03*
X0115324Y0058807D03*
X0115324Y0058851D03*
X0116922Y0058851D03*
X0116967Y0057874D03*
X0117988Y0058629D03*
X0120119Y0057608D03*
X0113370Y0058762D03*
X0112216Y0058674D03*
X0112216Y0058629D03*
X0112171Y0058762D03*
X0112171Y0058807D03*
X0110839Y0058807D03*
X0109729Y0058940D03*
X0108175Y0058807D03*
X0108131Y0058674D03*
X0107021Y0058096D03*
X0107021Y0058052D03*
X0107065Y0058008D03*
X0107065Y0057963D03*
X0107065Y0057697D03*
X0105822Y0057830D03*
X0105911Y0059428D03*
X0105867Y0059473D03*
X0105867Y0059650D03*
X0105867Y0059695D03*
X0103291Y0058363D03*
X0103247Y0058407D03*
X0103203Y0058496D03*
X0103203Y0058540D03*
X0103158Y0058585D03*
X0103114Y0058629D03*
X0103114Y0058674D03*
X0103025Y0058807D03*
X0102981Y0058851D03*
X0102981Y0058896D03*
X0102936Y0058940D03*
X0102892Y0059029D03*
X0102847Y0059073D03*
X0102803Y0059162D03*
X0102759Y0059206D03*
X0100183Y0058496D03*
X0100672Y0057342D03*
X0100672Y0057297D03*
X0109951Y0064312D03*
X0110839Y0065556D03*
X0108797Y0066222D03*
X0107909Y0070129D03*
X0106710Y0071328D03*
X0110617Y0073414D03*
X0111061Y0072660D03*
X0112171Y0071860D03*
X0113015Y0069685D03*
D86*
X0105245Y0073148D03*
X0105112Y0072926D03*
X0105067Y0072837D03*
X0104979Y0072704D03*
X0104801Y0072393D03*
X0104757Y0072304D03*
X0104579Y0071994D03*
X0104490Y0071860D03*
X0104446Y0071772D03*
X0104313Y0071550D03*
X0104268Y0071505D03*
X0104268Y0071461D03*
X0104179Y0071328D03*
X0104046Y0071106D03*
X0104002Y0071017D03*
X0103957Y0070972D03*
X0103957Y0070928D03*
X0103913Y0070839D03*
X0103780Y0070662D03*
X0103735Y0070573D03*
X0103691Y0070528D03*
X0103691Y0070484D03*
X0103647Y0070440D03*
X0103647Y0070395D03*
X0103513Y0070218D03*
X0103513Y0070173D03*
X0103469Y0070129D03*
X0103425Y0070040D03*
X0103380Y0069951D03*
X0103247Y0069729D03*
X0103203Y0069640D03*
X0103158Y0069596D03*
X0102936Y0069196D03*
X0102892Y0069108D03*
X0102625Y0068664D03*
X0102359Y0068220D03*
X0102181Y0067909D03*
X0106444Y0059961D03*
X0109019Y0057297D03*
X0113725Y0057430D03*
X0113770Y0059118D03*
X0113814Y0059162D03*
X0113814Y0059206D03*
X0116167Y0059384D03*
X0116212Y0057342D03*
X0120563Y0057430D03*
X0120607Y0059162D03*
X0120607Y0059206D03*
X0109774Y0081007D03*
D87*
X0108997Y0057342D03*
D88*
X0108952Y0059384D03*
X0113792Y0059295D03*
X0113748Y0057342D03*
X0120541Y0059029D03*
X0120585Y0059295D03*
X0120585Y0059340D03*
X0118809Y0065644D03*
X0118632Y0065955D03*
X0118498Y0066177D03*
X0118321Y0066488D03*
X0118188Y0066710D03*
X0118010Y0067021D03*
X0117921Y0067154D03*
X0117832Y0067332D03*
X0117788Y0067376D03*
X0117699Y0067554D03*
X0117566Y0067776D03*
X0117522Y0067864D03*
X0117477Y0067909D03*
X0117388Y0068086D03*
X0117300Y0068220D03*
X0117255Y0068308D03*
X0117211Y0068397D03*
X0117166Y0068442D03*
X0117122Y0068530D03*
X0117033Y0068664D03*
X0117033Y0068708D03*
X0116944Y0068841D03*
X0116900Y0068886D03*
X0116900Y0068930D03*
X0116856Y0068974D03*
X0116767Y0069152D03*
X0116722Y0069196D03*
X0116722Y0069241D03*
X0116634Y0069374D03*
X0116589Y0069418D03*
X0116589Y0069463D03*
X0116500Y0069596D03*
X0116456Y0069640D03*
X0116456Y0069685D03*
X0116412Y0069729D03*
X0116412Y0069774D03*
X0116323Y0069907D03*
X0116234Y0070040D03*
X0116190Y0070129D03*
X0116145Y0070173D03*
X0116145Y0070218D03*
X0116101Y0070262D03*
X0116101Y0070306D03*
X0115968Y0070484D03*
X0115968Y0070528D03*
X0115923Y0070573D03*
X0115879Y0070662D03*
X0115834Y0070706D03*
X0115834Y0070750D03*
X0115790Y0070795D03*
X0115790Y0070839D03*
X0115701Y0070928D03*
X0115701Y0070972D03*
X0115657Y0071017D03*
X0115657Y0071061D03*
X0115612Y0071106D03*
X0115568Y0071194D03*
X0115524Y0071239D03*
X0115524Y0071283D03*
X0115390Y0071505D03*
X0115346Y0071550D03*
X0115346Y0071594D03*
X0115302Y0071638D03*
X0115257Y0071727D03*
X0115168Y0071860D03*
X0115080Y0072038D03*
X0115035Y0072082D03*
X0114991Y0072171D03*
X0114902Y0072304D03*
X0114902Y0072349D03*
X0114858Y0072393D03*
X0114769Y0072571D03*
X0114724Y0072615D03*
X0114636Y0072793D03*
X0114547Y0072926D03*
X0114458Y0073104D03*
X0114369Y0073237D03*
X0114325Y0073326D03*
X0114236Y0073459D03*
X0114103Y0073681D03*
X0114058Y0073770D03*
X0114014Y0073858D03*
X0113925Y0073992D03*
X0113881Y0074080D03*
X0113614Y0074524D03*
X0113304Y0075057D03*
X0112105Y0071372D03*
X0099762Y0063780D03*
X0099717Y0063691D03*
X0099451Y0063247D03*
X0099406Y0063158D03*
X0099318Y0063025D03*
X0099229Y0062847D03*
X0099184Y0062803D03*
X0099051Y0062581D03*
X0099007Y0062492D03*
X0098962Y0062403D03*
X0098918Y0062314D03*
X0098874Y0062270D03*
X0098785Y0062092D03*
X0098740Y0062048D03*
X0098740Y0062004D03*
X0098696Y0061959D03*
X0098652Y0061870D03*
X0098607Y0061826D03*
X0098607Y0061782D03*
X0098474Y0061604D03*
X0098474Y0061560D03*
X0098430Y0061515D03*
X0098430Y0061471D03*
X0098385Y0061426D03*
X0098341Y0061338D03*
X0098252Y0061204D03*
X0098252Y0061160D03*
X0098163Y0061071D03*
X0098163Y0061027D03*
X0098119Y0060982D03*
X0098119Y0060938D03*
X0098074Y0060894D03*
X0097986Y0060760D03*
X0097986Y0060716D03*
X0097941Y0060672D03*
X0097852Y0060538D03*
X0097852Y0060494D03*
X0097808Y0060450D03*
X0097719Y0060272D03*
X0097675Y0060228D03*
X0097675Y0060183D03*
X0097630Y0060139D03*
X0097542Y0059961D03*
X0097497Y0059917D03*
X0097453Y0059828D03*
X0097408Y0059739D03*
X0097320Y0059606D03*
X0097186Y0059384D03*
X0097142Y0059295D03*
X0097009Y0059073D03*
X0096831Y0058762D03*
D89*
X0100650Y0057386D03*
X0101582Y0060050D03*
X0104157Y0058452D03*
X0106422Y0060316D03*
X0115390Y0057919D03*
X0107887Y0070084D03*
D90*
X0114036Y0073814D03*
X0114347Y0073281D03*
X0114658Y0072748D03*
X0114969Y0072216D03*
X0115279Y0071683D03*
X0115590Y0071150D03*
X0115901Y0070617D03*
X0113592Y0074569D03*
X0113281Y0075102D03*
X0112971Y0075634D03*
X0112793Y0075901D03*
X0112660Y0076167D03*
X0112482Y0076434D03*
X0112349Y0076700D03*
X0112038Y0077233D03*
X0111727Y0077766D03*
X0111417Y0078298D03*
X0111106Y0078831D03*
X0101293Y0066399D03*
X0100983Y0065866D03*
X0100672Y0065334D03*
X0100361Y0064801D03*
X0100050Y0064268D03*
X0099739Y0063735D03*
X0099429Y0063202D03*
X0098985Y0062448D03*
X0098674Y0061915D03*
X0107332Y0064002D03*
X0106488Y0057386D03*
X0120563Y0057386D03*
D91*
X0116145Y0059251D03*
X0108997Y0057386D03*
D92*
X0113748Y0057386D03*
X0113792Y0059251D03*
X0120585Y0059251D03*
X0103136Y0069552D03*
X0102381Y0068264D03*
X0102070Y0067731D03*
X0101937Y0067465D03*
X0101626Y0066932D03*
X0101449Y0066666D03*
X0101138Y0066133D03*
X0100827Y0065600D03*
X0100516Y0065067D03*
X0100206Y0064534D03*
X0112194Y0076966D03*
X0111883Y0077499D03*
X0111572Y0078032D03*
X0110950Y0079098D03*
X0110773Y0079364D03*
D93*
X0108575Y0078831D03*
X0108264Y0078298D03*
X0107776Y0077499D03*
X0107643Y0077233D03*
X0107465Y0076966D03*
X0107332Y0076700D03*
X0107021Y0076167D03*
X0106843Y0075901D03*
X0106710Y0075634D03*
X0106533Y0075368D03*
X0116212Y0057386D03*
D94*
X0116900Y0057830D03*
X0116900Y0058896D03*
X0115390Y0058896D03*
X0114236Y0058008D03*
X0112149Y0058851D03*
X0112016Y0061204D03*
X0110817Y0065511D03*
X0110418Y0066088D03*
X0109485Y0067021D03*
X0112060Y0071816D03*
X0101582Y0060094D03*
X0101582Y0060006D03*
X0099540Y0060006D03*
X0099540Y0059961D03*
X0099540Y0059917D03*
X0104202Y0058585D03*
X0104202Y0058540D03*
X0104202Y0058496D03*
X0104157Y0058407D03*
X0104157Y0058363D03*
X0104290Y0058807D03*
X0104335Y0058896D03*
X0104379Y0059029D03*
X0104424Y0059162D03*
X0104468Y0059295D03*
X0104468Y0059340D03*
X0105933Y0059384D03*
X0105889Y0059739D03*
X0106954Y0058230D03*
X0106999Y0058141D03*
X0103802Y0057519D03*
X0103802Y0057475D03*
X0103802Y0057430D03*
X0120274Y0058674D03*
X0121074Y0057963D03*
D95*
X0118432Y0058896D03*
X0106488Y0057430D03*
X0102492Y0068442D03*
X0102537Y0068530D03*
X0102759Y0068886D03*
X0102803Y0068974D03*
X0102847Y0069063D03*
X0103025Y0069374D03*
X0103069Y0069418D03*
X0103114Y0069507D03*
X0103336Y0069862D03*
X0103336Y0069907D03*
X0103558Y0070262D03*
X0103602Y0070306D03*
X0103824Y0070706D03*
X0103824Y0070750D03*
X0103869Y0070795D03*
X0104091Y0071194D03*
X0104135Y0071239D03*
X0104357Y0071638D03*
X0104401Y0071727D03*
X0104623Y0072082D03*
X0104668Y0072171D03*
X0104934Y0072615D03*
X0112349Y0071283D03*
D96*
X0107132Y0064135D03*
X0111439Y0059206D03*
X0108997Y0057430D03*
X0116190Y0057519D03*
X0116145Y0059206D03*
X0118587Y0059162D03*
X0109796Y0080785D03*
D97*
X0109774Y0080874D03*
X0107820Y0071994D03*
X0107199Y0064090D03*
X0106444Y0059828D03*
X0106488Y0057564D03*
X0111372Y0059384D03*
X0111106Y0060982D03*
X0116167Y0059295D03*
X0116212Y0057430D03*
D98*
X0118476Y0058940D03*
X0120563Y0057564D03*
X0120563Y0057519D03*
X0106488Y0057475D03*
X0106444Y0059917D03*
X0106000Y0074436D03*
X0106044Y0074524D03*
X0106177Y0074746D03*
X0106311Y0074968D03*
X0106444Y0075190D03*
X0106488Y0075279D03*
X0106577Y0075412D03*
X0106710Y0075679D03*
X0106755Y0075723D03*
X0106799Y0075812D03*
X0106843Y0075856D03*
X0106977Y0076123D03*
X0107021Y0076212D03*
X0107065Y0076256D03*
X0107110Y0076345D03*
X0107199Y0076478D03*
X0107199Y0076522D03*
X0107243Y0076567D03*
X0107287Y0076611D03*
X0107287Y0076656D03*
X0107332Y0076744D03*
X0107376Y0076789D03*
X0107465Y0076922D03*
X0107509Y0077011D03*
X0107554Y0077100D03*
X0107598Y0077144D03*
X0107598Y0077188D03*
X0107643Y0077277D03*
X0107731Y0077410D03*
X0107776Y0077455D03*
X0107820Y0077544D03*
X0107865Y0077632D03*
X0107909Y0077721D03*
X0107998Y0077854D03*
X0108042Y0077943D03*
X0108087Y0077988D03*
X0108131Y0078076D03*
X0108175Y0078165D03*
X0108309Y0078387D03*
X0108353Y0078476D03*
X0108442Y0078609D03*
X0108619Y0078920D03*
X0108930Y0079453D03*
D99*
X0109796Y0080696D03*
X0108952Y0059118D03*
X0108997Y0057475D03*
X0111483Y0059029D03*
X0111483Y0059073D03*
X0116145Y0059162D03*
X0116190Y0057564D03*
D100*
X0113748Y0057519D03*
X0113748Y0057475D03*
X0108952Y0059340D03*
X0112460Y0071239D03*
X0106111Y0074613D03*
X0106155Y0074702D03*
X0106333Y0075013D03*
X0106422Y0075146D03*
X0106599Y0075457D03*
X0106644Y0075546D03*
X0106910Y0075990D03*
X0106954Y0076078D03*
X0105889Y0074258D03*
X0105844Y0074169D03*
X0105800Y0074125D03*
X0105800Y0074080D03*
X0105622Y0073770D03*
X0105578Y0073725D03*
X0105534Y0073636D03*
X0105356Y0073370D03*
X0105356Y0073326D03*
X0105312Y0073237D03*
X0105267Y0073192D03*
X0105090Y0072882D03*
X0105045Y0072793D03*
X0104823Y0072438D03*
X0104779Y0072349D03*
X0104734Y0072260D03*
X0104512Y0071905D03*
X0104468Y0071816D03*
X0104202Y0071372D03*
X0104024Y0071061D03*
D101*
X0107865Y0072038D03*
X0116212Y0057475D03*
D102*
X0120541Y0057475D03*
X0107265Y0064046D03*
X0104157Y0071283D03*
X0104335Y0071594D03*
X0104601Y0072038D03*
X0104646Y0072127D03*
X0104868Y0072526D03*
X0104912Y0072571D03*
X0104956Y0072660D03*
X0105134Y0072970D03*
X0105178Y0073059D03*
X0105223Y0073104D03*
X0105400Y0073414D03*
X0105445Y0073459D03*
X0105445Y0073503D03*
X0105489Y0073592D03*
X0105667Y0073858D03*
X0105667Y0073903D03*
X0105711Y0073947D03*
X0105756Y0073992D03*
X0105933Y0074347D03*
X0105978Y0074391D03*
X0106022Y0074480D03*
X0106200Y0074791D03*
X0106244Y0074880D03*
X0106288Y0074924D03*
X0106466Y0075235D03*
X0106510Y0075324D03*
X0106777Y0075768D03*
X0107088Y0076300D03*
D103*
X0107532Y0077055D03*
X0107709Y0077366D03*
X0107842Y0077588D03*
X0107887Y0077677D03*
X0107976Y0077810D03*
X0108020Y0077899D03*
X0108153Y0078121D03*
X0108198Y0078210D03*
X0108286Y0078343D03*
X0108331Y0078432D03*
X0108375Y0078520D03*
X0108464Y0078654D03*
X0108508Y0078742D03*
X0108553Y0078787D03*
X0108597Y0078876D03*
X0108642Y0078964D03*
X0108686Y0079009D03*
X0108686Y0079053D03*
X0108775Y0079186D03*
X0108819Y0079231D03*
X0108819Y0079275D03*
X0108864Y0079320D03*
X0108908Y0079408D03*
X0112593Y0071194D03*
X0106466Y0059872D03*
X0108952Y0059295D03*
X0106510Y0057519D03*
D104*
X0108997Y0057519D03*
X0108997Y0057564D03*
X0108952Y0059073D03*
X0116145Y0059073D03*
X0116190Y0057608D03*
X0109796Y0080607D03*
D105*
X0109774Y0080962D03*
X0108753Y0079142D03*
X0108486Y0078698D03*
X0108220Y0078254D03*
X0107687Y0077322D03*
X0107421Y0076878D03*
X0107421Y0076833D03*
X0107154Y0076389D03*
X0106932Y0076034D03*
X0106888Y0075945D03*
X0106666Y0075590D03*
X0106621Y0075501D03*
X0106355Y0075057D03*
X0106133Y0074658D03*
X0105867Y0074214D03*
X0105556Y0073681D03*
X0116167Y0059340D03*
X0113770Y0057564D03*
D106*
X0106466Y0057608D03*
D107*
X0105889Y0058141D03*
X0106954Y0059428D03*
X0108952Y0057608D03*
X0113215Y0057830D03*
X0114236Y0058807D03*
X0113481Y0060405D03*
X0113481Y0060450D03*
X0113481Y0060494D03*
X0113481Y0060538D03*
X0110107Y0061737D03*
X0110107Y0061782D03*
X0110107Y0061826D03*
X0110062Y0061959D03*
X0110062Y0062004D03*
X0110062Y0062048D03*
X0110062Y0062092D03*
X0110018Y0062226D03*
X0110018Y0062270D03*
X0110018Y0062314D03*
X0109840Y0063114D03*
X0109840Y0063158D03*
X0109840Y0063247D03*
X0109840Y0063291D03*
X0109796Y0063380D03*
X0109796Y0063424D03*
X0109796Y0063513D03*
X0109752Y0063602D03*
X0109752Y0063646D03*
X0109752Y0063691D03*
X0109752Y0063780D03*
X0109219Y0063913D03*
X0109485Y0064934D03*
X0109308Y0065200D03*
X0110595Y0064756D03*
X0110595Y0064712D03*
X0110551Y0064623D03*
X0110551Y0064579D03*
X0110640Y0064890D03*
X0110329Y0063913D03*
X0111350Y0067287D03*
X0111350Y0067332D03*
X0111394Y0067376D03*
X0111394Y0067420D03*
X0111439Y0067554D03*
X0111439Y0067598D03*
X0111439Y0067642D03*
X0111439Y0067687D03*
X0110329Y0067598D03*
X0110284Y0067554D03*
X0110284Y0067509D03*
X0110062Y0068974D03*
X0110107Y0070129D03*
X0111394Y0069330D03*
X0111394Y0069241D03*
X0111394Y0069196D03*
X0111439Y0069152D03*
X0111439Y0069108D03*
X0111439Y0069063D03*
X0111439Y0068974D03*
X0111439Y0068930D03*
X0111439Y0068886D03*
X0113304Y0069774D03*
X0113259Y0069907D03*
X0114502Y0067332D03*
X0108775Y0067642D03*
X0104468Y0066177D03*
X0104246Y0066488D03*
X0103980Y0066843D03*
X0108153Y0072882D03*
X0102914Y0059473D03*
D108*
X0101582Y0059784D03*
X0099584Y0059517D03*
X0100650Y0057652D03*
X0114058Y0058185D03*
X0115524Y0058984D03*
X0116767Y0058984D03*
X0106866Y0069818D03*
X0110062Y0073015D03*
X0110506Y0073281D03*
X0111084Y0072216D03*
D109*
X0111106Y0072482D03*
X0103780Y0057652D03*
X0120874Y0058185D03*
D110*
X0106488Y0057652D03*
D111*
X0108220Y0057652D03*
D112*
X0109863Y0058718D03*
X0113281Y0057652D03*
X0120075Y0057652D03*
X0105822Y0057919D03*
X0106666Y0070084D03*
X0108175Y0070351D03*
D113*
X0116190Y0057652D03*
D114*
X0117966Y0057652D03*
X0117966Y0057919D03*
X0112238Y0057919D03*
X0101937Y0058718D03*
X0099229Y0058185D03*
X0099184Y0057919D03*
X0106688Y0070351D03*
X0109263Y0071949D03*
D115*
X0109951Y0072926D03*
X0109996Y0072970D03*
X0111772Y0071550D03*
X0112660Y0070839D03*
X0113725Y0059562D03*
X0113725Y0058496D03*
X0113859Y0058363D03*
X0113947Y0058274D03*
X0111727Y0059428D03*
X0106488Y0058762D03*
X0106444Y0058807D03*
X0106399Y0058851D03*
X0106355Y0058896D03*
X0106311Y0058940D03*
X0103780Y0057741D03*
X0101560Y0059650D03*
X0101560Y0059695D03*
X0101560Y0059739D03*
X0099606Y0059473D03*
X0099606Y0059428D03*
X0099606Y0059384D03*
X0100627Y0057741D03*
X0100627Y0057697D03*
X0120519Y0058496D03*
X0120519Y0059562D03*
D116*
X0120430Y0058585D03*
X0120918Y0058141D03*
X0118876Y0059428D03*
X0118077Y0058851D03*
X0113592Y0058585D03*
X0110928Y0058940D03*
X0106177Y0059073D03*
X0106133Y0059118D03*
X0106089Y0059162D03*
X0103780Y0057697D03*
X0099562Y0059650D03*
X0101560Y0059828D03*
X0101560Y0059872D03*
X0109818Y0064357D03*
X0109063Y0066088D03*
X0109996Y0070306D03*
X0111727Y0071638D03*
X0112393Y0071106D03*
X0111106Y0072349D03*
X0111106Y0072393D03*
X0111106Y0072438D03*
X0111106Y0072526D03*
D117*
X0112726Y0072127D03*
X0113392Y0071106D03*
X0113392Y0071061D03*
X0112771Y0069774D03*
X0112238Y0069374D03*
X0110107Y0069374D03*
X0110107Y0069152D03*
X0108020Y0069996D03*
X0108153Y0071461D03*
X0109174Y0071772D03*
X0106599Y0071194D03*
X0106599Y0070928D03*
X0108553Y0066488D03*
X0108375Y0065200D03*
X0109219Y0064224D03*
X0110506Y0066177D03*
X0114991Y0067820D03*
X0115035Y0067864D03*
X0115168Y0067953D03*
X0108109Y0060760D03*
X0108109Y0060716D03*
X0108153Y0060672D03*
X0108153Y0060627D03*
X0108198Y0060494D03*
X0108242Y0060361D03*
X0105844Y0057963D03*
X0113259Y0057697D03*
X0114192Y0058940D03*
X0120052Y0057697D03*
D118*
X0116167Y0057697D03*
X0116123Y0059029D03*
X0108975Y0059029D03*
D119*
X0107953Y0061160D03*
X0107909Y0063691D03*
X0107909Y0063780D03*
X0107909Y0063824D03*
X0107909Y0063868D03*
X0107953Y0064224D03*
X0107998Y0064312D03*
X0107998Y0064357D03*
X0109818Y0064668D03*
X0110307Y0064179D03*
X0113459Y0065112D03*
X0113548Y0065156D03*
X0113015Y0070218D03*
X0112971Y0070262D03*
X0112749Y0070440D03*
X0112704Y0070484D03*
X0112482Y0070662D03*
X0111372Y0072127D03*
X0108175Y0072438D03*
X0108175Y0072526D03*
X0108175Y0072571D03*
X0108220Y0071239D03*
X0106621Y0069507D03*
X0105867Y0058052D03*
X0113237Y0057741D03*
D120*
X0116167Y0057741D03*
X0110040Y0060672D03*
X0109774Y0080518D03*
D121*
X0110751Y0072127D03*
X0110706Y0072082D03*
X0110706Y0072038D03*
X0112615Y0070573D03*
X0112660Y0070528D03*
X0112926Y0070306D03*
X0113059Y0070173D03*
X0112615Y0069907D03*
X0114747Y0067598D03*
X0114702Y0067554D03*
X0112038Y0064401D03*
X0109907Y0064756D03*
X0109863Y0064712D03*
X0107865Y0063424D03*
X0107865Y0063380D03*
X0107865Y0063336D03*
X0107865Y0063291D03*
X0107865Y0063247D03*
X0107865Y0063158D03*
X0107865Y0063114D03*
X0107865Y0063069D03*
X0105955Y0064312D03*
X0104401Y0065511D03*
X0104357Y0065556D03*
X0103913Y0066710D03*
X0107865Y0067909D03*
X0107865Y0067953D03*
X0107865Y0068042D03*
X0107820Y0068308D03*
X0107820Y0068353D03*
X0107820Y0068397D03*
X0107820Y0068442D03*
X0107820Y0068530D03*
X0107820Y0068575D03*
X0107820Y0068619D03*
X0107820Y0068664D03*
X0107820Y0068708D03*
X0108264Y0071194D03*
X0106533Y0071106D03*
X0106533Y0071061D03*
X0113104Y0061959D03*
X0113104Y0061870D03*
X0113104Y0061826D03*
X0114214Y0058896D03*
X0109685Y0057786D03*
X0107021Y0059562D03*
X0102847Y0059428D03*
X0120030Y0057741D03*
X0121007Y0058896D03*
D122*
X0120630Y0058407D03*
X0120674Y0058363D03*
X0120718Y0058318D03*
X0118854Y0059384D03*
X0116234Y0059562D03*
X0113792Y0058407D03*
X0111838Y0061160D03*
X0106422Y0060228D03*
X0103758Y0057786D03*
X0101538Y0059606D03*
X0100650Y0057786D03*
X0109485Y0067110D03*
X0109219Y0072171D03*
X0109308Y0072260D03*
D123*
X0110595Y0073370D03*
X0109796Y0081362D03*
X0109796Y0064401D03*
X0110862Y0058851D03*
X0113481Y0058674D03*
X0114280Y0057963D03*
X0115346Y0057963D03*
X0118010Y0058674D03*
X0108198Y0058851D03*
X0106910Y0058274D03*
X0105844Y0057786D03*
X0104246Y0058674D03*
X0104512Y0059428D03*
X0104512Y0059473D03*
D124*
X0105889Y0058096D03*
X0107887Y0061293D03*
X0107887Y0061338D03*
X0107842Y0061426D03*
X0107842Y0061471D03*
X0107798Y0061782D03*
X0107798Y0061826D03*
X0107798Y0061870D03*
X0107798Y0061959D03*
X0107798Y0062004D03*
X0107798Y0062048D03*
X0107798Y0062092D03*
X0107798Y0062137D03*
X0110240Y0061249D03*
X0112771Y0061515D03*
X0112815Y0061560D03*
X0113304Y0061426D03*
X0113348Y0061249D03*
X0113082Y0062137D03*
X0113037Y0062270D03*
X0113037Y0062314D03*
X0112948Y0062581D03*
X0112904Y0062670D03*
X0112860Y0062803D03*
X0112815Y0062892D03*
X0112638Y0063291D03*
X0112593Y0063380D03*
X0112504Y0063558D03*
X0112371Y0063780D03*
X0112371Y0063824D03*
X0112327Y0063868D03*
X0112327Y0063913D03*
X0112282Y0063957D03*
X0112238Y0064046D03*
X0112149Y0064179D03*
X0111705Y0064756D03*
X0111572Y0064934D03*
X0111528Y0064978D03*
X0111483Y0065023D03*
X0110284Y0065200D03*
X0110240Y0065156D03*
X0110196Y0065112D03*
X0109707Y0064179D03*
X0109707Y0064135D03*
X0109396Y0064312D03*
X0109041Y0064312D03*
X0109041Y0064357D03*
X0108952Y0064490D03*
X0108908Y0064579D03*
X0108864Y0064623D03*
X0108819Y0064668D03*
X0108819Y0064712D03*
X0108775Y0064756D03*
X0108686Y0064934D03*
X0108642Y0064978D03*
X0108109Y0064845D03*
X0108109Y0064756D03*
X0108064Y0064668D03*
X0108064Y0064623D03*
X0108331Y0065511D03*
X0108908Y0065778D03*
X0108952Y0065733D03*
X0109130Y0065467D03*
X0110684Y0066355D03*
X0110773Y0066444D03*
X0110817Y0066488D03*
X0110906Y0066577D03*
X0110950Y0066621D03*
X0110196Y0067376D03*
X0110151Y0067332D03*
X0108864Y0067554D03*
X0108908Y0068930D03*
X0106599Y0069463D03*
X0109086Y0071550D03*
X0108153Y0072793D03*
X0111350Y0071860D03*
X0111350Y0071816D03*
X0111350Y0071772D03*
X0112238Y0069951D03*
X0112238Y0069907D03*
X0112238Y0069862D03*
X0112282Y0069774D03*
X0112282Y0069729D03*
X0112282Y0069685D03*
X0112282Y0069640D03*
X0112327Y0069507D03*
X0112327Y0069463D03*
X0112371Y0069196D03*
X0111350Y0069507D03*
X0111306Y0069640D03*
X0111306Y0069685D03*
X0113170Y0070040D03*
X0113215Y0069996D03*
X0113304Y0069729D03*
X0115435Y0067243D03*
X0115657Y0067420D03*
X0114680Y0066621D03*
X0114636Y0066532D03*
X0114636Y0066488D03*
X0114502Y0066177D03*
X0114458Y0066088D03*
X0114414Y0066044D03*
X0114369Y0065955D03*
X0114236Y0065778D03*
X0114192Y0065733D03*
X0114192Y0065689D03*
X0114147Y0065644D03*
X0105711Y0064446D03*
X0105400Y0064668D03*
X0104823Y0065156D03*
X0104734Y0065245D03*
X0104424Y0066266D03*
X0104379Y0066355D03*
X0103624Y0066310D03*
X0103624Y0066266D03*
X0114236Y0058851D03*
X0113215Y0057786D03*
X0121029Y0058851D03*
D125*
X0115501Y0057786D03*
X0114125Y0058141D03*
X0112083Y0058940D03*
X0110173Y0073104D03*
D126*
X0109863Y0072837D03*
X0109818Y0072793D03*
X0109330Y0072304D03*
X0106843Y0071461D03*
X0109774Y0081273D03*
X0101560Y0059562D03*
X0100627Y0057874D03*
X0100627Y0057830D03*
X0103780Y0057830D03*
D127*
X0106977Y0059473D03*
X0107820Y0061515D03*
X0107820Y0061560D03*
X0107820Y0061604D03*
X0107820Y0061693D03*
X0107820Y0061737D03*
X0109996Y0062359D03*
X0109907Y0062847D03*
X0109729Y0063824D03*
X0109685Y0064046D03*
X0109685Y0064090D03*
X0110484Y0064357D03*
X0110662Y0064934D03*
X0110662Y0064978D03*
X0110706Y0065112D03*
X0110706Y0065156D03*
X0110751Y0065200D03*
X0110751Y0065245D03*
X0110751Y0065289D03*
X0110795Y0065378D03*
X0110795Y0065422D03*
X0110484Y0065467D03*
X0110440Y0065422D03*
X0110395Y0065378D03*
X0109463Y0064978D03*
X0109374Y0065112D03*
X0109197Y0065378D03*
X0109152Y0065422D03*
X0109108Y0065511D03*
X0109063Y0065556D03*
X0108886Y0065822D03*
X0108309Y0065556D03*
X0108531Y0065156D03*
X0108575Y0065112D03*
X0108619Y0065023D03*
X0108131Y0065023D03*
X0108131Y0064978D03*
X0108131Y0064934D03*
X0108131Y0064890D03*
X0105511Y0064579D03*
X0105467Y0064623D03*
X0105201Y0064845D03*
X0105156Y0064890D03*
X0104979Y0065023D03*
X0104890Y0065112D03*
X0104446Y0066088D03*
X0104446Y0066222D03*
X0104401Y0066310D03*
X0104313Y0066444D03*
X0103647Y0066355D03*
X0108841Y0067598D03*
X0108886Y0068886D03*
X0109063Y0069374D03*
X0108664Y0070306D03*
X0110484Y0070662D03*
X0111061Y0070218D03*
X0111328Y0069596D03*
X0112127Y0070218D03*
X0111328Y0067243D03*
X0111195Y0066976D03*
X0111061Y0066754D03*
X0111017Y0066710D03*
X0110218Y0067420D03*
X0111594Y0064890D03*
X0111727Y0064712D03*
X0111772Y0064668D03*
X0111816Y0064623D03*
X0111816Y0064579D03*
X0112527Y0063513D03*
X0112571Y0063424D03*
X0112615Y0063336D03*
X0112660Y0063247D03*
X0112793Y0062980D03*
X0112837Y0062847D03*
X0112882Y0062758D03*
X0112926Y0062625D03*
X0113326Y0061338D03*
X0113326Y0061293D03*
X0113370Y0061204D03*
X0113370Y0061160D03*
X0113370Y0061071D03*
X0113370Y0061027D03*
X0113415Y0060982D03*
X0113415Y0060938D03*
X0113415Y0060894D03*
X0113415Y0060805D03*
X0113459Y0060672D03*
X0113459Y0060627D03*
X0110218Y0061293D03*
X0110218Y0061338D03*
X0110173Y0061426D03*
X0110173Y0061471D03*
X0110129Y0061693D03*
X0114347Y0065911D03*
X0114391Y0066000D03*
X0114613Y0066444D03*
X0114658Y0066577D03*
X0114480Y0067287D03*
X0115501Y0067287D03*
X0115546Y0067332D03*
X0118876Y0059562D03*
X0120030Y0057830D03*
D128*
X0121029Y0058807D03*
X0113437Y0060716D03*
X0113437Y0060760D03*
X0110151Y0061515D03*
X0110151Y0061560D03*
X0110151Y0061604D03*
X0109974Y0062403D03*
X0109974Y0062492D03*
X0109974Y0062536D03*
X0109974Y0062581D03*
X0109929Y0062625D03*
X0109929Y0062670D03*
X0109929Y0062758D03*
X0109929Y0062803D03*
X0109885Y0062892D03*
X0109885Y0062980D03*
X0109885Y0063025D03*
X0109885Y0063069D03*
X0109707Y0063868D03*
X0109707Y0063913D03*
X0109707Y0063957D03*
X0110462Y0064312D03*
X0110506Y0064401D03*
X0110506Y0064446D03*
X0110506Y0064490D03*
X0110684Y0065023D03*
X0109441Y0065023D03*
X0109352Y0065156D03*
X0107088Y0063913D03*
X0111217Y0067021D03*
X0111261Y0067065D03*
X0111261Y0067110D03*
X0111306Y0067154D03*
X0111483Y0067776D03*
X0111483Y0067820D03*
X0111483Y0067864D03*
X0111483Y0067909D03*
X0111483Y0067953D03*
X0111483Y0068042D03*
X0111483Y0068086D03*
X0111483Y0068131D03*
X0111483Y0068175D03*
X0111483Y0068220D03*
X0111483Y0068308D03*
X0111483Y0068353D03*
X0111483Y0068397D03*
X0111483Y0068442D03*
X0111483Y0068530D03*
X0111483Y0068575D03*
X0111483Y0068619D03*
X0111483Y0068664D03*
X0111483Y0068708D03*
X0111483Y0068797D03*
X0112371Y0069152D03*
X0112105Y0070262D03*
X0109086Y0071505D03*
X0108286Y0070972D03*
X0107088Y0072393D03*
X0112860Y0072260D03*
X0115701Y0067554D03*
X0115701Y0067509D03*
X0109707Y0057874D03*
D129*
X0113215Y0057874D03*
X0113526Y0059961D03*
X0113526Y0060006D03*
X0113526Y0060094D03*
X0113526Y0060139D03*
X0109485Y0064890D03*
X0108375Y0065955D03*
X0108375Y0066000D03*
X0108420Y0066177D03*
X0110373Y0067687D03*
X0112371Y0069108D03*
X0110551Y0070750D03*
X0110640Y0071772D03*
X0108286Y0070928D03*
X0104157Y0066577D03*
D130*
X0103780Y0057919D03*
X0100627Y0057919D03*
D131*
X0102759Y0059251D03*
X0103069Y0058718D03*
X0103247Y0058452D03*
X0104535Y0059517D03*
X0106977Y0058185D03*
X0107065Y0057919D03*
X0108131Y0058718D03*
X0111727Y0059517D03*
X0112216Y0058718D03*
X0113415Y0058718D03*
X0114303Y0057919D03*
X0115279Y0058185D03*
X0115279Y0058718D03*
X0120208Y0058718D03*
X0121096Y0057919D03*
X0108975Y0066133D03*
X0104002Y0065866D03*
X0099517Y0060050D03*
D132*
X0101515Y0059384D03*
X0101515Y0059340D03*
X0100627Y0058008D03*
X0100627Y0057963D03*
X0111816Y0071505D03*
X0112926Y0070928D03*
D133*
X0112771Y0072171D03*
X0110906Y0072793D03*
X0110373Y0070573D03*
X0110107Y0070173D03*
X0108198Y0071283D03*
X0108198Y0071328D03*
X0108198Y0072393D03*
X0107176Y0072349D03*
X0107487Y0069996D03*
X0107398Y0069951D03*
X0107931Y0069640D03*
X0107931Y0069596D03*
X0107887Y0069418D03*
X0107887Y0069374D03*
X0107887Y0069330D03*
X0107887Y0067864D03*
X0107887Y0067820D03*
X0107887Y0067776D03*
X0107931Y0067687D03*
X0107931Y0067642D03*
X0107931Y0067598D03*
X0107931Y0067554D03*
X0107976Y0067509D03*
X0107976Y0067420D03*
X0108020Y0067332D03*
X0108952Y0067420D03*
X0110551Y0066222D03*
X0109796Y0064623D03*
X0109752Y0064579D03*
X0109219Y0064179D03*
X0109219Y0064135D03*
X0107931Y0064179D03*
X0107931Y0063913D03*
X0107887Y0063646D03*
X0107887Y0063602D03*
X0107887Y0063558D03*
X0107887Y0063513D03*
X0108020Y0061071D03*
X0105844Y0058008D03*
X0112416Y0064623D03*
X0112504Y0064668D03*
X0112726Y0064756D03*
X0112948Y0064845D03*
X0113037Y0064890D03*
X0113215Y0064978D03*
X0113304Y0065023D03*
X0114813Y0066843D03*
X0115302Y0068042D03*
X0104202Y0065644D03*
D134*
X0106422Y0060139D03*
X0103758Y0058096D03*
X0103758Y0058052D03*
X0101538Y0059029D03*
X0101538Y0059073D03*
X0101538Y0059118D03*
X0100605Y0058141D03*
X0099673Y0058896D03*
X0099673Y0058940D03*
D135*
X0108819Y0058096D03*
X0112060Y0064446D03*
X0113126Y0064934D03*
X0110773Y0065911D03*
X0108064Y0067243D03*
X0107842Y0068086D03*
X0107842Y0068131D03*
X0107842Y0068175D03*
X0107842Y0068220D03*
X0107842Y0068797D03*
X0107842Y0068841D03*
X0107842Y0068886D03*
X0107842Y0068930D03*
X0107842Y0068974D03*
X0107842Y0069063D03*
X0107842Y0069108D03*
X0107842Y0069152D03*
X0107354Y0069907D03*
X0107265Y0069862D03*
X0106555Y0071017D03*
X0109174Y0071727D03*
X0110773Y0072171D03*
X0111217Y0070040D03*
X0112282Y0069330D03*
X0112815Y0070395D03*
X0108819Y0069063D03*
X0104335Y0066044D03*
X0104157Y0065689D03*
D136*
X0109352Y0070484D03*
X0108908Y0058141D03*
D137*
X0108930Y0058185D03*
D138*
X0108930Y0058230D03*
X0107332Y0071860D03*
D139*
X0107354Y0071905D03*
X0109308Y0070440D03*
X0109796Y0080296D03*
X0108952Y0058540D03*
X0108952Y0058496D03*
X0108952Y0058407D03*
X0108952Y0058363D03*
X0108952Y0058318D03*
X0108952Y0058274D03*
D140*
X0120763Y0058274D03*
D141*
X0113903Y0058318D03*
D142*
X0106777Y0058452D03*
X0106022Y0059251D03*
D143*
X0108952Y0058452D03*
D144*
X0110773Y0058452D03*
X0117078Y0058452D03*
X0112105Y0064534D03*
X0110462Y0066133D03*
D145*
X0108975Y0058629D03*
X0108975Y0058585D03*
X0109774Y0080341D03*
D146*
X0104268Y0058718D03*
D147*
X0118010Y0058718D03*
D148*
X0118054Y0058807D03*
X0111705Y0059473D03*
X0108952Y0059562D03*
X0108286Y0058940D03*
X0106066Y0059206D03*
X0101582Y0059917D03*
X0101582Y0059961D03*
X0103980Y0065955D03*
X0111705Y0071594D03*
X0110551Y0073326D03*
D149*
X0119053Y0058807D03*
D150*
X0121007Y0058940D03*
X0116256Y0059650D03*
X0113104Y0061737D03*
X0113104Y0061782D03*
X0112305Y0064579D03*
X0112615Y0064712D03*
X0108353Y0065245D03*
X0108353Y0065289D03*
X0108353Y0066710D03*
X0108353Y0066754D03*
X0108309Y0066799D03*
X0108087Y0067154D03*
X0108841Y0069108D03*
X0111239Y0069996D03*
X0111283Y0069951D03*
X0104091Y0065733D03*
X0107021Y0059606D03*
D151*
X0106422Y0060050D03*
X0099584Y0063469D03*
X0099273Y0062936D03*
X0099140Y0062714D03*
X0098518Y0061648D03*
X0098341Y0061382D03*
X0098208Y0061116D03*
X0097897Y0060583D03*
X0097586Y0060050D03*
X0097275Y0059517D03*
X0096964Y0058984D03*
X0116056Y0070351D03*
X0116234Y0070084D03*
X0116367Y0069818D03*
X0116678Y0069285D03*
X0116989Y0068752D03*
X0117433Y0067998D03*
X0117744Y0067465D03*
X0118054Y0066932D03*
X0118365Y0066399D03*
X0115435Y0071416D03*
X0115124Y0071949D03*
X0114813Y0072482D03*
X0114502Y0073015D03*
X0114192Y0073548D03*
X0113748Y0074302D03*
X0113437Y0074835D03*
D152*
X0109774Y0081184D03*
X0110085Y0060583D03*
X0099651Y0058984D03*
D153*
X0099562Y0059784D03*
X0104357Y0058984D03*
X0104446Y0059251D03*
X0105955Y0059784D03*
X0106977Y0059784D03*
X0109641Y0058984D03*
D154*
X0108353Y0058984D03*
D155*
X0111483Y0058984D03*
D156*
X0110773Y0059517D03*
X0114192Y0058984D03*
X0108642Y0066399D03*
X0110107Y0069285D03*
X0111394Y0069818D03*
X0110950Y0072748D03*
D157*
X0112726Y0071150D03*
X0108109Y0078032D03*
X0108420Y0078565D03*
X0108730Y0079098D03*
X0108864Y0079364D03*
X0118498Y0058984D03*
D158*
X0118521Y0059029D03*
D159*
X0120585Y0059118D03*
X0113748Y0059073D03*
X0109485Y0066000D03*
X0103225Y0069685D03*
X0103269Y0069774D03*
X0103402Y0069996D03*
X0103003Y0069330D03*
X0102958Y0069241D03*
X0102914Y0069152D03*
X0102736Y0068841D03*
X0102692Y0068797D03*
X0102648Y0068708D03*
X0102603Y0068619D03*
X0102470Y0068397D03*
X0102426Y0068353D03*
X0102426Y0068308D03*
X0102337Y0068175D03*
X0102204Y0067953D03*
X0102159Y0067864D03*
X0102115Y0067820D03*
X0102115Y0067776D03*
X0102070Y0067687D03*
X0101937Y0067509D03*
X0101893Y0067420D03*
X0101848Y0067376D03*
X0101848Y0067332D03*
X0101804Y0067287D03*
X0101804Y0067243D03*
X0101671Y0067065D03*
X0101671Y0067021D03*
X0101626Y0066976D03*
X0101582Y0066888D03*
X0101538Y0066799D03*
X0101404Y0066577D03*
X0101360Y0066532D03*
X0101360Y0066488D03*
X0101316Y0066444D03*
X0101271Y0066355D03*
X0101182Y0066222D03*
X0101094Y0066044D03*
X0101005Y0065911D03*
X0100916Y0065733D03*
X0100783Y0065511D03*
X0100650Y0065289D03*
X0112238Y0071328D03*
X0112682Y0076123D03*
X0112371Y0076656D03*
X0112238Y0076878D03*
X0112105Y0077100D03*
X0111927Y0077410D03*
X0111750Y0077721D03*
X0111661Y0077854D03*
X0111616Y0077943D03*
X0111483Y0078165D03*
X0111439Y0078254D03*
X0111394Y0078343D03*
X0111350Y0078387D03*
X0111306Y0078476D03*
X0111217Y0078609D03*
X0111172Y0078698D03*
X0111128Y0078787D03*
X0111084Y0078876D03*
X0111039Y0078920D03*
X0110906Y0079142D03*
X0110862Y0079231D03*
X0110817Y0079320D03*
X0110773Y0079408D03*
D160*
X0111150Y0061027D03*
X0111417Y0059295D03*
X0108975Y0059206D03*
X0118521Y0059295D03*
X0118565Y0059206D03*
X0118565Y0059118D03*
X0118521Y0059073D03*
D161*
X0111461Y0059118D03*
X0111461Y0059162D03*
X0111195Y0061071D03*
X0108975Y0059162D03*
X0109774Y0080740D03*
D162*
X0116123Y0059118D03*
D163*
X0099606Y0059251D03*
D164*
X0101538Y0059251D03*
X0116190Y0059517D03*
X0109840Y0070351D03*
D165*
X0108975Y0059251D03*
D166*
X0111439Y0059251D03*
X0118543Y0059251D03*
D167*
X0099606Y0059295D03*
X0099606Y0059340D03*
X0109108Y0072082D03*
X0109152Y0072127D03*
X0109374Y0072349D03*
X0109419Y0072393D03*
X0109907Y0072882D03*
D168*
X0109796Y0080829D03*
X0110062Y0060627D03*
X0111394Y0059340D03*
X0118498Y0059340D03*
D169*
X0113748Y0059428D03*
D170*
X0112926Y0061648D03*
X0112260Y0064002D03*
X0112083Y0064268D03*
X0111239Y0065334D03*
X0110173Y0065067D03*
X0109729Y0064268D03*
X0108042Y0064534D03*
X0108886Y0065866D03*
X0109463Y0066932D03*
X0111905Y0069552D03*
X0112260Y0069818D03*
X0113148Y0070084D03*
X0112837Y0072216D03*
X0110662Y0071949D03*
X0108175Y0072748D03*
X0114613Y0067465D03*
X0107820Y0062448D03*
X0106977Y0059517D03*
X0104623Y0065334D03*
D171*
X0109485Y0072482D03*
X0109752Y0072748D03*
X0113748Y0059517D03*
D172*
X0117899Y0059517D03*
X0110262Y0064268D03*
X0109241Y0064268D03*
X0114880Y0066932D03*
X0108264Y0060316D03*
X0108353Y0060050D03*
D173*
X0120541Y0059517D03*
D174*
X0113526Y0060050D03*
X0108420Y0066133D03*
X0109041Y0071416D03*
D175*
X0113326Y0069818D03*
X0111461Y0067731D03*
X0113503Y0060316D03*
D176*
X0117877Y0067243D03*
X0117610Y0067687D03*
X0117344Y0068131D03*
X0117078Y0068619D03*
X0116811Y0069063D03*
X0116545Y0069507D03*
X0116278Y0069951D03*
X0116278Y0069996D03*
X0116012Y0070395D03*
X0116012Y0070440D03*
X0115479Y0071328D03*
X0115213Y0071772D03*
X0115213Y0071816D03*
X0114946Y0072260D03*
X0114680Y0072704D03*
X0114414Y0073148D03*
X0099096Y0062625D03*
X0098563Y0061737D03*
X0098563Y0061693D03*
X0098296Y0061293D03*
X0098296Y0061249D03*
X0098030Y0060805D03*
X0097764Y0060361D03*
D177*
X0105023Y0064978D03*
X0105067Y0064934D03*
X0105289Y0064756D03*
X0105334Y0064712D03*
X0103691Y0066444D03*
X0103691Y0066488D03*
X0103735Y0066532D03*
X0108175Y0065156D03*
X0108175Y0065112D03*
X0108708Y0064890D03*
X0109241Y0065289D03*
X0109285Y0065245D03*
X0109019Y0065644D03*
X0108975Y0065689D03*
X0110307Y0065245D03*
X0110351Y0065289D03*
X0110617Y0064845D03*
X0110573Y0064668D03*
X0110351Y0064046D03*
X0110351Y0063957D03*
X0109774Y0063558D03*
X0109818Y0063336D03*
X0109241Y0063957D03*
X0111639Y0064845D03*
X0112438Y0063691D03*
X0112482Y0063602D03*
X0112704Y0063158D03*
X0112749Y0063069D03*
X0112749Y0063025D03*
X0112971Y0062536D03*
X0112971Y0062492D03*
X0113015Y0062403D03*
X0113015Y0062359D03*
X0113237Y0061693D03*
X0113281Y0061604D03*
X0113281Y0061560D03*
X0113281Y0061515D03*
X0113281Y0061471D03*
X0110085Y0061870D03*
X0110040Y0062137D03*
X0110085Y0060538D03*
X0106399Y0060405D03*
X0114525Y0066222D03*
X0114569Y0066310D03*
X0114569Y0066355D03*
X0114525Y0067376D03*
X0111150Y0066888D03*
X0111106Y0066843D03*
X0111106Y0066799D03*
X0111372Y0069374D03*
X0111372Y0069418D03*
X0111372Y0069463D03*
X0113237Y0069951D03*
X0110617Y0071816D03*
X0108175Y0072837D03*
D178*
X0108153Y0071416D03*
X0108775Y0070351D03*
X0108952Y0069285D03*
X0106644Y0069552D03*
X0106599Y0070884D03*
X0115257Y0067998D03*
X0109752Y0064534D03*
X0108153Y0060583D03*
D179*
X0107865Y0061382D03*
X0107820Y0061648D03*
X0110129Y0061648D03*
X0110173Y0061382D03*
X0112882Y0062714D03*
X0112793Y0062936D03*
X0113326Y0061382D03*
X0113370Y0061116D03*
X0113415Y0060849D03*
X0113459Y0060583D03*
X0110529Y0064534D03*
X0110706Y0065067D03*
X0108309Y0065600D03*
X0110262Y0067465D03*
X0110973Y0066666D03*
X0114480Y0066133D03*
X0115679Y0067465D03*
X0111328Y0069552D03*
X0104357Y0066399D03*
X0104934Y0065067D03*
X0105245Y0064801D03*
D180*
X0110018Y0060716D03*
X0109796Y0080163D03*
D181*
X0110018Y0060760D03*
D182*
X0109752Y0060805D03*
D183*
X0109818Y0060849D03*
D184*
X0109863Y0060894D03*
D185*
X0109885Y0060938D03*
D186*
X0110351Y0061116D03*
X0107998Y0061116D03*
X0107909Y0063735D03*
X0107953Y0064268D03*
X0104268Y0065600D03*
X0107909Y0067731D03*
X0111150Y0070084D03*
X0108175Y0072482D03*
X0109774Y0081451D03*
D187*
X0111616Y0061116D03*
D188*
X0112327Y0061293D03*
X0114946Y0067776D03*
X0112327Y0070040D03*
D189*
X0112571Y0070617D03*
X0112882Y0070351D03*
X0112305Y0069285D03*
X0109152Y0071683D03*
X0108264Y0071150D03*
X0106533Y0071150D03*
X0107820Y0068486D03*
X0107865Y0067998D03*
X0108930Y0067465D03*
X0108353Y0065334D03*
X0107865Y0063202D03*
X0112527Y0061382D03*
X0113104Y0061915D03*
D190*
X0113259Y0061648D03*
X0112993Y0062448D03*
X0111661Y0064801D03*
X0115346Y0067198D03*
X0110062Y0069019D03*
X0111394Y0071949D03*
X0110862Y0073015D03*
X0105578Y0064534D03*
D191*
X0108109Y0064801D03*
X0108597Y0065067D03*
X0108908Y0064534D03*
X0109219Y0064002D03*
X0109041Y0065600D03*
X0110373Y0065334D03*
X0110773Y0065334D03*
X0111439Y0065067D03*
X0110728Y0066399D03*
X0112416Y0063735D03*
X0112549Y0063469D03*
X0112682Y0063202D03*
X0113082Y0062181D03*
X0114103Y0065600D03*
X0114325Y0065866D03*
X0114591Y0066399D03*
X0114680Y0066666D03*
X0112327Y0069552D03*
X0110462Y0070617D03*
X0103669Y0066399D03*
X0107798Y0062181D03*
X0107798Y0061915D03*
D192*
X0110085Y0061915D03*
X0110351Y0064002D03*
X0110617Y0064801D03*
X0108753Y0064801D03*
D193*
X0099895Y0064002D03*
X0098829Y0062181D03*
X0115746Y0070884D03*
D194*
X0111394Y0069285D03*
X0111439Y0069019D03*
X0111394Y0067465D03*
X0111172Y0066932D03*
X0109219Y0065334D03*
X0108153Y0065067D03*
X0109752Y0063735D03*
X0109796Y0063469D03*
X0109840Y0063202D03*
X0110018Y0062181D03*
X0104468Y0066133D03*
D195*
X0109396Y0065067D03*
X0109707Y0064002D03*
X0109885Y0062936D03*
X0109929Y0062714D03*
X0109974Y0062448D03*
X0111306Y0067198D03*
X0111483Y0067998D03*
X0111483Y0068264D03*
X0111483Y0068486D03*
X0111483Y0068752D03*
D196*
X0108864Y0069019D03*
X0113792Y0065334D03*
X0109929Y0064801D03*
X0107842Y0062936D03*
X0107842Y0062714D03*
X0103624Y0066133D03*
D197*
X0104779Y0065200D03*
X0108730Y0064845D03*
X0108997Y0064401D03*
X0112460Y0063646D03*
X0112726Y0063114D03*
X0114280Y0065822D03*
X0114547Y0066266D03*
X0115612Y0067376D03*
X0112194Y0070173D03*
X0110062Y0069063D03*
X0110862Y0066532D03*
X0111394Y0071905D03*
X0111394Y0071994D03*
X0111394Y0072038D03*
X0110862Y0073059D03*
X0106111Y0072082D03*
D198*
X0107976Y0069818D03*
X0107931Y0069552D03*
X0107887Y0069285D03*
X0107976Y0067465D03*
X0106066Y0064268D03*
X0107887Y0063469D03*
X0103935Y0066666D03*
X0114591Y0067198D03*
D199*
X0112837Y0064801D03*
X0108087Y0067198D03*
D200*
X0107842Y0068264D03*
X0107842Y0068752D03*
X0107842Y0069019D03*
X0112282Y0070084D03*
X0113392Y0065067D03*
D201*
X0103092Y0069463D03*
X0102781Y0068930D03*
X0102559Y0068575D03*
X0102292Y0068131D03*
X0102292Y0068086D03*
X0102248Y0068042D03*
X0102026Y0067642D03*
X0101982Y0067598D03*
X0101982Y0067554D03*
X0101715Y0067110D03*
X0101493Y0066754D03*
X0101493Y0066710D03*
X0101227Y0066266D03*
X0100960Y0065822D03*
X0100694Y0065378D03*
X0112060Y0077188D03*
X0111794Y0077632D03*
X0110995Y0079009D03*
X0110728Y0079453D03*
D202*
X0115723Y0067598D03*
X0108353Y0065911D03*
X0108309Y0065778D03*
X0108309Y0065733D03*
X0108309Y0065689D03*
X0108309Y0065644D03*
D203*
X0108331Y0065822D03*
D204*
X0108353Y0065866D03*
D205*
X0108397Y0066666D03*
X0108220Y0066932D03*
X0110795Y0065866D03*
X0114880Y0067731D03*
X0112704Y0069818D03*
X0108975Y0070617D03*
D206*
X0109752Y0066044D03*
X0109796Y0080563D03*
D207*
X0112837Y0075856D03*
X0113104Y0075412D03*
X0113370Y0074968D03*
X0113370Y0074924D03*
X0113637Y0074480D03*
X0114169Y0073592D03*
X0101737Y0067154D03*
D208*
X0101760Y0067198D03*
X0102248Y0067998D03*
X0102514Y0068486D03*
X0102825Y0069019D03*
X0111261Y0078565D03*
D209*
X0109507Y0067198D03*
D210*
X0103780Y0070617D03*
X0103913Y0070884D03*
X0104224Y0071416D03*
X0104535Y0071949D03*
X0103469Y0070084D03*
X0102981Y0069285D03*
X0102670Y0068752D03*
D211*
X0103291Y0069818D03*
X0103602Y0070351D03*
X0104091Y0071150D03*
D212*
X0109241Y0070395D03*
D213*
X0109419Y0070528D03*
D214*
X0112726Y0070884D03*
D215*
X0113370Y0071017D03*
D216*
X0106910Y0071505D03*
D217*
X0107310Y0071638D03*
D218*
X0105178Y0073015D03*
X0104868Y0072482D03*
X0104690Y0072216D03*
X0104379Y0071683D03*
X0105489Y0073548D03*
X0105756Y0074036D03*
X0105933Y0074302D03*
X0106244Y0074835D03*
D219*
X0107310Y0071683D03*
D220*
X0107310Y0071727D03*
X0107310Y0071772D03*
D221*
X0110462Y0073237D03*
X0111794Y0071727D03*
D222*
X0107332Y0071816D03*
X0109774Y0080430D03*
D223*
X0107376Y0071949D03*
D224*
X0109263Y0072216D03*
D225*
X0106066Y0074569D03*
X0106377Y0075102D03*
X0105622Y0073814D03*
X0105312Y0073281D03*
X0105001Y0072748D03*
D226*
X0113104Y0075368D03*
X0113903Y0074036D03*
D227*
X0107953Y0077766D03*
X0107154Y0076434D03*
D228*
X0109774Y0079497D03*
D229*
X0109796Y0079542D03*
D230*
X0109774Y0079586D03*
D231*
X0109796Y0079630D03*
D232*
X0109774Y0079675D03*
D233*
X0109796Y0079719D03*
D234*
X0109796Y0079764D03*
D235*
X0109774Y0079808D03*
D236*
X0109796Y0079852D03*
D237*
X0109774Y0079897D03*
D238*
X0109796Y0079941D03*
D239*
X0109796Y0079986D03*
D240*
X0109774Y0080030D03*
D241*
X0109796Y0080074D03*
D242*
X0109774Y0080119D03*
D243*
X0109774Y0080208D03*
D244*
X0109796Y0080252D03*
D245*
X0109796Y0080385D03*
D246*
X0109796Y0080474D03*
D247*
X0109774Y0080652D03*
D248*
X0109796Y0080918D03*
M02*
