G75*
%MOIN*%
%OFA0B0*%
%FSLAX25Y25*%
%IPPOS*%
%LPD*%
%AMOC8*
5,1,8,0,0,1.08239X$1,22.5*
%
%ADD10C,0.00000*%
%ADD11R,0.03937X0.04331*%
%ADD12R,0.04331X0.03937*%
%ADD13R,0.02200X0.05000*%
%ADD14R,0.05000X0.02200*%
%ADD15C,0.04000*%
%ADD16R,0.03150X0.03150*%
%ADD17C,0.03800*%
%ADD18OC8,0.10000*%
%ADD19R,0.05512X0.06299*%
%ADD20R,0.03150X0.07874*%
%ADD21R,0.03543X0.03150*%
%ADD22R,0.03937X0.03150*%
%ADD23OC8,0.07000*%
%ADD24R,0.02500X0.05000*%
%ADD25OC8,0.07600*%
%ADD26C,0.03169*%
%ADD27C,0.01000*%
%ADD28C,0.01600*%
%ADD29C,0.01200*%
D10*
X0086078Y0053500D02*
X0086185Y0053498D01*
X0086292Y0053492D01*
X0086399Y0053483D01*
X0086505Y0053469D01*
X0086611Y0053452D01*
X0086716Y0053431D01*
X0086820Y0053407D01*
X0086923Y0053378D01*
X0087025Y0053346D01*
X0087126Y0053311D01*
X0087226Y0053272D01*
X0087324Y0053229D01*
X0087421Y0053183D01*
X0087516Y0053133D01*
X0087609Y0053080D01*
X0087700Y0053024D01*
X0087789Y0052964D01*
X0087876Y0052902D01*
X0087960Y0052836D01*
X0088043Y0052767D01*
X0088122Y0052696D01*
X0088199Y0052621D01*
X0088274Y0052544D01*
X0088345Y0052465D01*
X0088414Y0052382D01*
X0088480Y0052298D01*
X0088542Y0052211D01*
X0088602Y0052122D01*
X0088658Y0052031D01*
X0088711Y0051938D01*
X0088761Y0051843D01*
X0088807Y0051746D01*
X0088850Y0051648D01*
X0088889Y0051548D01*
X0088924Y0051447D01*
X0088956Y0051345D01*
X0088985Y0051242D01*
X0089009Y0051138D01*
X0089030Y0051033D01*
X0089047Y0050927D01*
X0089061Y0050821D01*
X0089070Y0050714D01*
X0089076Y0050607D01*
X0089078Y0050500D01*
X0089078Y0006500D01*
X0089080Y0006393D01*
X0089086Y0006286D01*
X0089095Y0006179D01*
X0089109Y0006073D01*
X0089126Y0005967D01*
X0089147Y0005862D01*
X0089171Y0005758D01*
X0089200Y0005655D01*
X0089232Y0005553D01*
X0089267Y0005452D01*
X0089306Y0005352D01*
X0089349Y0005254D01*
X0089395Y0005157D01*
X0089445Y0005062D01*
X0089498Y0004969D01*
X0089554Y0004878D01*
X0089614Y0004789D01*
X0089676Y0004702D01*
X0089742Y0004618D01*
X0089811Y0004535D01*
X0089882Y0004456D01*
X0089957Y0004379D01*
X0090034Y0004304D01*
X0090113Y0004233D01*
X0090196Y0004164D01*
X0090280Y0004098D01*
X0090367Y0004036D01*
X0090456Y0003976D01*
X0090547Y0003920D01*
X0090640Y0003867D01*
X0090735Y0003817D01*
X0090832Y0003771D01*
X0090930Y0003728D01*
X0091030Y0003689D01*
X0091131Y0003654D01*
X0091233Y0003622D01*
X0091336Y0003593D01*
X0091440Y0003569D01*
X0091545Y0003548D01*
X0091651Y0003531D01*
X0091757Y0003517D01*
X0091864Y0003508D01*
X0091971Y0003502D01*
X0092078Y0003500D01*
X0190578Y0003500D01*
X0190676Y0003502D01*
X0190774Y0003508D01*
X0190872Y0003517D01*
X0190969Y0003531D01*
X0191066Y0003548D01*
X0191162Y0003569D01*
X0191257Y0003594D01*
X0191351Y0003622D01*
X0191443Y0003655D01*
X0191535Y0003690D01*
X0191625Y0003730D01*
X0191713Y0003772D01*
X0191800Y0003819D01*
X0191884Y0003868D01*
X0191967Y0003921D01*
X0192047Y0003977D01*
X0192126Y0004037D01*
X0192202Y0004099D01*
X0192275Y0004164D01*
X0192346Y0004232D01*
X0192414Y0004303D01*
X0192479Y0004376D01*
X0192541Y0004452D01*
X0192601Y0004531D01*
X0192657Y0004611D01*
X0192710Y0004694D01*
X0192759Y0004778D01*
X0192806Y0004865D01*
X0192848Y0004953D01*
X0192888Y0005043D01*
X0192923Y0005135D01*
X0192956Y0005227D01*
X0192984Y0005321D01*
X0193009Y0005416D01*
X0193030Y0005512D01*
X0193047Y0005609D01*
X0193061Y0005706D01*
X0193070Y0005804D01*
X0193076Y0005902D01*
X0193078Y0006000D01*
X0193078Y0101000D01*
X0193076Y0101107D01*
X0193070Y0101214D01*
X0193061Y0101321D01*
X0193047Y0101427D01*
X0193030Y0101533D01*
X0193009Y0101638D01*
X0192985Y0101742D01*
X0192956Y0101845D01*
X0192924Y0101947D01*
X0192889Y0102048D01*
X0192850Y0102148D01*
X0192807Y0102246D01*
X0192761Y0102343D01*
X0192711Y0102438D01*
X0192658Y0102531D01*
X0192602Y0102622D01*
X0192542Y0102711D01*
X0192480Y0102798D01*
X0192414Y0102882D01*
X0192345Y0102965D01*
X0192274Y0103044D01*
X0192199Y0103121D01*
X0192122Y0103196D01*
X0192043Y0103267D01*
X0191960Y0103336D01*
X0191876Y0103402D01*
X0191789Y0103464D01*
X0191700Y0103524D01*
X0191609Y0103580D01*
X0191516Y0103633D01*
X0191421Y0103683D01*
X0191324Y0103729D01*
X0191226Y0103772D01*
X0191126Y0103811D01*
X0191025Y0103846D01*
X0190923Y0103878D01*
X0190820Y0103907D01*
X0190716Y0103931D01*
X0190611Y0103952D01*
X0190505Y0103969D01*
X0190399Y0103983D01*
X0190292Y0103992D01*
X0190185Y0103998D01*
X0190078Y0104000D01*
X0084120Y0104000D01*
X0084011Y0103998D01*
X0083903Y0103992D01*
X0083795Y0103983D01*
X0083687Y0103969D01*
X0083580Y0103952D01*
X0083474Y0103931D01*
X0083368Y0103906D01*
X0083263Y0103877D01*
X0083160Y0103844D01*
X0083057Y0103808D01*
X0082956Y0103769D01*
X0082857Y0103725D01*
X0082759Y0103678D01*
X0082663Y0103628D01*
X0082568Y0103574D01*
X0082476Y0103517D01*
X0082386Y0103457D01*
X0082298Y0103393D01*
X0082212Y0103327D01*
X0082129Y0103257D01*
X0082048Y0103185D01*
X0081970Y0103109D01*
X0081894Y0103031D01*
X0081822Y0102950D01*
X0081752Y0102867D01*
X0081686Y0102781D01*
X0081622Y0102693D01*
X0081562Y0102603D01*
X0081505Y0102511D01*
X0081451Y0102416D01*
X0081401Y0102320D01*
X0081354Y0102222D01*
X0081310Y0102123D01*
X0081271Y0102022D01*
X0081235Y0101919D01*
X0081202Y0101816D01*
X0081173Y0101711D01*
X0081148Y0101605D01*
X0081127Y0101499D01*
X0081110Y0101392D01*
X0081096Y0101284D01*
X0081087Y0101176D01*
X0081081Y0101068D01*
X0081079Y0100959D01*
X0081078Y0100959D02*
X0081078Y0056500D01*
X0081080Y0056393D01*
X0081086Y0056286D01*
X0081095Y0056179D01*
X0081109Y0056073D01*
X0081126Y0055967D01*
X0081147Y0055862D01*
X0081171Y0055758D01*
X0081200Y0055655D01*
X0081232Y0055553D01*
X0081267Y0055452D01*
X0081306Y0055352D01*
X0081349Y0055254D01*
X0081395Y0055157D01*
X0081445Y0055062D01*
X0081498Y0054969D01*
X0081554Y0054878D01*
X0081614Y0054789D01*
X0081676Y0054702D01*
X0081742Y0054618D01*
X0081811Y0054535D01*
X0081882Y0054456D01*
X0081957Y0054379D01*
X0082034Y0054304D01*
X0082113Y0054233D01*
X0082196Y0054164D01*
X0082280Y0054098D01*
X0082367Y0054036D01*
X0082456Y0053976D01*
X0082547Y0053920D01*
X0082640Y0053867D01*
X0082735Y0053817D01*
X0082832Y0053771D01*
X0082930Y0053728D01*
X0083030Y0053689D01*
X0083131Y0053654D01*
X0083233Y0053622D01*
X0083336Y0053593D01*
X0083440Y0053569D01*
X0083545Y0053548D01*
X0083651Y0053531D01*
X0083757Y0053517D01*
X0083864Y0053508D01*
X0083971Y0053502D01*
X0084078Y0053500D01*
X0086078Y0053500D01*
X0092722Y0096804D02*
X0092724Y0096883D01*
X0092730Y0096962D01*
X0092740Y0097041D01*
X0092754Y0097119D01*
X0092771Y0097196D01*
X0092793Y0097272D01*
X0092818Y0097347D01*
X0092848Y0097420D01*
X0092880Y0097492D01*
X0092917Y0097563D01*
X0092957Y0097631D01*
X0093000Y0097697D01*
X0093046Y0097761D01*
X0093096Y0097823D01*
X0093149Y0097882D01*
X0093204Y0097938D01*
X0093263Y0097992D01*
X0093324Y0098042D01*
X0093387Y0098090D01*
X0093453Y0098134D01*
X0093521Y0098175D01*
X0093591Y0098212D01*
X0093662Y0098246D01*
X0093736Y0098276D01*
X0093810Y0098302D01*
X0093886Y0098324D01*
X0093963Y0098343D01*
X0094041Y0098358D01*
X0094119Y0098369D01*
X0094198Y0098376D01*
X0094277Y0098379D01*
X0094356Y0098378D01*
X0094435Y0098373D01*
X0094514Y0098364D01*
X0094592Y0098351D01*
X0094669Y0098334D01*
X0094746Y0098314D01*
X0094821Y0098289D01*
X0094895Y0098261D01*
X0094968Y0098229D01*
X0095038Y0098194D01*
X0095107Y0098155D01*
X0095174Y0098112D01*
X0095239Y0098066D01*
X0095301Y0098018D01*
X0095361Y0097966D01*
X0095418Y0097911D01*
X0095472Y0097853D01*
X0095523Y0097793D01*
X0095571Y0097730D01*
X0095616Y0097665D01*
X0095658Y0097597D01*
X0095696Y0097528D01*
X0095730Y0097457D01*
X0095761Y0097384D01*
X0095789Y0097309D01*
X0095812Y0097234D01*
X0095832Y0097157D01*
X0095848Y0097080D01*
X0095860Y0097001D01*
X0095868Y0096923D01*
X0095872Y0096844D01*
X0095872Y0096764D01*
X0095868Y0096685D01*
X0095860Y0096607D01*
X0095848Y0096528D01*
X0095832Y0096451D01*
X0095812Y0096374D01*
X0095789Y0096299D01*
X0095761Y0096224D01*
X0095730Y0096151D01*
X0095696Y0096080D01*
X0095658Y0096011D01*
X0095616Y0095943D01*
X0095571Y0095878D01*
X0095523Y0095815D01*
X0095472Y0095755D01*
X0095418Y0095697D01*
X0095361Y0095642D01*
X0095301Y0095590D01*
X0095239Y0095542D01*
X0095174Y0095496D01*
X0095107Y0095453D01*
X0095038Y0095414D01*
X0094968Y0095379D01*
X0094895Y0095347D01*
X0094821Y0095319D01*
X0094746Y0095294D01*
X0094669Y0095274D01*
X0094592Y0095257D01*
X0094514Y0095244D01*
X0094435Y0095235D01*
X0094356Y0095230D01*
X0094277Y0095229D01*
X0094198Y0095232D01*
X0094119Y0095239D01*
X0094041Y0095250D01*
X0093963Y0095265D01*
X0093886Y0095284D01*
X0093810Y0095306D01*
X0093736Y0095332D01*
X0093662Y0095362D01*
X0093591Y0095396D01*
X0093521Y0095433D01*
X0093453Y0095474D01*
X0093387Y0095518D01*
X0093324Y0095566D01*
X0093263Y0095616D01*
X0093204Y0095670D01*
X0093149Y0095726D01*
X0093096Y0095785D01*
X0093046Y0095847D01*
X0093000Y0095911D01*
X0092957Y0095977D01*
X0092917Y0096045D01*
X0092880Y0096116D01*
X0092848Y0096188D01*
X0092818Y0096261D01*
X0092793Y0096336D01*
X0092771Y0096412D01*
X0092754Y0096489D01*
X0092740Y0096567D01*
X0092730Y0096646D01*
X0092724Y0096725D01*
X0092722Y0096804D01*
X0104533Y0096804D02*
X0104535Y0096883D01*
X0104541Y0096962D01*
X0104551Y0097041D01*
X0104565Y0097119D01*
X0104582Y0097196D01*
X0104604Y0097272D01*
X0104629Y0097347D01*
X0104659Y0097420D01*
X0104691Y0097492D01*
X0104728Y0097563D01*
X0104768Y0097631D01*
X0104811Y0097697D01*
X0104857Y0097761D01*
X0104907Y0097823D01*
X0104960Y0097882D01*
X0105015Y0097938D01*
X0105074Y0097992D01*
X0105135Y0098042D01*
X0105198Y0098090D01*
X0105264Y0098134D01*
X0105332Y0098175D01*
X0105402Y0098212D01*
X0105473Y0098246D01*
X0105547Y0098276D01*
X0105621Y0098302D01*
X0105697Y0098324D01*
X0105774Y0098343D01*
X0105852Y0098358D01*
X0105930Y0098369D01*
X0106009Y0098376D01*
X0106088Y0098379D01*
X0106167Y0098378D01*
X0106246Y0098373D01*
X0106325Y0098364D01*
X0106403Y0098351D01*
X0106480Y0098334D01*
X0106557Y0098314D01*
X0106632Y0098289D01*
X0106706Y0098261D01*
X0106779Y0098229D01*
X0106849Y0098194D01*
X0106918Y0098155D01*
X0106985Y0098112D01*
X0107050Y0098066D01*
X0107112Y0098018D01*
X0107172Y0097966D01*
X0107229Y0097911D01*
X0107283Y0097853D01*
X0107334Y0097793D01*
X0107382Y0097730D01*
X0107427Y0097665D01*
X0107469Y0097597D01*
X0107507Y0097528D01*
X0107541Y0097457D01*
X0107572Y0097384D01*
X0107600Y0097309D01*
X0107623Y0097234D01*
X0107643Y0097157D01*
X0107659Y0097080D01*
X0107671Y0097001D01*
X0107679Y0096923D01*
X0107683Y0096844D01*
X0107683Y0096764D01*
X0107679Y0096685D01*
X0107671Y0096607D01*
X0107659Y0096528D01*
X0107643Y0096451D01*
X0107623Y0096374D01*
X0107600Y0096299D01*
X0107572Y0096224D01*
X0107541Y0096151D01*
X0107507Y0096080D01*
X0107469Y0096011D01*
X0107427Y0095943D01*
X0107382Y0095878D01*
X0107334Y0095815D01*
X0107283Y0095755D01*
X0107229Y0095697D01*
X0107172Y0095642D01*
X0107112Y0095590D01*
X0107050Y0095542D01*
X0106985Y0095496D01*
X0106918Y0095453D01*
X0106849Y0095414D01*
X0106779Y0095379D01*
X0106706Y0095347D01*
X0106632Y0095319D01*
X0106557Y0095294D01*
X0106480Y0095274D01*
X0106403Y0095257D01*
X0106325Y0095244D01*
X0106246Y0095235D01*
X0106167Y0095230D01*
X0106088Y0095229D01*
X0106009Y0095232D01*
X0105930Y0095239D01*
X0105852Y0095250D01*
X0105774Y0095265D01*
X0105697Y0095284D01*
X0105621Y0095306D01*
X0105547Y0095332D01*
X0105473Y0095362D01*
X0105402Y0095396D01*
X0105332Y0095433D01*
X0105264Y0095474D01*
X0105198Y0095518D01*
X0105135Y0095566D01*
X0105074Y0095616D01*
X0105015Y0095670D01*
X0104960Y0095726D01*
X0104907Y0095785D01*
X0104857Y0095847D01*
X0104811Y0095911D01*
X0104768Y0095977D01*
X0104728Y0096045D01*
X0104691Y0096116D01*
X0104659Y0096188D01*
X0104629Y0096261D01*
X0104604Y0096336D01*
X0104582Y0096412D01*
X0104565Y0096489D01*
X0104551Y0096567D01*
X0104541Y0096646D01*
X0104535Y0096725D01*
X0104533Y0096804D01*
D11*
X0119778Y0086646D03*
X0119778Y0079954D03*
X0146675Y0090626D03*
X0146675Y0097319D03*
X0171698Y0093213D03*
X0178390Y0093213D03*
X0178925Y0078750D03*
X0172232Y0078750D03*
X0172232Y0068750D03*
X0178925Y0068750D03*
X0178925Y0058750D03*
X0172232Y0058750D03*
X0172232Y0048750D03*
X0178925Y0048750D03*
X0178925Y0038750D03*
X0172232Y0038750D03*
X0143601Y0036849D03*
X0143601Y0043542D03*
X0172232Y0018750D03*
X0178925Y0018750D03*
X0178925Y0008750D03*
X0172232Y0008750D03*
D12*
X0177528Y0025454D03*
X0177528Y0032146D03*
X0135278Y0036854D03*
X0135278Y0043546D03*
X0154841Y0093256D03*
X0161534Y0093256D03*
D13*
X0156155Y0083926D03*
X0153006Y0083926D03*
X0149856Y0083926D03*
X0146706Y0083926D03*
X0143557Y0083926D03*
X0140407Y0083926D03*
X0137258Y0083926D03*
X0134108Y0083926D03*
X0134108Y0050126D03*
X0137258Y0050126D03*
X0140407Y0050126D03*
X0143557Y0050126D03*
X0146706Y0050126D03*
X0149856Y0050126D03*
X0153006Y0050126D03*
X0156155Y0050126D03*
D14*
X0162032Y0056002D03*
X0162032Y0059152D03*
X0162032Y0062301D03*
X0162032Y0065451D03*
X0162032Y0068600D03*
X0162032Y0071750D03*
X0162032Y0074900D03*
X0162032Y0078049D03*
X0128232Y0078049D03*
X0128232Y0074900D03*
X0128232Y0071750D03*
X0128232Y0068600D03*
X0128232Y0065451D03*
X0128232Y0062301D03*
X0128232Y0059152D03*
X0128232Y0056002D03*
D15*
X0126366Y0046134D02*
X0122366Y0046134D01*
X0122366Y0041134D02*
X0126366Y0041134D01*
X0126366Y0036134D02*
X0122366Y0036134D01*
X0122366Y0031134D02*
X0126366Y0031134D01*
X0126366Y0026134D02*
X0122366Y0026134D01*
X0122366Y0021134D02*
X0126366Y0021134D01*
X0126366Y0016134D02*
X0122366Y0016134D01*
X0122366Y0011134D02*
X0126366Y0011134D01*
D16*
X0128323Y0094526D03*
X0122418Y0094526D03*
X0122371Y0101009D03*
X0128277Y0101009D03*
D17*
X0157279Y0098852D03*
X0177279Y0098852D03*
X0085141Y0083479D03*
X0085141Y0058479D03*
D18*
X0136244Y0018916D03*
X0136244Y0097656D03*
D19*
X0092828Y0078406D03*
X0092828Y0066594D03*
D20*
X0091057Y0088536D03*
X0096962Y0088536D03*
X0108773Y0088536D03*
D21*
X0115163Y0092375D03*
X0085242Y0092375D03*
D22*
X0085439Y0101233D03*
X0114966Y0101233D03*
D23*
X0187578Y0098750D03*
X0187578Y0088750D03*
X0187578Y0078750D03*
X0187578Y0068750D03*
X0187578Y0058750D03*
X0187578Y0048750D03*
X0187578Y0038750D03*
X0187578Y0028750D03*
X0187578Y0018750D03*
X0187578Y0008750D03*
D24*
X0102750Y0080000D03*
X0099207Y0080000D03*
D25*
X0153078Y0040500D03*
D26*
X0166078Y0035000D03*
X0157078Y0017000D03*
X0105578Y0045500D03*
X0091078Y0054500D03*
X0122078Y0059000D03*
X0134578Y0059000D03*
X0145078Y0056000D03*
X0156578Y0065000D03*
X0156578Y0070000D03*
X0156578Y0075000D03*
X0153078Y0078500D03*
X0144578Y0077000D03*
X0136078Y0074875D03*
X0133578Y0078000D03*
X0133453Y0071750D03*
X0136078Y0068500D03*
X0112928Y0083375D03*
X0125453Y0090625D03*
X0119078Y0095500D03*
X0136078Y0089500D03*
X0151578Y0101000D03*
X0166328Y0093625D03*
X0168578Y0085500D03*
X0176078Y0085500D03*
X0167328Y0081000D03*
X0167328Y0076375D03*
X0167078Y0072000D03*
X0167078Y0065375D03*
X0167078Y0060500D03*
X0127578Y0051500D03*
X0100953Y0074125D03*
X0101078Y0092500D03*
X0100203Y0096775D03*
X0090578Y0100500D03*
X0183203Y0093875D03*
X0103578Y0016500D03*
X0098578Y0016500D03*
X0098578Y0008500D03*
X0093078Y0007500D03*
D27*
X0095494Y0007886D02*
X0095494Y0009113D01*
X0095964Y0010247D01*
X0096271Y0010555D01*
X0094126Y0012700D01*
X0092778Y0014047D01*
X0092778Y0056047D01*
X0092626Y0056200D01*
X0087671Y0056200D01*
X0087067Y0055597D01*
X0085818Y0055079D01*
X0084465Y0055079D01*
X0083215Y0055597D01*
X0082619Y0056193D01*
X0082630Y0056112D01*
X0083018Y0055439D01*
X0083690Y0055051D01*
X0084078Y0055000D01*
X0087284Y0055000D01*
X0089373Y0053794D01*
X0089373Y0053794D01*
X0089373Y0053794D01*
X0090578Y0051706D01*
X0090578Y0006500D01*
X0090630Y0006112D01*
X0091018Y0005439D01*
X0091690Y0005051D01*
X0092078Y0005000D01*
X0092700Y0005000D01*
X0116326Y0005000D01*
X0115126Y0006200D01*
X0100640Y0006200D01*
X0100325Y0005885D01*
X0099192Y0005416D01*
X0097965Y0005416D01*
X0096831Y0005885D01*
X0095964Y0006753D01*
X0095494Y0007886D01*
X0095667Y0007470D02*
X0090578Y0007470D01*
X0090582Y0006472D02*
X0096245Y0006472D01*
X0097826Y0005473D02*
X0090998Y0005473D01*
X0090578Y0008469D02*
X0095494Y0008469D01*
X0095641Y0009467D02*
X0090578Y0009467D01*
X0090578Y0010466D02*
X0096182Y0010466D01*
X0095361Y0011464D02*
X0090578Y0011464D01*
X0090578Y0012463D02*
X0094363Y0012463D01*
X0093364Y0013461D02*
X0090578Y0013461D01*
X0090578Y0014460D02*
X0092778Y0014460D01*
X0092778Y0015458D02*
X0090578Y0015458D01*
X0090578Y0016457D02*
X0092778Y0016457D01*
X0092778Y0017455D02*
X0090578Y0017455D01*
X0090578Y0018454D02*
X0092778Y0018454D01*
X0092778Y0019452D02*
X0090578Y0019452D01*
X0090578Y0020451D02*
X0092778Y0020451D01*
X0092778Y0021449D02*
X0090578Y0021449D01*
X0090578Y0022448D02*
X0092778Y0022448D01*
X0092778Y0023446D02*
X0090578Y0023446D01*
X0090578Y0024445D02*
X0092778Y0024445D01*
X0092778Y0025443D02*
X0090578Y0025443D01*
X0090578Y0026442D02*
X0092778Y0026442D01*
X0092778Y0027440D02*
X0090578Y0027440D01*
X0090578Y0028439D02*
X0092778Y0028439D01*
X0092778Y0029437D02*
X0090578Y0029437D01*
X0090578Y0030436D02*
X0092778Y0030436D01*
X0092778Y0031434D02*
X0090578Y0031434D01*
X0090578Y0032433D02*
X0092778Y0032433D01*
X0092778Y0033432D02*
X0090578Y0033432D01*
X0090578Y0034430D02*
X0092778Y0034430D01*
X0092778Y0035429D02*
X0090578Y0035429D01*
X0090578Y0036427D02*
X0092778Y0036427D01*
X0092778Y0037426D02*
X0090578Y0037426D01*
X0090578Y0038424D02*
X0092778Y0038424D01*
X0092778Y0039423D02*
X0090578Y0039423D01*
X0090578Y0040421D02*
X0092778Y0040421D01*
X0092778Y0041420D02*
X0090578Y0041420D01*
X0090578Y0042418D02*
X0092778Y0042418D01*
X0092778Y0043417D02*
X0090578Y0043417D01*
X0090578Y0044415D02*
X0092778Y0044415D01*
X0092778Y0045414D02*
X0090578Y0045414D01*
X0090578Y0046412D02*
X0092778Y0046412D01*
X0092778Y0047411D02*
X0090578Y0047411D01*
X0090578Y0048409D02*
X0092778Y0048409D01*
X0092778Y0049408D02*
X0090578Y0049408D01*
X0090578Y0050406D02*
X0092778Y0050406D01*
X0092778Y0051405D02*
X0090578Y0051405D01*
X0090176Y0052403D02*
X0092778Y0052403D01*
X0092778Y0053402D02*
X0089599Y0053402D01*
X0088323Y0054400D02*
X0092778Y0054400D01*
X0092778Y0055399D02*
X0086590Y0055399D01*
X0083693Y0055399D02*
X0083088Y0055399D01*
X0087629Y0060800D02*
X0087378Y0061050D01*
X0087378Y0075547D01*
X0087937Y0076106D01*
X0088573Y0076106D01*
X0088573Y0074635D01*
X0089451Y0073756D01*
X0096206Y0073756D01*
X0097084Y0074635D01*
X0097084Y0076251D01*
X0097335Y0076000D01*
X0102278Y0076000D01*
X0102278Y0065953D01*
X0096278Y0059953D01*
X0096278Y0059053D01*
X0095878Y0059453D01*
X0094531Y0060800D01*
X0087629Y0060800D01*
X0087378Y0061390D02*
X0097716Y0061390D01*
X0098714Y0062388D02*
X0096649Y0062388D01*
X0096785Y0062524D02*
X0096505Y0062245D01*
X0096163Y0062047D01*
X0095782Y0061945D01*
X0093328Y0061945D01*
X0093328Y0066094D01*
X0092328Y0066094D01*
X0092328Y0061945D01*
X0089875Y0061945D01*
X0089494Y0062047D01*
X0089151Y0062245D01*
X0088872Y0062524D01*
X0088675Y0062866D01*
X0088573Y0063247D01*
X0088573Y0066095D01*
X0092328Y0066095D01*
X0092328Y0067094D01*
X0088573Y0067094D01*
X0088573Y0069942D01*
X0088675Y0070323D01*
X0088872Y0070665D01*
X0089151Y0070944D01*
X0089494Y0071142D01*
X0089875Y0071244D01*
X0092328Y0071244D01*
X0092328Y0067095D01*
X0093328Y0067095D01*
X0093328Y0071244D01*
X0095782Y0071244D01*
X0096163Y0071142D01*
X0096505Y0070944D01*
X0096785Y0070665D01*
X0096982Y0070323D01*
X0097084Y0069942D01*
X0097084Y0067094D01*
X0093328Y0067094D01*
X0093328Y0066095D01*
X0097084Y0066095D01*
X0097084Y0063247D01*
X0096982Y0062866D01*
X0096785Y0062524D01*
X0097084Y0063387D02*
X0099713Y0063387D01*
X0100711Y0064385D02*
X0097084Y0064385D01*
X0097084Y0065384D02*
X0101710Y0065384D01*
X0102278Y0066382D02*
X0093328Y0066382D01*
X0093328Y0065384D02*
X0092328Y0065384D01*
X0092328Y0066382D02*
X0087378Y0066382D01*
X0087378Y0065384D02*
X0088573Y0065384D01*
X0088573Y0064385D02*
X0087378Y0064385D01*
X0087378Y0063387D02*
X0088573Y0063387D01*
X0089008Y0062388D02*
X0087378Y0062388D01*
X0092328Y0062388D02*
X0093328Y0062388D01*
X0093328Y0063387D02*
X0092328Y0063387D01*
X0092328Y0064385D02*
X0093328Y0064385D01*
X0093328Y0067381D02*
X0092328Y0067381D01*
X0092328Y0068379D02*
X0093328Y0068379D01*
X0093328Y0069378D02*
X0092328Y0069378D01*
X0092328Y0070376D02*
X0093328Y0070376D01*
X0096951Y0070376D02*
X0102278Y0070376D01*
X0102278Y0069378D02*
X0097084Y0069378D01*
X0097084Y0068379D02*
X0102278Y0068379D01*
X0102278Y0067381D02*
X0097084Y0067381D01*
X0102278Y0071375D02*
X0087378Y0071375D01*
X0087378Y0072373D02*
X0102278Y0072373D01*
X0102278Y0073372D02*
X0087378Y0073372D01*
X0087378Y0074370D02*
X0088837Y0074370D01*
X0088573Y0075369D02*
X0087378Y0075369D01*
X0087378Y0070376D02*
X0088706Y0070376D01*
X0088573Y0069378D02*
X0087378Y0069378D01*
X0087378Y0068379D02*
X0088573Y0068379D01*
X0088573Y0067381D02*
X0087378Y0067381D01*
X0094940Y0060391D02*
X0096717Y0060391D01*
X0096278Y0059393D02*
X0095938Y0059393D01*
X0100878Y0058047D02*
X0105531Y0062700D01*
X0106878Y0064047D01*
X0106878Y0077200D01*
X0108531Y0077200D01*
X0109878Y0078547D01*
X0110878Y0079547D01*
X0110878Y0083099D01*
X0110969Y0083099D01*
X0111848Y0083978D01*
X0111848Y0084846D01*
X0113926Y0084846D01*
X0116310Y0084837D01*
X0116310Y0083860D01*
X0116870Y0083300D01*
X0116610Y0083040D01*
X0116412Y0082698D01*
X0116310Y0082316D01*
X0116310Y0080438D01*
X0119294Y0080438D01*
X0119294Y0079469D01*
X0120263Y0079469D01*
X0120263Y0080438D01*
X0123247Y0080438D01*
X0123247Y0082316D01*
X0123145Y0082698D01*
X0122947Y0083040D01*
X0122687Y0083300D01*
X0123247Y0083860D01*
X0123247Y0084834D01*
X0127711Y0084846D01*
X0128658Y0084845D01*
X0128663Y0084849D01*
X0128669Y0084849D01*
X0129337Y0085521D01*
X0133687Y0089856D01*
X0134359Y0090501D01*
X0134359Y0090526D01*
X0134377Y0090543D01*
X0134378Y0091156D01*
X0138937Y0091156D01*
X0142744Y0094963D01*
X0142744Y0100348D01*
X0140592Y0102500D01*
X0184257Y0102500D01*
X0182578Y0100821D01*
X0182578Y0099250D01*
X0187078Y0099250D01*
X0187078Y0098250D01*
X0182578Y0098250D01*
X0182578Y0096679D01*
X0185507Y0093750D01*
X0183057Y0091300D01*
X0181859Y0091300D01*
X0181859Y0095999D01*
X0180980Y0096878D01*
X0180113Y0096878D01*
X0180161Y0096926D01*
X0180679Y0098176D01*
X0180679Y0099528D01*
X0180161Y0100778D01*
X0179205Y0101734D01*
X0177955Y0102252D01*
X0176603Y0102252D01*
X0175353Y0101734D01*
X0174397Y0100778D01*
X0173879Y0099528D01*
X0173879Y0098176D01*
X0174397Y0096926D01*
X0174979Y0096344D01*
X0174979Y0096186D01*
X0174287Y0096878D01*
X0169108Y0096878D01*
X0168272Y0096043D01*
X0168075Y0096240D01*
X0166942Y0096709D01*
X0165715Y0096709D01*
X0164739Y0096305D01*
X0164320Y0096724D01*
X0159959Y0096724D01*
X0160161Y0096926D01*
X0160679Y0098176D01*
X0160679Y0099528D01*
X0160161Y0100778D01*
X0159205Y0101734D01*
X0157955Y0102252D01*
X0156603Y0102252D01*
X0155353Y0101734D01*
X0154397Y0100778D01*
X0153879Y0099528D01*
X0153879Y0099254D01*
X0152953Y0098328D01*
X0152953Y0096724D01*
X0152054Y0096724D01*
X0151175Y0095845D01*
X0151175Y0092156D01*
X0150405Y0092926D01*
X0150143Y0092926D01*
X0150143Y0093413D01*
X0149584Y0093972D01*
X0149844Y0094233D01*
X0150041Y0094575D01*
X0150143Y0094956D01*
X0150143Y0096835D01*
X0147159Y0096835D01*
X0147159Y0097803D01*
X0150143Y0097803D01*
X0150143Y0099682D01*
X0150041Y0100063D01*
X0149844Y0100405D01*
X0149564Y0100685D01*
X0149222Y0100882D01*
X0148841Y0100984D01*
X0147159Y0100984D01*
X0147159Y0097803D01*
X0146191Y0097803D01*
X0146191Y0100984D01*
X0144509Y0100984D01*
X0144127Y0100882D01*
X0143785Y0100685D01*
X0143506Y0100405D01*
X0143309Y0100063D01*
X0143206Y0099682D01*
X0143206Y0097803D01*
X0146191Y0097803D01*
X0146191Y0096835D01*
X0143206Y0096835D01*
X0143206Y0094956D01*
X0143309Y0094575D01*
X0143506Y0094233D01*
X0143766Y0093972D01*
X0143206Y0093413D01*
X0143206Y0092800D01*
X0143126Y0092800D01*
X0141778Y0091453D01*
X0138251Y0087926D01*
X0132387Y0087926D01*
X0131508Y0087047D01*
X0131508Y0080804D01*
X0131764Y0080548D01*
X0131609Y0080393D01*
X0131353Y0080649D01*
X0125110Y0080649D01*
X0124232Y0079771D01*
X0124232Y0067451D01*
X0117201Y0067451D01*
X0109250Y0059500D01*
X0108078Y0058328D01*
X0108078Y0036172D01*
X0112578Y0031672D01*
X0112578Y0021172D01*
X0113078Y0020672D01*
X0114250Y0019500D01*
X0119254Y0019500D01*
X0119399Y0019151D01*
X0119916Y0018634D01*
X0119647Y0018365D01*
X0119264Y0017792D01*
X0119000Y0017155D01*
X0118866Y0016479D01*
X0118866Y0016134D01*
X0122366Y0016134D01*
X0122366Y0016134D01*
X0118866Y0016134D01*
X0118866Y0015789D01*
X0119000Y0015113D01*
X0119264Y0014476D01*
X0119647Y0013903D01*
X0119916Y0013634D01*
X0119807Y0013524D01*
X0119588Y0013743D01*
X0118907Y0014425D01*
X0118907Y0014425D01*
X0118906Y0014425D01*
X0117962Y0014425D01*
X0100873Y0014433D01*
X0101193Y0014753D01*
X0101663Y0015886D01*
X0101663Y0017113D01*
X0101193Y0018247D01*
X0100878Y0018562D01*
X0100878Y0058047D01*
X0101225Y0058394D02*
X0108144Y0058394D01*
X0108078Y0057396D02*
X0100878Y0057396D01*
X0100878Y0056397D02*
X0108078Y0056397D01*
X0108078Y0055399D02*
X0100878Y0055399D01*
X0100878Y0054400D02*
X0108078Y0054400D01*
X0108078Y0053402D02*
X0100878Y0053402D01*
X0100878Y0052403D02*
X0108078Y0052403D01*
X0108078Y0051405D02*
X0100878Y0051405D01*
X0100878Y0050406D02*
X0108078Y0050406D01*
X0108078Y0049408D02*
X0100878Y0049408D01*
X0100878Y0048409D02*
X0108078Y0048409D01*
X0108078Y0047411D02*
X0100878Y0047411D01*
X0100878Y0046412D02*
X0108078Y0046412D01*
X0108078Y0045414D02*
X0100878Y0045414D01*
X0100878Y0044415D02*
X0108078Y0044415D01*
X0108078Y0043417D02*
X0100878Y0043417D01*
X0100878Y0042418D02*
X0108078Y0042418D01*
X0108078Y0041420D02*
X0100878Y0041420D01*
X0100878Y0040421D02*
X0108078Y0040421D01*
X0108078Y0039423D02*
X0100878Y0039423D01*
X0100878Y0038424D02*
X0108078Y0038424D01*
X0108078Y0037426D02*
X0100878Y0037426D01*
X0100878Y0036427D02*
X0108078Y0036427D01*
X0108821Y0035429D02*
X0100878Y0035429D01*
X0100878Y0034430D02*
X0109820Y0034430D01*
X0110818Y0033432D02*
X0100878Y0033432D01*
X0100878Y0032433D02*
X0111817Y0032433D01*
X0112578Y0031434D02*
X0100878Y0031434D01*
X0100878Y0030436D02*
X0112578Y0030436D01*
X0112578Y0029437D02*
X0100878Y0029437D01*
X0100878Y0028439D02*
X0112578Y0028439D01*
X0112578Y0027440D02*
X0100878Y0027440D01*
X0100878Y0026442D02*
X0112578Y0026442D01*
X0112578Y0025443D02*
X0100878Y0025443D01*
X0100878Y0024445D02*
X0112578Y0024445D01*
X0112578Y0023446D02*
X0100878Y0023446D01*
X0100878Y0022448D02*
X0112578Y0022448D01*
X0112578Y0021449D02*
X0100878Y0021449D01*
X0100878Y0020451D02*
X0113299Y0020451D01*
X0114578Y0022000D02*
X0115078Y0021500D01*
X0122232Y0021500D01*
X0122366Y0021134D01*
X0119274Y0019452D02*
X0100878Y0019452D01*
X0100986Y0018454D02*
X0119736Y0018454D01*
X0119125Y0017455D02*
X0101521Y0017455D01*
X0101663Y0016457D02*
X0118866Y0016457D01*
X0118932Y0015458D02*
X0101485Y0015458D01*
X0100900Y0014460D02*
X0119275Y0014460D01*
X0128816Y0013634D02*
X0129084Y0013903D01*
X0129467Y0014476D01*
X0129731Y0015113D01*
X0129866Y0015789D01*
X0129866Y0016102D01*
X0133552Y0012416D01*
X0135744Y0012416D01*
X0135744Y0018415D01*
X0136744Y0018415D01*
X0136744Y0012416D01*
X0138937Y0012416D01*
X0142744Y0016223D01*
X0142744Y0018416D01*
X0136744Y0018416D01*
X0136744Y0019416D01*
X0135744Y0019416D01*
X0135744Y0025416D01*
X0133552Y0025416D01*
X0129866Y0021729D01*
X0129866Y0021830D01*
X0129333Y0023116D01*
X0128816Y0023634D01*
X0129333Y0024151D01*
X0129866Y0025438D01*
X0129866Y0025959D01*
X0136107Y0032200D01*
X0137278Y0033372D01*
X0137278Y0033385D01*
X0138065Y0033385D01*
X0138944Y0034264D01*
X0138944Y0039443D01*
X0138187Y0040200D01*
X0138944Y0040957D01*
X0138944Y0045937D01*
X0139132Y0046126D01*
X0140132Y0046126D01*
X0140132Y0040755D01*
X0140692Y0040196D01*
X0140432Y0039936D01*
X0140235Y0039594D01*
X0140132Y0039212D01*
X0140132Y0037333D01*
X0143117Y0037333D01*
X0143117Y0036365D01*
X0144085Y0036365D01*
X0144085Y0033184D01*
X0145767Y0033184D01*
X0146148Y0033286D01*
X0146490Y0033484D01*
X0146770Y0033763D01*
X0146967Y0034105D01*
X0147069Y0034486D01*
X0147069Y0036365D01*
X0144085Y0036365D01*
X0144085Y0037333D01*
X0147069Y0037333D01*
X0147069Y0039212D01*
X0146967Y0039594D01*
X0146770Y0039936D01*
X0146510Y0040196D01*
X0147069Y0040755D01*
X0147069Y0046126D01*
X0148004Y0046126D01*
X0148107Y0046153D01*
X0148135Y0046126D01*
X0157877Y0046126D01*
X0158755Y0047004D01*
X0158755Y0053247D01*
X0157877Y0054126D01*
X0148135Y0054126D01*
X0148107Y0054098D01*
X0148004Y0054126D01*
X0146756Y0054126D01*
X0146756Y0050176D01*
X0146656Y0050176D01*
X0146656Y0054126D01*
X0145409Y0054126D01*
X0145306Y0054098D01*
X0145278Y0054126D01*
X0141832Y0054126D01*
X0142253Y0054547D01*
X0142707Y0055001D01*
X0142707Y0079926D01*
X0143507Y0079926D01*
X0143507Y0083876D01*
X0143607Y0083876D01*
X0143607Y0079926D01*
X0144854Y0079926D01*
X0144957Y0079953D01*
X0144985Y0079926D01*
X0148428Y0079926D01*
X0148455Y0079953D01*
X0148558Y0079926D01*
X0149806Y0079926D01*
X0149806Y0083876D01*
X0149906Y0083876D01*
X0149906Y0079926D01*
X0150331Y0079926D01*
X0149994Y0079113D01*
X0149994Y0077886D01*
X0150464Y0076753D01*
X0151331Y0075885D01*
X0152465Y0075416D01*
X0153494Y0075416D01*
X0153494Y0074386D01*
X0153964Y0073253D01*
X0154717Y0072500D01*
X0153964Y0071747D01*
X0153494Y0070613D01*
X0153494Y0069386D01*
X0153964Y0068253D01*
X0154831Y0067385D01*
X0155965Y0066916D01*
X0156834Y0066916D01*
X0157150Y0066600D01*
X0158032Y0066600D01*
X0158032Y0054281D01*
X0158910Y0053402D01*
X0165153Y0053402D01*
X0166032Y0054281D01*
X0166032Y0057595D01*
X0166465Y0057416D01*
X0167692Y0057416D01*
X0168763Y0057860D01*
X0168763Y0055963D01*
X0169642Y0055085D01*
X0169932Y0055085D01*
X0169932Y0052415D01*
X0169642Y0052415D01*
X0168763Y0051537D01*
X0168763Y0045963D01*
X0169642Y0045085D01*
X0169932Y0045085D01*
X0169932Y0042415D01*
X0169642Y0042415D01*
X0168763Y0041537D01*
X0168763Y0035963D01*
X0169642Y0035085D01*
X0171078Y0035085D01*
X0171078Y0022415D01*
X0169642Y0022415D01*
X0168763Y0021537D01*
X0168763Y0015963D01*
X0169642Y0015085D01*
X0169932Y0015085D01*
X0169932Y0012415D01*
X0169642Y0012415D01*
X0168763Y0011537D01*
X0168763Y0010300D01*
X0163531Y0010300D01*
X0163378Y0010453D01*
X0163378Y0019453D01*
X0162031Y0020800D01*
X0160031Y0022800D01*
X0154126Y0022800D01*
X0152778Y0021453D01*
X0150778Y0019453D01*
X0150778Y0016800D01*
X0145626Y0016800D01*
X0144278Y0015453D01*
X0140126Y0011300D01*
X0132031Y0011300D01*
X0129897Y0013434D01*
X0129016Y0013434D01*
X0128816Y0013634D01*
X0128988Y0013461D02*
X0132506Y0013461D01*
X0133505Y0012463D02*
X0130868Y0012463D01*
X0131867Y0011464D02*
X0140290Y0011464D01*
X0141289Y0012463D02*
X0138984Y0012463D01*
X0139983Y0013461D02*
X0142287Y0013461D01*
X0143286Y0014460D02*
X0140981Y0014460D01*
X0141980Y0015458D02*
X0144284Y0015458D01*
X0145283Y0016457D02*
X0142744Y0016457D01*
X0142744Y0017455D02*
X0150778Y0017455D01*
X0150778Y0018454D02*
X0136744Y0018454D01*
X0136744Y0019416D02*
X0142744Y0019416D01*
X0142744Y0021608D01*
X0138937Y0025416D01*
X0136744Y0025416D01*
X0136744Y0019416D01*
X0136744Y0019452D02*
X0135744Y0019452D01*
X0135744Y0019416D02*
X0135744Y0018416D01*
X0129744Y0018416D01*
X0129744Y0017089D01*
X0129731Y0017155D01*
X0129467Y0017792D01*
X0129084Y0018365D01*
X0128816Y0018634D01*
X0129333Y0019151D01*
X0129744Y0020145D01*
X0129744Y0019416D01*
X0135744Y0019416D01*
X0135744Y0018454D02*
X0128996Y0018454D01*
X0129458Y0019452D02*
X0129744Y0019452D01*
X0129744Y0017455D02*
X0129607Y0017455D01*
X0129800Y0015458D02*
X0130509Y0015458D01*
X0131508Y0014460D02*
X0129457Y0014460D01*
X0135744Y0014460D02*
X0136744Y0014460D01*
X0136744Y0015458D02*
X0135744Y0015458D01*
X0135744Y0016457D02*
X0136744Y0016457D01*
X0136744Y0017455D02*
X0135744Y0017455D01*
X0135744Y0020451D02*
X0136744Y0020451D01*
X0136744Y0021449D02*
X0135744Y0021449D01*
X0135744Y0022448D02*
X0136744Y0022448D01*
X0136744Y0023446D02*
X0135744Y0023446D01*
X0135744Y0024445D02*
X0136744Y0024445D01*
X0139907Y0024445D02*
X0171078Y0024445D01*
X0171078Y0025443D02*
X0129866Y0025443D01*
X0129455Y0024445D02*
X0132581Y0024445D01*
X0131583Y0023446D02*
X0129003Y0023446D01*
X0129610Y0022448D02*
X0130584Y0022448D01*
X0130349Y0026442D02*
X0171078Y0026442D01*
X0171078Y0027440D02*
X0131347Y0027440D01*
X0132346Y0028439D02*
X0171078Y0028439D01*
X0171078Y0029437D02*
X0133344Y0029437D01*
X0134343Y0030436D02*
X0171078Y0030436D01*
X0171078Y0031434D02*
X0135341Y0031434D01*
X0136107Y0032200D02*
X0136107Y0032200D01*
X0136340Y0032433D02*
X0171078Y0032433D01*
X0171078Y0033432D02*
X0146400Y0033432D01*
X0147054Y0034430D02*
X0171078Y0034430D01*
X0169298Y0035429D02*
X0155502Y0035429D01*
X0155274Y0035200D02*
X0158378Y0038305D01*
X0158378Y0042695D01*
X0155274Y0045800D01*
X0150883Y0045800D01*
X0147778Y0042695D01*
X0147778Y0038305D01*
X0150883Y0035200D01*
X0155274Y0035200D01*
X0156501Y0036427D02*
X0168763Y0036427D01*
X0168763Y0037426D02*
X0157499Y0037426D01*
X0158378Y0038424D02*
X0168763Y0038424D01*
X0168763Y0039423D02*
X0158378Y0039423D01*
X0158378Y0040421D02*
X0168763Y0040421D01*
X0168763Y0041420D02*
X0158378Y0041420D01*
X0158378Y0042418D02*
X0169932Y0042418D01*
X0169932Y0043417D02*
X0157657Y0043417D01*
X0156659Y0044415D02*
X0169932Y0044415D01*
X0169313Y0045414D02*
X0155660Y0045414D01*
X0158163Y0046412D02*
X0168763Y0046412D01*
X0168763Y0047411D02*
X0158755Y0047411D01*
X0158755Y0048409D02*
X0168763Y0048409D01*
X0168763Y0049408D02*
X0158755Y0049408D01*
X0158755Y0050406D02*
X0168763Y0050406D01*
X0168763Y0051405D02*
X0158755Y0051405D01*
X0158755Y0052403D02*
X0169630Y0052403D01*
X0169932Y0053402D02*
X0158600Y0053402D01*
X0158032Y0054400D02*
X0142106Y0054400D01*
X0142707Y0055399D02*
X0158032Y0055399D01*
X0158032Y0056397D02*
X0142707Y0056397D01*
X0142707Y0057396D02*
X0158032Y0057396D01*
X0158032Y0058394D02*
X0142707Y0058394D01*
X0142707Y0059393D02*
X0158032Y0059393D01*
X0158032Y0060391D02*
X0142707Y0060391D01*
X0142707Y0061390D02*
X0158032Y0061390D01*
X0158032Y0062388D02*
X0142707Y0062388D01*
X0142707Y0063387D02*
X0158032Y0063387D01*
X0158032Y0064385D02*
X0142707Y0064385D01*
X0142707Y0065384D02*
X0158032Y0065384D01*
X0158032Y0066382D02*
X0142707Y0066382D01*
X0142707Y0067381D02*
X0154842Y0067381D01*
X0153911Y0068379D02*
X0142707Y0068379D01*
X0142707Y0069378D02*
X0153498Y0069378D01*
X0153494Y0070376D02*
X0142707Y0070376D01*
X0142707Y0071375D02*
X0153810Y0071375D01*
X0154590Y0072373D02*
X0142707Y0072373D01*
X0142707Y0073372D02*
X0153914Y0073372D01*
X0153501Y0074370D02*
X0142707Y0074370D01*
X0142707Y0075369D02*
X0153494Y0075369D01*
X0150849Y0076368D02*
X0142707Y0076368D01*
X0142707Y0077366D02*
X0150210Y0077366D01*
X0149994Y0078365D02*
X0142707Y0078365D01*
X0142707Y0079363D02*
X0150098Y0079363D01*
X0149906Y0080362D02*
X0149806Y0080362D01*
X0149806Y0081360D02*
X0149906Y0081360D01*
X0149906Y0082359D02*
X0149806Y0082359D01*
X0149806Y0083357D02*
X0149906Y0083357D01*
X0153006Y0083926D02*
X0153006Y0079427D01*
X0153078Y0078500D01*
X0156578Y0075000D02*
X0156679Y0074900D01*
X0162032Y0074900D01*
X0162282Y0072000D02*
X0162032Y0071750D01*
X0162282Y0072000D02*
X0167078Y0072000D01*
X0167328Y0076375D02*
X0166029Y0078049D01*
X0162032Y0078049D01*
X0161982Y0078000D01*
X0159028Y0081051D02*
X0167328Y0081000D01*
X0164981Y0083014D02*
X0159862Y0083046D01*
X0158755Y0084153D01*
X0158755Y0086700D01*
X0169932Y0086700D01*
X0169932Y0082758D01*
X0169075Y0083615D01*
X0167942Y0084084D01*
X0166715Y0084084D01*
X0165581Y0083615D01*
X0164981Y0083014D01*
X0165324Y0083357D02*
X0159550Y0083357D01*
X0158755Y0084356D02*
X0169932Y0084356D01*
X0169932Y0085354D02*
X0158755Y0085354D01*
X0158755Y0086353D02*
X0169932Y0086353D01*
X0169932Y0083357D02*
X0169333Y0083357D01*
X0174532Y0083357D02*
X0185114Y0083357D01*
X0185507Y0083750D02*
X0182578Y0080821D01*
X0182578Y0080750D01*
X0182393Y0080750D01*
X0182393Y0081537D01*
X0181515Y0082415D01*
X0176335Y0082415D01*
X0175578Y0081659D01*
X0174822Y0082415D01*
X0174532Y0082415D01*
X0174532Y0086700D01*
X0182578Y0086700D01*
X0182578Y0086679D01*
X0185507Y0083750D01*
X0189649Y0083750D01*
X0191578Y0081821D01*
X0191578Y0085679D01*
X0189649Y0083750D01*
X0185507Y0083750D01*
X0184902Y0084356D02*
X0174532Y0084356D01*
X0174532Y0085354D02*
X0183903Y0085354D01*
X0182905Y0086353D02*
X0174532Y0086353D01*
X0174879Y0082359D02*
X0176278Y0082359D01*
X0178925Y0078750D02*
X0187578Y0078750D01*
X0184116Y0082359D02*
X0181571Y0082359D01*
X0182393Y0081360D02*
X0183117Y0081360D01*
X0190042Y0083357D02*
X0191578Y0083357D01*
X0191578Y0082359D02*
X0191041Y0082359D01*
X0191578Y0084356D02*
X0190255Y0084356D01*
X0191254Y0085354D02*
X0191578Y0085354D01*
X0183103Y0091345D02*
X0181859Y0091345D01*
X0181859Y0092344D02*
X0184101Y0092344D01*
X0185100Y0093342D02*
X0181859Y0093342D01*
X0181859Y0094341D02*
X0184917Y0094341D01*
X0185507Y0093750D02*
X0187078Y0093750D01*
X0187078Y0098250D01*
X0188078Y0098250D01*
X0188078Y0093750D01*
X0189649Y0093750D01*
X0185507Y0093750D01*
X0187078Y0094341D02*
X0188078Y0094341D01*
X0188078Y0095339D02*
X0187078Y0095339D01*
X0187078Y0096338D02*
X0188078Y0096338D01*
X0188078Y0097336D02*
X0187078Y0097336D01*
X0187078Y0098335D02*
X0180679Y0098335D01*
X0180679Y0099333D02*
X0182578Y0099333D01*
X0182578Y0100332D02*
X0180346Y0100332D01*
X0179609Y0101330D02*
X0183088Y0101330D01*
X0184086Y0102329D02*
X0140764Y0102329D01*
X0141762Y0101330D02*
X0154949Y0101330D01*
X0154212Y0100332D02*
X0149886Y0100332D01*
X0150143Y0099333D02*
X0153879Y0099333D01*
X0152960Y0098335D02*
X0150143Y0098335D01*
X0150143Y0096338D02*
X0151668Y0096338D01*
X0151175Y0095339D02*
X0150143Y0095339D01*
X0149906Y0094341D02*
X0151175Y0094341D01*
X0151175Y0093342D02*
X0150143Y0093342D01*
X0150987Y0092344D02*
X0151175Y0092344D01*
X0154841Y0093256D02*
X0154953Y0093368D01*
X0154953Y0097500D01*
X0156305Y0098852D01*
X0157279Y0098852D01*
X0160346Y0100332D02*
X0174212Y0100332D01*
X0173879Y0099333D02*
X0160679Y0099333D01*
X0160679Y0098335D02*
X0173879Y0098335D01*
X0174227Y0097336D02*
X0160331Y0097336D01*
X0164707Y0096338D02*
X0164818Y0096338D01*
X0167839Y0096338D02*
X0168567Y0096338D01*
X0166328Y0093625D02*
X0161914Y0093625D01*
X0161534Y0093256D01*
X0161578Y0093711D01*
X0166328Y0093625D02*
X0171116Y0093713D01*
X0171698Y0093213D01*
X0174828Y0096338D02*
X0174979Y0096338D01*
X0180331Y0097336D02*
X0182578Y0097336D01*
X0182920Y0096338D02*
X0181520Y0096338D01*
X0181859Y0095339D02*
X0183918Y0095339D01*
X0189649Y0093750D02*
X0191578Y0091821D01*
X0191578Y0095679D01*
X0189649Y0093750D01*
X0190057Y0093342D02*
X0191578Y0093342D01*
X0191578Y0092344D02*
X0191056Y0092344D01*
X0191578Y0094341D02*
X0190240Y0094341D01*
X0191239Y0095339D02*
X0191578Y0095339D01*
X0174949Y0101330D02*
X0159609Y0101330D01*
X0152953Y0097336D02*
X0147159Y0097336D01*
X0146191Y0097336D02*
X0142744Y0097336D01*
X0142744Y0096338D02*
X0143206Y0096338D01*
X0143206Y0095339D02*
X0142744Y0095339D01*
X0142122Y0094341D02*
X0143444Y0094341D01*
X0143206Y0093342D02*
X0141123Y0093342D01*
X0140125Y0092344D02*
X0142669Y0092344D01*
X0141671Y0091345D02*
X0139126Y0091345D01*
X0140672Y0090347D02*
X0134198Y0090347D01*
X0133177Y0089348D02*
X0139674Y0089348D01*
X0138675Y0088350D02*
X0132175Y0088350D01*
X0131812Y0087351D02*
X0131173Y0087351D01*
X0131508Y0086353D02*
X0130171Y0086353D01*
X0129171Y0085354D02*
X0131508Y0085354D01*
X0131508Y0084356D02*
X0123247Y0084356D01*
X0122744Y0083357D02*
X0131508Y0083357D01*
X0131508Y0082359D02*
X0123236Y0082359D01*
X0123247Y0081360D02*
X0131508Y0081360D01*
X0133529Y0078049D02*
X0128232Y0078049D01*
X0128232Y0074900D02*
X0133554Y0074900D01*
X0136078Y0074875D01*
X0133578Y0078000D02*
X0133529Y0078049D01*
X0124823Y0080362D02*
X0120263Y0080362D01*
X0120263Y0079469D02*
X0123247Y0079469D01*
X0123247Y0077591D01*
X0123145Y0077209D01*
X0122947Y0076867D01*
X0122668Y0076588D01*
X0122326Y0076390D01*
X0121944Y0076288D01*
X0120263Y0076288D01*
X0120263Y0079469D01*
X0120263Y0079363D02*
X0119294Y0079363D01*
X0119294Y0079469D02*
X0119294Y0076288D01*
X0117612Y0076288D01*
X0117231Y0076390D01*
X0116889Y0076588D01*
X0116610Y0076867D01*
X0116412Y0077209D01*
X0116310Y0077591D01*
X0116310Y0079469D01*
X0119294Y0079469D01*
X0119294Y0080362D02*
X0110878Y0080362D01*
X0110878Y0081360D02*
X0116310Y0081360D01*
X0116321Y0082359D02*
X0110878Y0082359D01*
X0111227Y0083357D02*
X0116813Y0083357D01*
X0116310Y0084356D02*
X0111848Y0084356D01*
X0106278Y0083398D02*
X0106278Y0081800D01*
X0105500Y0081800D01*
X0105500Y0083121D01*
X0104621Y0084000D01*
X0100037Y0084000D01*
X0100037Y0089593D01*
X0100465Y0089416D01*
X0101692Y0089416D01*
X0102825Y0089885D01*
X0103693Y0090753D01*
X0104163Y0091886D01*
X0104163Y0093113D01*
X0103693Y0094247D01*
X0102825Y0095115D01*
X0101692Y0095584D01*
X0100465Y0095584D01*
X0099331Y0095115D01*
X0098717Y0094500D01*
X0097750Y0094500D01*
X0097223Y0093973D01*
X0095498Y0093973D01*
X0096039Y0094197D01*
X0096904Y0095062D01*
X0097372Y0096192D01*
X0097372Y0097416D01*
X0096904Y0098546D01*
X0096039Y0099411D01*
X0094909Y0099879D01*
X0093685Y0099879D01*
X0093654Y0099866D01*
X0093663Y0099886D01*
X0093663Y0100500D01*
X0109578Y0100500D01*
X0109578Y0097672D01*
X0110078Y0097172D01*
X0111250Y0096000D01*
X0115994Y0096000D01*
X0115994Y0095450D01*
X0112770Y0095450D01*
X0111891Y0094571D01*
X0111891Y0090179D01*
X0112624Y0089446D01*
X0111848Y0089446D01*
X0111848Y0093095D01*
X0110969Y0093973D01*
X0107309Y0093973D01*
X0107850Y0094197D01*
X0108715Y0095062D01*
X0109183Y0096192D01*
X0109183Y0097416D01*
X0108715Y0098546D01*
X0107850Y0099411D01*
X0106720Y0099879D01*
X0105496Y0099879D01*
X0104366Y0099411D01*
X0103501Y0098546D01*
X0103033Y0097416D01*
X0103033Y0096192D01*
X0103501Y0095062D01*
X0104366Y0094197D01*
X0105496Y0093729D01*
X0106333Y0093729D01*
X0105698Y0093095D01*
X0105698Y0083978D01*
X0106278Y0083398D01*
X0106278Y0083357D02*
X0105264Y0083357D01*
X0105500Y0082359D02*
X0106278Y0082359D01*
X0105698Y0084356D02*
X0100037Y0084356D01*
X0100037Y0085354D02*
X0105698Y0085354D01*
X0105698Y0086353D02*
X0100037Y0086353D01*
X0100037Y0087351D02*
X0105698Y0087351D01*
X0105698Y0088350D02*
X0100037Y0088350D01*
X0100037Y0089348D02*
X0105698Y0089348D01*
X0105698Y0090347D02*
X0103287Y0090347D01*
X0103938Y0091345D02*
X0105698Y0091345D01*
X0105698Y0092344D02*
X0104163Y0092344D01*
X0104068Y0093342D02*
X0105946Y0093342D01*
X0104223Y0094341D02*
X0103599Y0094341D01*
X0103387Y0095339D02*
X0102283Y0095339D01*
X0103033Y0096338D02*
X0097372Y0096338D01*
X0097372Y0097336D02*
X0103033Y0097336D01*
X0103414Y0098335D02*
X0096991Y0098335D01*
X0096116Y0099333D02*
X0104289Y0099333D01*
X0107927Y0099333D02*
X0109578Y0099333D01*
X0109578Y0098335D02*
X0108802Y0098335D01*
X0109183Y0097336D02*
X0109914Y0097336D01*
X0109183Y0096338D02*
X0110912Y0096338D01*
X0112660Y0095339D02*
X0108829Y0095339D01*
X0107993Y0094341D02*
X0111891Y0094341D01*
X0111891Y0093342D02*
X0111600Y0093342D01*
X0111848Y0092344D02*
X0111891Y0092344D01*
X0111848Y0091345D02*
X0111891Y0091345D01*
X0111848Y0090347D02*
X0111891Y0090347D01*
X0118435Y0090347D02*
X0127663Y0090347D01*
X0128036Y0091451D02*
X0126551Y0091451D01*
X0126169Y0091553D01*
X0125827Y0091751D01*
X0125548Y0092030D01*
X0125418Y0092255D01*
X0124614Y0091451D01*
X0120222Y0091451D01*
X0119343Y0092330D01*
X0119343Y0092416D01*
X0118465Y0092416D01*
X0118435Y0092428D01*
X0118435Y0090312D01*
X0122368Y0090312D01*
X0123246Y0089434D01*
X0126757Y0089444D01*
X0128771Y0091451D01*
X0128611Y0091451D01*
X0128611Y0094239D01*
X0128036Y0094239D01*
X0128036Y0091451D01*
X0128665Y0091345D02*
X0118435Y0091345D01*
X0118435Y0092344D02*
X0119343Y0092344D01*
X0120052Y0094526D02*
X0119078Y0095500D01*
X0120052Y0094526D02*
X0122418Y0094526D01*
X0125418Y0096797D02*
X0124614Y0097601D01*
X0121339Y0097601D01*
X0121006Y0097934D01*
X0124567Y0097934D01*
X0125372Y0098738D01*
X0125502Y0098513D01*
X0125781Y0098234D01*
X0126123Y0098036D01*
X0126504Y0097934D01*
X0127989Y0097934D01*
X0127989Y0100722D01*
X0128564Y0100722D01*
X0128564Y0097934D01*
X0129744Y0097934D01*
X0129744Y0097601D01*
X0128611Y0097601D01*
X0128611Y0094813D01*
X0128036Y0094813D01*
X0128036Y0097601D01*
X0126551Y0097601D01*
X0126169Y0097499D01*
X0125827Y0097301D01*
X0125548Y0097022D01*
X0125418Y0096797D01*
X0125888Y0097336D02*
X0124878Y0097336D01*
X0124968Y0098335D02*
X0125680Y0098335D01*
X0127989Y0098335D02*
X0128564Y0098335D01*
X0128564Y0099333D02*
X0127989Y0099333D01*
X0127989Y0100332D02*
X0128564Y0100332D01*
X0128611Y0097336D02*
X0128036Y0097336D01*
X0128036Y0096338D02*
X0128611Y0096338D01*
X0128611Y0095339D02*
X0128036Y0095339D01*
X0128036Y0093342D02*
X0128611Y0093342D01*
X0128611Y0092344D02*
X0128036Y0092344D01*
X0119078Y0100000D02*
X0117078Y0098000D01*
X0112078Y0098000D01*
X0111578Y0098500D01*
X0111578Y0102000D01*
X0111078Y0102500D01*
X0091078Y0102500D01*
X0090578Y0102000D01*
X0090578Y0100500D01*
X0093663Y0100332D02*
X0109578Y0100332D01*
X0119078Y0100000D02*
X0119078Y0101000D01*
X0120087Y0101009D01*
X0122371Y0101009D01*
X0142744Y0100332D02*
X0143464Y0100332D01*
X0143206Y0099333D02*
X0142744Y0099333D01*
X0142744Y0098335D02*
X0143206Y0098335D01*
X0146191Y0098335D02*
X0147159Y0098335D01*
X0147159Y0099333D02*
X0146191Y0099333D01*
X0146191Y0100332D02*
X0147159Y0100332D01*
X0156155Y0083926D02*
X0159028Y0081051D01*
X0143607Y0081360D02*
X0143507Y0081360D01*
X0143507Y0080362D02*
X0143607Y0080362D01*
X0143607Y0082359D02*
X0143507Y0082359D01*
X0143507Y0083357D02*
X0143607Y0083357D01*
X0133453Y0071750D02*
X0128232Y0071750D01*
X0128232Y0068600D02*
X0133478Y0068600D01*
X0136078Y0068500D01*
X0133623Y0066593D02*
X0134331Y0065885D01*
X0135465Y0065416D01*
X0136692Y0065416D01*
X0137825Y0065885D01*
X0138107Y0066167D01*
X0138107Y0057800D01*
X0136876Y0057800D01*
X0136376Y0057300D01*
X0135028Y0055953D01*
X0135028Y0054126D01*
X0132387Y0054126D01*
X0131508Y0053247D01*
X0131508Y0052096D01*
X0130846Y0052096D01*
X0129674Y0050924D01*
X0129078Y0050328D01*
X0129078Y0048371D01*
X0128348Y0049101D01*
X0127062Y0049634D01*
X0121670Y0049634D01*
X0120383Y0049101D01*
X0120078Y0048796D01*
X0120078Y0053172D01*
X0120907Y0054000D01*
X0124512Y0054000D01*
X0125110Y0053402D01*
X0131353Y0053402D01*
X0132232Y0054281D01*
X0132232Y0066600D01*
X0133439Y0066600D01*
X0133623Y0066593D01*
X0133834Y0066382D02*
X0132232Y0066382D01*
X0132232Y0065384D02*
X0138107Y0065384D01*
X0138107Y0064385D02*
X0132232Y0064385D01*
X0132232Y0063387D02*
X0138107Y0063387D01*
X0138107Y0062388D02*
X0132232Y0062388D01*
X0132232Y0061390D02*
X0138107Y0061390D01*
X0138107Y0060391D02*
X0132232Y0060391D01*
X0132232Y0059393D02*
X0138107Y0059393D01*
X0138107Y0058394D02*
X0132232Y0058394D01*
X0132232Y0057396D02*
X0136472Y0057396D01*
X0135473Y0056397D02*
X0132232Y0056397D01*
X0132232Y0055399D02*
X0135028Y0055399D01*
X0135028Y0054400D02*
X0132232Y0054400D01*
X0131663Y0053402D02*
X0120309Y0053402D01*
X0120078Y0052403D02*
X0131508Y0052403D01*
X0130155Y0051405D02*
X0120078Y0051405D01*
X0120078Y0050406D02*
X0129156Y0050406D01*
X0129078Y0049408D02*
X0127608Y0049408D01*
X0129040Y0048409D02*
X0129078Y0048409D01*
X0131078Y0049500D02*
X0131674Y0050096D01*
X0134078Y0050096D01*
X0137203Y0050071D02*
X0137203Y0047025D01*
X0135378Y0045200D01*
X0135378Y0043146D01*
X0135278Y0043546D01*
X0138944Y0043417D02*
X0140132Y0043417D01*
X0140132Y0044415D02*
X0138944Y0044415D01*
X0138944Y0045414D02*
X0140132Y0045414D01*
X0143557Y0043586D02*
X0143601Y0043542D01*
X0143557Y0043586D02*
X0143557Y0050126D01*
X0146656Y0050406D02*
X0146756Y0050406D01*
X0146756Y0051405D02*
X0146656Y0051405D01*
X0146656Y0052403D02*
X0146756Y0052403D01*
X0146756Y0053402D02*
X0146656Y0053402D01*
X0147069Y0045414D02*
X0150497Y0045414D01*
X0149498Y0044415D02*
X0147069Y0044415D01*
X0147069Y0043417D02*
X0148500Y0043417D01*
X0147778Y0042418D02*
X0147069Y0042418D01*
X0147069Y0041420D02*
X0147778Y0041420D01*
X0147778Y0040421D02*
X0146735Y0040421D01*
X0147013Y0039423D02*
X0147778Y0039423D01*
X0147778Y0038424D02*
X0147069Y0038424D01*
X0147069Y0037426D02*
X0148658Y0037426D01*
X0149656Y0036427D02*
X0144085Y0036427D01*
X0143117Y0036427D02*
X0138944Y0036427D01*
X0138944Y0035429D02*
X0140132Y0035429D01*
X0140132Y0036365D02*
X0140132Y0034486D01*
X0140235Y0034105D01*
X0140432Y0033763D01*
X0140711Y0033484D01*
X0141053Y0033286D01*
X0141435Y0033184D01*
X0143117Y0033184D01*
X0143117Y0036365D01*
X0140132Y0036365D01*
X0140132Y0037426D02*
X0138944Y0037426D01*
X0138944Y0038424D02*
X0140132Y0038424D01*
X0140189Y0039423D02*
X0138944Y0039423D01*
X0138408Y0040421D02*
X0140467Y0040421D01*
X0140132Y0041420D02*
X0138944Y0041420D01*
X0138944Y0042418D02*
X0140132Y0042418D01*
X0135278Y0036854D02*
X0135278Y0034200D01*
X0127578Y0026500D01*
X0122232Y0026500D01*
X0122366Y0026134D01*
X0122232Y0026500D02*
X0118578Y0026500D01*
X0118078Y0027000D01*
X0118078Y0033000D01*
X0113078Y0038000D01*
X0113078Y0056000D01*
X0119380Y0062301D01*
X0128232Y0062301D01*
X0128232Y0059152D02*
X0128080Y0059000D01*
X0122078Y0059000D01*
X0119578Y0059000D01*
X0115578Y0055000D01*
X0115578Y0040000D01*
X0119078Y0036500D01*
X0122232Y0036500D01*
X0122366Y0036134D01*
X0122366Y0041134D02*
X0119945Y0041134D01*
X0118078Y0043000D01*
X0118078Y0054000D01*
X0120078Y0056000D01*
X0128230Y0056000D01*
X0131078Y0049500D02*
X0131078Y0033400D01*
X0128812Y0031134D01*
X0122366Y0031134D01*
X0114578Y0032500D02*
X0114578Y0022000D01*
X0114578Y0032500D02*
X0110078Y0037000D01*
X0110078Y0057500D01*
X0118029Y0065451D01*
X0128232Y0065451D01*
X0124232Y0068379D02*
X0106878Y0068379D01*
X0106878Y0067381D02*
X0117131Y0067381D01*
X0116132Y0066382D02*
X0106878Y0066382D01*
X0106878Y0065384D02*
X0115134Y0065384D01*
X0114135Y0064385D02*
X0106878Y0064385D01*
X0106218Y0063387D02*
X0113137Y0063387D01*
X0112138Y0062388D02*
X0105219Y0062388D01*
X0104221Y0061390D02*
X0111140Y0061390D01*
X0110141Y0060391D02*
X0103222Y0060391D01*
X0102224Y0059393D02*
X0109143Y0059393D01*
X0120078Y0049408D02*
X0121124Y0049408D01*
X0143117Y0035429D02*
X0144085Y0035429D01*
X0144085Y0034430D02*
X0143117Y0034430D01*
X0143117Y0033432D02*
X0144085Y0033432D01*
X0140801Y0033432D02*
X0138112Y0033432D01*
X0138944Y0034430D02*
X0140147Y0034430D01*
X0147069Y0035429D02*
X0150655Y0035429D01*
X0140906Y0023446D02*
X0171078Y0023446D01*
X0171078Y0022448D02*
X0160383Y0022448D01*
X0161382Y0021449D02*
X0168763Y0021449D01*
X0168763Y0020451D02*
X0162380Y0020451D01*
X0163378Y0019452D02*
X0168763Y0019452D01*
X0168763Y0018454D02*
X0163378Y0018454D01*
X0163378Y0017455D02*
X0168763Y0017455D01*
X0168763Y0016457D02*
X0163378Y0016457D01*
X0163378Y0015458D02*
X0169268Y0015458D01*
X0169932Y0014460D02*
X0163378Y0014460D01*
X0163378Y0013461D02*
X0169932Y0013461D01*
X0169932Y0012463D02*
X0163378Y0012463D01*
X0163378Y0011464D02*
X0168763Y0011464D01*
X0168763Y0010466D02*
X0163378Y0010466D01*
X0150778Y0019452D02*
X0142744Y0019452D01*
X0142744Y0020451D02*
X0151777Y0020451D01*
X0152775Y0021449D02*
X0142744Y0021449D01*
X0141904Y0022448D02*
X0153774Y0022448D01*
X0136744Y0013461D02*
X0135744Y0013461D01*
X0135744Y0012463D02*
X0136744Y0012463D01*
X0115853Y0005473D02*
X0099331Y0005473D01*
X0177528Y0032146D02*
X0181182Y0032146D01*
X0184078Y0029250D01*
X0187078Y0029250D01*
X0187578Y0028750D01*
X0187578Y0018750D02*
X0178925Y0018750D01*
X0178925Y0008750D02*
X0187578Y0008750D01*
X0187578Y0038750D02*
X0178925Y0038750D01*
X0178925Y0048750D02*
X0187578Y0048750D01*
X0169932Y0054400D02*
X0166032Y0054400D01*
X0166032Y0055399D02*
X0169328Y0055399D01*
X0168763Y0056397D02*
X0166032Y0056397D01*
X0166032Y0057396D02*
X0168763Y0057396D01*
X0167078Y0060500D02*
X0165277Y0062301D01*
X0162032Y0062301D01*
X0162032Y0065451D02*
X0167029Y0065451D01*
X0167078Y0065375D01*
X0162032Y0068600D02*
X0157978Y0068600D01*
X0156578Y0070000D01*
X0178925Y0068750D02*
X0187578Y0068750D01*
X0187578Y0058750D02*
X0178925Y0058750D01*
X0124232Y0069378D02*
X0106878Y0069378D01*
X0106878Y0070376D02*
X0124232Y0070376D01*
X0124232Y0071375D02*
X0106878Y0071375D01*
X0106878Y0072373D02*
X0124232Y0072373D01*
X0124232Y0073372D02*
X0106878Y0073372D01*
X0106878Y0074370D02*
X0124232Y0074370D01*
X0124232Y0075369D02*
X0106878Y0075369D01*
X0106878Y0076368D02*
X0117316Y0076368D01*
X0116370Y0077366D02*
X0108697Y0077366D01*
X0109696Y0078365D02*
X0116310Y0078365D01*
X0116310Y0079363D02*
X0110694Y0079363D01*
X0102278Y0075369D02*
X0097084Y0075369D01*
X0096820Y0074370D02*
X0102278Y0074370D01*
X0119294Y0076368D02*
X0120263Y0076368D01*
X0120263Y0077366D02*
X0119294Y0077366D01*
X0119294Y0078365D02*
X0120263Y0078365D01*
X0122240Y0076368D02*
X0124232Y0076368D01*
X0124232Y0077366D02*
X0123187Y0077366D01*
X0123247Y0078365D02*
X0124232Y0078365D01*
X0124232Y0079363D02*
X0123247Y0079363D01*
X0101078Y0092500D02*
X0098578Y0092500D01*
X0097226Y0091148D01*
X0097226Y0089000D01*
X0097591Y0094341D02*
X0096182Y0094341D01*
X0097018Y0095339D02*
X0099873Y0095339D01*
D28*
X0097226Y0089000D02*
X0097226Y0088800D01*
X0096962Y0088536D01*
X0096962Y0083539D01*
X0092751Y0079828D01*
X0094751Y0080000D01*
X0099207Y0080000D01*
X0102750Y0080000D02*
X0103250Y0079500D01*
X0107578Y0079500D01*
X0108578Y0080500D01*
X0108578Y0087146D01*
X0110163Y0087146D01*
X0108773Y0088536D01*
X0110163Y0087146D02*
X0113932Y0087146D01*
X0119453Y0087125D01*
X0119778Y0086646D01*
X0119778Y0086825D01*
X0120078Y0087125D01*
X0127710Y0087146D01*
X0132078Y0091500D01*
X0132119Y0093541D01*
X0136244Y0097656D01*
X0144078Y0090500D02*
X0146549Y0090500D01*
X0146675Y0090626D01*
X0146675Y0083957D01*
X0146706Y0083926D01*
X0140407Y0083926D02*
X0140407Y0086829D01*
X0144078Y0090500D01*
X0146675Y0090626D02*
X0149452Y0090626D01*
X0151078Y0089000D01*
X0172078Y0089000D01*
X0172232Y0088846D01*
X0172232Y0078750D01*
X0172232Y0068750D01*
X0172232Y0058750D01*
X0172232Y0048750D01*
X0172232Y0038750D01*
X0172357Y0038146D01*
X0173378Y0037000D01*
X0173378Y0025100D01*
X0173732Y0025454D01*
X0177528Y0025454D01*
X0173378Y0025100D02*
X0173378Y0019896D01*
X0172232Y0018750D01*
X0172232Y0008750D01*
X0171482Y0008000D01*
X0162578Y0008000D01*
X0161078Y0009500D01*
X0161078Y0018500D01*
X0159078Y0020500D01*
X0155078Y0020500D01*
X0153078Y0018500D01*
X0153078Y0015500D01*
X0152078Y0014500D01*
X0146578Y0014500D01*
X0141078Y0009000D01*
X0131078Y0009000D01*
X0128945Y0011134D01*
X0122366Y0011134D01*
X0118945Y0011134D01*
X0117953Y0012125D01*
X0097945Y0012134D01*
X0095078Y0015000D01*
X0095078Y0057000D01*
X0093578Y0058500D01*
X0085162Y0058500D01*
X0085141Y0058479D01*
X0085078Y0058542D01*
X0085078Y0076500D01*
X0086984Y0078406D01*
X0092828Y0078406D01*
X0092751Y0079828D01*
X0092828Y0078406D02*
X0093078Y0077156D01*
X0102750Y0080000D02*
X0104578Y0078328D01*
X0104578Y0065000D01*
X0098578Y0059000D01*
X0098578Y0016500D01*
X0098578Y0008500D02*
X0116078Y0008500D01*
X0118578Y0006000D01*
X0142578Y0006000D01*
X0148078Y0011500D01*
X0155078Y0011500D01*
X0157078Y0013500D01*
X0157078Y0017000D01*
X0137203Y0050071D02*
X0137258Y0050126D01*
X0137328Y0050196D01*
X0137328Y0055000D01*
X0137828Y0055500D01*
X0139953Y0055500D01*
X0140407Y0055954D01*
X0140407Y0083926D01*
X0172078Y0089000D02*
X0177078Y0089000D01*
X0177390Y0089312D01*
X0177328Y0093375D01*
X0177666Y0093713D01*
X0178390Y0093213D01*
X0177279Y0093824D01*
X0177279Y0098852D01*
X0177078Y0089000D02*
X0187328Y0089000D01*
X0187578Y0088750D01*
D29*
X0128232Y0056002D02*
X0128230Y0056000D01*
X0134108Y0050126D02*
X0134078Y0050096D01*
M02*
