%
M48
M72
T01C0.0197
T02C0.0276
T03C0.0400
T04C0.0827
%
T01
X1380Y3243
X1380Y4893
X3780Y4893
X3780Y3243
X3780Y11743
X3780Y13243
X1380Y11743
X1380Y13293
T02
X3180Y7243
X3180Y7743
X3180Y8243
X3180Y8743
X3180Y9243
T03
X1930Y5743
X1930Y6743
X1930Y7743
X1930Y8743
X1930Y9743
X1930Y10743
T04
X2580Y4143
X2580Y12393
M30
