%
M48
M72
T01C0.0400
%
T01
X676Y3418
X676Y4418
X676Y5418
X676Y6418
X676Y7418
X676Y8418
X676Y9418
X676Y10418
X676Y11418
X676Y12418
X1676Y12418
X1676Y11418
X1676Y10418
X1676Y9418
X1676Y8418
X1676Y7418
X1676Y6418
X1676Y5418
X1676Y4418
X1676Y3418
X2676Y3418
X2676Y4418
X2676Y5418
X2676Y6418
X2676Y7418
X2676Y8418
X2676Y9418
X2676Y10418
X2676Y11418
X2676Y12418
X3676Y12418
X3676Y11418
X3676Y10418
X3676Y9418
X3676Y8418
X3676Y7418
X3676Y6418
X3676Y5418
X3676Y4418
X3676Y3418
M30
