G75*
%MOIN*%
%OFA0B0*%
%FSLAX25Y25*%
%IPPOS*%
%LPD*%
%AMOC8*
5,1,8,0,0,1.08239X$1,22.5*
%
%ADD10C,0.00000*%
%ADD11OC8,0.07400*%
%ADD12OC8,0.06400*%
%ADD13C,0.06400*%
%ADD14C,0.07800*%
D10*
X0048750Y0031333D02*
X0048750Y0125033D01*
X0048752Y0125147D01*
X0048758Y0125260D01*
X0048767Y0125373D01*
X0048780Y0125486D01*
X0048797Y0125599D01*
X0048818Y0125710D01*
X0048843Y0125821D01*
X0048871Y0125931D01*
X0048903Y0126040D01*
X0048938Y0126148D01*
X0048977Y0126255D01*
X0049020Y0126360D01*
X0049066Y0126464D01*
X0049115Y0126566D01*
X0049168Y0126667D01*
X0049225Y0126766D01*
X0049284Y0126862D01*
X0049347Y0126957D01*
X0049413Y0127050D01*
X0049482Y0127140D01*
X0049554Y0127228D01*
X0049628Y0127314D01*
X0049706Y0127397D01*
X0049786Y0127477D01*
X0049869Y0127555D01*
X0049955Y0127629D01*
X0050043Y0127701D01*
X0050133Y0127770D01*
X0050226Y0127836D01*
X0050321Y0127899D01*
X0050417Y0127958D01*
X0050516Y0128015D01*
X0050617Y0128068D01*
X0050719Y0128117D01*
X0050823Y0128163D01*
X0050928Y0128206D01*
X0051035Y0128245D01*
X0051143Y0128280D01*
X0051252Y0128312D01*
X0051362Y0128340D01*
X0051473Y0128365D01*
X0051584Y0128386D01*
X0051697Y0128403D01*
X0051810Y0128416D01*
X0051923Y0128425D01*
X0052036Y0128431D01*
X0052150Y0128433D01*
X0101646Y0128433D01*
X0101761Y0128431D01*
X0101875Y0128425D01*
X0101989Y0128415D01*
X0102103Y0128402D01*
X0102216Y0128384D01*
X0102328Y0128363D01*
X0102440Y0128338D01*
X0102551Y0128309D01*
X0102661Y0128276D01*
X0102769Y0128239D01*
X0102876Y0128199D01*
X0102982Y0128155D01*
X0103086Y0128108D01*
X0103189Y0128057D01*
X0103290Y0128003D01*
X0103389Y0127945D01*
X0103486Y0127884D01*
X0103580Y0127819D01*
X0103673Y0127751D01*
X0103763Y0127681D01*
X0103850Y0127607D01*
X0103935Y0127530D01*
X0104018Y0127451D01*
X0104097Y0127368D01*
X0104174Y0127283D01*
X0104248Y0127196D01*
X0104318Y0127106D01*
X0104386Y0127013D01*
X0104451Y0126919D01*
X0104512Y0126822D01*
X0104570Y0126723D01*
X0104624Y0126622D01*
X0104675Y0126519D01*
X0104722Y0126415D01*
X0104766Y0126309D01*
X0104806Y0126202D01*
X0104843Y0126094D01*
X0104876Y0125984D01*
X0104905Y0125873D01*
X0104930Y0125761D01*
X0104951Y0125649D01*
X0104969Y0125536D01*
X0104982Y0125422D01*
X0104992Y0125308D01*
X0104998Y0125194D01*
X0105000Y0125079D01*
X0105000Y0031095D01*
X0104998Y0030985D01*
X0104992Y0030874D01*
X0104983Y0030764D01*
X0104969Y0030655D01*
X0104952Y0030546D01*
X0104931Y0030438D01*
X0104906Y0030330D01*
X0104878Y0030223D01*
X0104845Y0030118D01*
X0104809Y0030014D01*
X0104770Y0029910D01*
X0104727Y0029809D01*
X0104680Y0029709D01*
X0104630Y0029611D01*
X0104576Y0029514D01*
X0104520Y0029419D01*
X0104459Y0029327D01*
X0104396Y0029236D01*
X0104330Y0029148D01*
X0104260Y0029063D01*
X0104188Y0028979D01*
X0104113Y0028898D01*
X0104035Y0028820D01*
X0103954Y0028745D01*
X0103870Y0028673D01*
X0103785Y0028603D01*
X0103697Y0028537D01*
X0103606Y0028474D01*
X0103514Y0028413D01*
X0103419Y0028357D01*
X0103322Y0028303D01*
X0103224Y0028253D01*
X0103124Y0028206D01*
X0103023Y0028163D01*
X0102919Y0028124D01*
X0102815Y0028088D01*
X0102710Y0028055D01*
X0102603Y0028027D01*
X0102495Y0028002D01*
X0102387Y0027981D01*
X0102278Y0027964D01*
X0102169Y0027950D01*
X0102059Y0027941D01*
X0101948Y0027935D01*
X0101838Y0027933D01*
X0052150Y0027933D01*
X0052036Y0027935D01*
X0051923Y0027941D01*
X0051810Y0027950D01*
X0051697Y0027963D01*
X0051584Y0027980D01*
X0051473Y0028001D01*
X0051362Y0028026D01*
X0051252Y0028054D01*
X0051143Y0028086D01*
X0051035Y0028121D01*
X0050928Y0028160D01*
X0050823Y0028203D01*
X0050719Y0028249D01*
X0050617Y0028298D01*
X0050516Y0028351D01*
X0050417Y0028408D01*
X0050321Y0028467D01*
X0050226Y0028530D01*
X0050133Y0028596D01*
X0050043Y0028665D01*
X0049955Y0028737D01*
X0049869Y0028811D01*
X0049786Y0028889D01*
X0049706Y0028969D01*
X0049628Y0029052D01*
X0049554Y0029138D01*
X0049482Y0029226D01*
X0049413Y0029316D01*
X0049347Y0029409D01*
X0049284Y0029504D01*
X0049225Y0029600D01*
X0049168Y0029699D01*
X0049115Y0029800D01*
X0049066Y0029902D01*
X0049020Y0030006D01*
X0048977Y0030111D01*
X0048938Y0030218D01*
X0048903Y0030326D01*
X0048871Y0030435D01*
X0048843Y0030545D01*
X0048818Y0030656D01*
X0048797Y0030767D01*
X0048780Y0030880D01*
X0048767Y0030993D01*
X0048758Y0031106D01*
X0048752Y0031219D01*
X0048750Y0031333D01*
D11*
X0099500Y0033183D03*
X0099500Y0043183D03*
X0099500Y0053183D03*
X0099500Y0063183D03*
X0099500Y0073183D03*
X0099500Y0083183D03*
X0099500Y0093183D03*
X0099500Y0103183D03*
X0099500Y0113183D03*
X0099500Y0123183D03*
D12*
X0079500Y0083183D03*
X0069500Y0083183D03*
X0069500Y0073183D03*
X0079500Y0073183D03*
X0079500Y0063183D03*
X0079500Y0053183D03*
X0069500Y0053183D03*
X0069500Y0063183D03*
X0069500Y0043183D03*
X0069500Y0033183D03*
X0079500Y0033183D03*
X0079500Y0043183D03*
D13*
X0059500Y0043183D03*
X0059500Y0033183D03*
X0059500Y0053183D03*
X0059500Y0063183D03*
X0059500Y0073183D03*
X0059500Y0083183D03*
X0059500Y0093183D03*
X0069500Y0093183D03*
X0069500Y0103183D03*
X0059500Y0103183D03*
X0059500Y0113183D03*
X0069500Y0113183D03*
X0069500Y0123183D03*
X0059500Y0123183D03*
X0079500Y0123183D03*
D14*
X0089625Y0073058D03*
X0089625Y0063058D03*
X0089625Y0053058D03*
X0089625Y0043058D03*
X0089625Y0033058D03*
M02*
