%
M48
M72
T01C0.0400
%
T01
X5950Y12318
X6950Y12318
X7950Y12318
X6950Y11318
X6950Y10318
X5950Y10318
X5950Y11318
X5950Y9318
X5950Y8318
X6950Y8318
X7950Y8318
X6950Y9318
X6950Y7318
X5950Y7318
X5950Y6318
X5950Y5318
X6950Y5318
X7950Y5318
X7950Y6318
X6950Y6318
X7950Y7318
X8963Y7306
X9950Y7318
X9950Y6318
X9950Y5318
X8963Y5306
X8963Y6306
X8963Y4306
X8963Y3306
X7950Y3318
X6950Y3318
X5950Y3318
X5950Y4318
X6950Y4318
X7950Y4318
X9950Y4318
X9950Y3318
X9950Y8318
X9950Y9318
X9950Y10318
X9950Y11318
X9950Y12318
M30
