G75*
%MOIN*%
%OFA0B0*%
%FSLAX25Y25*%
%IPPOS*%
%LPD*%
%AMOC8*
5,1,8,0,0,1.08239X$1,22.5*
%
%ADD10C,0.00000*%
%ADD11R,0.08000X0.98000*%
%ADD12R,0.08000X0.57000*%
%ADD13R,0.08000X0.27000*%
%ADD14R,0.08000X0.28000*%
%ADD15R,0.28000X0.08000*%
%ADD16C,0.01000*%
%ADD17R,0.08000X0.47000*%
%ADD18C,0.00500*%
%ADD19C,0.00600*%
%ADD20C,0.00300*%
%ADD21C,0.00800*%
D10*
X0048750Y0031333D02*
X0048750Y0125033D01*
X0048752Y0125147D01*
X0048758Y0125260D01*
X0048767Y0125373D01*
X0048780Y0125486D01*
X0048797Y0125599D01*
X0048818Y0125710D01*
X0048843Y0125821D01*
X0048871Y0125931D01*
X0048903Y0126040D01*
X0048938Y0126148D01*
X0048977Y0126255D01*
X0049020Y0126360D01*
X0049066Y0126464D01*
X0049115Y0126566D01*
X0049168Y0126667D01*
X0049225Y0126766D01*
X0049284Y0126862D01*
X0049347Y0126957D01*
X0049413Y0127050D01*
X0049482Y0127140D01*
X0049554Y0127228D01*
X0049628Y0127314D01*
X0049706Y0127397D01*
X0049786Y0127477D01*
X0049869Y0127555D01*
X0049955Y0127629D01*
X0050043Y0127701D01*
X0050133Y0127770D01*
X0050226Y0127836D01*
X0050321Y0127899D01*
X0050417Y0127958D01*
X0050516Y0128015D01*
X0050617Y0128068D01*
X0050719Y0128117D01*
X0050823Y0128163D01*
X0050928Y0128206D01*
X0051035Y0128245D01*
X0051143Y0128280D01*
X0051252Y0128312D01*
X0051362Y0128340D01*
X0051473Y0128365D01*
X0051584Y0128386D01*
X0051697Y0128403D01*
X0051810Y0128416D01*
X0051923Y0128425D01*
X0052036Y0128431D01*
X0052150Y0128433D01*
X0101646Y0128433D01*
X0101761Y0128431D01*
X0101875Y0128425D01*
X0101989Y0128415D01*
X0102103Y0128402D01*
X0102216Y0128384D01*
X0102328Y0128363D01*
X0102440Y0128338D01*
X0102551Y0128309D01*
X0102661Y0128276D01*
X0102769Y0128239D01*
X0102876Y0128199D01*
X0102982Y0128155D01*
X0103086Y0128108D01*
X0103189Y0128057D01*
X0103290Y0128003D01*
X0103389Y0127945D01*
X0103486Y0127884D01*
X0103580Y0127819D01*
X0103673Y0127751D01*
X0103763Y0127681D01*
X0103850Y0127607D01*
X0103935Y0127530D01*
X0104018Y0127451D01*
X0104097Y0127368D01*
X0104174Y0127283D01*
X0104248Y0127196D01*
X0104318Y0127106D01*
X0104386Y0127013D01*
X0104451Y0126919D01*
X0104512Y0126822D01*
X0104570Y0126723D01*
X0104624Y0126622D01*
X0104675Y0126519D01*
X0104722Y0126415D01*
X0104766Y0126309D01*
X0104806Y0126202D01*
X0104843Y0126094D01*
X0104876Y0125984D01*
X0104905Y0125873D01*
X0104930Y0125761D01*
X0104951Y0125649D01*
X0104969Y0125536D01*
X0104982Y0125422D01*
X0104992Y0125308D01*
X0104998Y0125194D01*
X0105000Y0125079D01*
X0105000Y0031095D01*
X0104998Y0030985D01*
X0104992Y0030874D01*
X0104983Y0030764D01*
X0104969Y0030655D01*
X0104952Y0030546D01*
X0104931Y0030438D01*
X0104906Y0030330D01*
X0104878Y0030223D01*
X0104845Y0030118D01*
X0104809Y0030014D01*
X0104770Y0029910D01*
X0104727Y0029809D01*
X0104680Y0029709D01*
X0104630Y0029611D01*
X0104576Y0029514D01*
X0104520Y0029419D01*
X0104459Y0029327D01*
X0104396Y0029236D01*
X0104330Y0029148D01*
X0104260Y0029063D01*
X0104188Y0028979D01*
X0104113Y0028898D01*
X0104035Y0028820D01*
X0103954Y0028745D01*
X0103870Y0028673D01*
X0103785Y0028603D01*
X0103697Y0028537D01*
X0103606Y0028474D01*
X0103514Y0028413D01*
X0103419Y0028357D01*
X0103322Y0028303D01*
X0103224Y0028253D01*
X0103124Y0028206D01*
X0103023Y0028163D01*
X0102919Y0028124D01*
X0102815Y0028088D01*
X0102710Y0028055D01*
X0102603Y0028027D01*
X0102495Y0028002D01*
X0102387Y0027981D01*
X0102278Y0027964D01*
X0102169Y0027950D01*
X0102059Y0027941D01*
X0101948Y0027935D01*
X0101838Y0027933D01*
X0052150Y0027933D01*
X0052036Y0027935D01*
X0051923Y0027941D01*
X0051810Y0027950D01*
X0051697Y0027963D01*
X0051584Y0027980D01*
X0051473Y0028001D01*
X0051362Y0028026D01*
X0051252Y0028054D01*
X0051143Y0028086D01*
X0051035Y0028121D01*
X0050928Y0028160D01*
X0050823Y0028203D01*
X0050719Y0028249D01*
X0050617Y0028298D01*
X0050516Y0028351D01*
X0050417Y0028408D01*
X0050321Y0028467D01*
X0050226Y0028530D01*
X0050133Y0028596D01*
X0050043Y0028665D01*
X0049955Y0028737D01*
X0049869Y0028811D01*
X0049786Y0028889D01*
X0049706Y0028969D01*
X0049628Y0029052D01*
X0049554Y0029138D01*
X0049482Y0029226D01*
X0049413Y0029316D01*
X0049347Y0029409D01*
X0049284Y0029504D01*
X0049225Y0029600D01*
X0049168Y0029699D01*
X0049115Y0029800D01*
X0049066Y0029902D01*
X0049020Y0030006D01*
X0048977Y0030111D01*
X0048938Y0030218D01*
X0048903Y0030326D01*
X0048871Y0030435D01*
X0048843Y0030545D01*
X0048818Y0030656D01*
X0048797Y0030767D01*
X0048780Y0030880D01*
X0048767Y0030993D01*
X0048758Y0031106D01*
X0048752Y0031219D01*
X0048750Y0031333D01*
D11*
X0099500Y0077933D03*
D12*
X0079500Y0058433D03*
X0069500Y0058433D03*
D13*
X0059500Y0073433D03*
X0059500Y0043433D03*
D14*
X0059500Y0102933D03*
X0069500Y0102933D03*
D15*
X0069500Y0122933D03*
D16*
X0078500Y0091933D02*
X0072500Y0085933D01*
D17*
X0089500Y0053433D03*
D18*
X0094500Y0028183D02*
X0104500Y0028183D01*
X0104500Y0128183D01*
X0094500Y0128183D01*
X0094500Y0028183D01*
D19*
X0084500Y0030683D02*
X0084500Y0035683D01*
X0082000Y0038183D01*
X0084500Y0040683D01*
X0084500Y0045683D01*
X0082000Y0048183D01*
X0077000Y0048183D01*
X0074500Y0045683D01*
X0074500Y0040683D01*
X0077000Y0038183D01*
X0082000Y0038183D01*
X0077000Y0038183D02*
X0074500Y0035683D01*
X0074500Y0030683D01*
X0077000Y0028183D01*
X0082000Y0028183D01*
X0084500Y0030683D01*
X0074500Y0030683D02*
X0074500Y0035683D01*
X0072000Y0038183D01*
X0074500Y0040683D01*
X0074500Y0045683D01*
X0072000Y0048183D01*
X0067000Y0048183D01*
X0064500Y0045683D01*
X0064500Y0040683D01*
X0062000Y0038183D01*
X0064500Y0035683D01*
X0064500Y0030683D01*
X0062000Y0028183D01*
X0057000Y0028183D01*
X0054500Y0030683D01*
X0054500Y0035683D01*
X0057000Y0038183D01*
X0054500Y0040683D01*
X0054500Y0045683D01*
X0057000Y0048183D01*
X0054500Y0050683D01*
X0054500Y0055683D01*
X0057000Y0058183D01*
X0062000Y0058183D01*
X0064500Y0055683D01*
X0064500Y0050683D01*
X0062000Y0048183D01*
X0064500Y0045683D01*
X0064500Y0040683D01*
X0067000Y0038183D01*
X0072000Y0038183D01*
X0067000Y0038183D02*
X0064500Y0035683D01*
X0064500Y0030683D01*
X0067000Y0028183D01*
X0072000Y0028183D01*
X0074500Y0030683D01*
X0062000Y0038183D02*
X0057000Y0038183D01*
X0057000Y0048183D02*
X0062000Y0048183D01*
X0064500Y0050683D02*
X0064500Y0055683D01*
X0067000Y0058183D01*
X0064500Y0060683D01*
X0064500Y0065683D01*
X0062000Y0068183D01*
X0064500Y0070683D01*
X0064500Y0075683D01*
X0062000Y0078183D01*
X0064500Y0080683D01*
X0064500Y0085683D01*
X0062000Y0088183D01*
X0064500Y0090683D01*
X0064500Y0095683D01*
X0062000Y0098183D01*
X0064500Y0100683D01*
X0064500Y0105683D01*
X0062000Y0108183D01*
X0064500Y0110683D01*
X0064500Y0115683D01*
X0062000Y0118183D01*
X0057000Y0118183D01*
X0054500Y0115683D01*
X0054500Y0110683D01*
X0057000Y0108183D01*
X0062000Y0108183D01*
X0064500Y0105683D02*
X0067000Y0108183D01*
X0064500Y0110683D01*
X0064500Y0115683D01*
X0067000Y0118183D01*
X0072000Y0118183D01*
X0074500Y0115683D01*
X0074500Y0110683D01*
X0072000Y0108183D01*
X0074500Y0105683D01*
X0074500Y0100683D01*
X0072000Y0098183D01*
X0074500Y0095683D01*
X0074500Y0090683D01*
X0072000Y0088183D01*
X0067000Y0088183D01*
X0064500Y0090683D01*
X0064500Y0095683D01*
X0067000Y0098183D01*
X0064500Y0100683D01*
X0064500Y0105683D01*
X0067000Y0108183D02*
X0072000Y0108183D01*
X0072000Y0098183D02*
X0067000Y0098183D01*
X0062000Y0098183D02*
X0057000Y0098183D01*
X0054500Y0100683D01*
X0054500Y0105683D01*
X0057000Y0108183D01*
X0057000Y0098183D02*
X0054500Y0095683D01*
X0054500Y0090683D01*
X0057000Y0088183D01*
X0062000Y0088183D01*
X0057000Y0088183D01*
X0054500Y0085683D01*
X0054500Y0080683D01*
X0057000Y0078183D01*
X0062000Y0078183D01*
X0064500Y0075683D02*
X0067000Y0078183D01*
X0064500Y0080683D01*
X0064500Y0085683D01*
X0067000Y0088183D01*
X0072000Y0088183D01*
X0074500Y0085683D01*
X0077000Y0088183D01*
X0082000Y0088183D01*
X0084500Y0085683D01*
X0084500Y0080683D01*
X0082000Y0078183D01*
X0084500Y0075683D01*
X0084500Y0070683D01*
X0082000Y0068183D01*
X0084500Y0065683D01*
X0084500Y0060683D01*
X0082000Y0058183D01*
X0084500Y0055683D01*
X0084500Y0050683D01*
X0082000Y0048183D01*
X0077000Y0048183D02*
X0074500Y0050683D01*
X0074500Y0055683D01*
X0077000Y0058183D01*
X0074500Y0060683D01*
X0074500Y0065683D01*
X0077000Y0068183D01*
X0074500Y0070683D01*
X0074500Y0075683D01*
X0077000Y0078183D01*
X0074500Y0080683D01*
X0074500Y0085683D01*
X0074500Y0080683D01*
X0072000Y0078183D01*
X0074500Y0075683D01*
X0074500Y0070683D01*
X0072000Y0068183D01*
X0074500Y0065683D01*
X0074500Y0060683D01*
X0072000Y0058183D01*
X0074500Y0055683D01*
X0074500Y0050683D01*
X0072000Y0048183D01*
X0067000Y0048183D02*
X0064500Y0050683D01*
X0062000Y0058183D02*
X0057000Y0058183D01*
X0054500Y0060683D01*
X0054500Y0065683D01*
X0057000Y0068183D01*
X0054500Y0070683D01*
X0054500Y0075683D01*
X0057000Y0078183D01*
X0064500Y0075683D02*
X0064500Y0070683D01*
X0067000Y0068183D01*
X0072000Y0068183D01*
X0077000Y0068183D02*
X0082000Y0068183D01*
X0082000Y0058183D02*
X0077000Y0058183D01*
X0072000Y0058183D02*
X0067000Y0058183D01*
X0064500Y0060683D02*
X0062000Y0058183D01*
X0064500Y0060683D02*
X0064500Y0065683D01*
X0067000Y0068183D01*
X0062000Y0068183D02*
X0057000Y0068183D01*
X0067000Y0078183D02*
X0072000Y0078183D01*
X0077000Y0078183D02*
X0082000Y0078183D01*
X0082000Y0118183D02*
X0077000Y0118183D01*
X0074500Y0120683D01*
X0072000Y0118183D01*
X0067000Y0118183D01*
X0064500Y0120683D01*
X0062000Y0118183D01*
X0057000Y0118183D01*
X0054500Y0120683D01*
X0054500Y0125683D01*
X0057000Y0128183D01*
X0062000Y0128183D01*
X0064500Y0125683D01*
X0067000Y0128183D01*
X0072000Y0128183D01*
X0074500Y0125683D01*
X0077000Y0128183D01*
X0082000Y0128183D01*
X0084500Y0125683D01*
X0084500Y0120683D01*
X0082000Y0118183D01*
X0074500Y0120683D02*
X0074500Y0125683D01*
X0064500Y0125683D02*
X0064500Y0120683D01*
D20*
X0053775Y0121002D02*
X0053775Y0120035D01*
X0053291Y0119551D01*
X0053775Y0118540D02*
X0050873Y0118540D01*
X0051840Y0117572D01*
X0050873Y0116605D01*
X0053775Y0116605D01*
X0053775Y0115593D02*
X0051840Y0115593D01*
X0050873Y0114626D01*
X0051840Y0113658D01*
X0053775Y0113658D01*
X0052324Y0113658D02*
X0052324Y0115593D01*
X0051356Y0119551D02*
X0050873Y0120035D01*
X0050873Y0121002D01*
X0051356Y0121486D01*
X0051840Y0121486D01*
X0052324Y0121002D01*
X0052808Y0121486D01*
X0053291Y0121486D01*
X0053775Y0121002D01*
X0052324Y0121002D02*
X0052324Y0120519D01*
X0051840Y0122498D02*
X0050873Y0123465D01*
X0053775Y0123465D01*
X0053775Y0122498D02*
X0053775Y0124433D01*
X0053775Y0125444D02*
X0051840Y0127379D01*
X0051356Y0127379D01*
X0050873Y0126895D01*
X0050873Y0125928D01*
X0051356Y0125444D01*
X0053775Y0125444D02*
X0053775Y0127379D01*
X0075498Y0116252D02*
X0075498Y0115285D01*
X0075981Y0114801D01*
X0077916Y0114801D01*
X0078400Y0115285D01*
X0078400Y0116252D01*
X0077916Y0116736D01*
X0075981Y0116736D02*
X0075498Y0116252D01*
X0075981Y0113790D02*
X0075498Y0113306D01*
X0075498Y0112338D01*
X0075981Y0111855D01*
X0077916Y0111855D01*
X0078400Y0112338D01*
X0078400Y0113306D01*
X0077916Y0113790D01*
X0077433Y0110843D02*
X0075498Y0110843D01*
X0077433Y0110843D02*
X0078400Y0109876D01*
X0077433Y0108908D01*
X0075498Y0108908D01*
X0079373Y0108717D02*
X0079373Y0107749D01*
X0079856Y0107266D01*
X0081791Y0107266D01*
X0079856Y0109201D01*
X0081791Y0109201D01*
X0082275Y0108717D01*
X0082275Y0107749D01*
X0081791Y0107266D01*
X0081791Y0106254D02*
X0081308Y0106254D01*
X0080824Y0105770D01*
X0080824Y0104803D01*
X0080340Y0104319D01*
X0079856Y0104319D01*
X0079373Y0104803D01*
X0079373Y0105770D01*
X0079856Y0106254D01*
X0080340Y0106254D01*
X0080824Y0105770D01*
X0080824Y0104803D02*
X0081308Y0104319D01*
X0081791Y0104319D01*
X0082275Y0104803D01*
X0082275Y0105770D01*
X0081791Y0106254D01*
X0084498Y0105946D02*
X0084981Y0105462D01*
X0084498Y0105946D02*
X0084498Y0106913D01*
X0084981Y0107397D01*
X0085465Y0107397D01*
X0085949Y0106913D01*
X0086433Y0107397D01*
X0086916Y0107397D01*
X0087400Y0106913D01*
X0087400Y0105946D01*
X0086916Y0105462D01*
X0086916Y0104451D02*
X0084981Y0104451D01*
X0084498Y0103967D01*
X0084498Y0102999D01*
X0084981Y0102516D01*
X0085465Y0102516D01*
X0085949Y0102999D01*
X0085949Y0104451D01*
X0086916Y0104451D02*
X0087400Y0103967D01*
X0087400Y0102999D01*
X0086916Y0102516D01*
X0086916Y0101504D02*
X0084981Y0101504D01*
X0084498Y0101020D01*
X0084498Y0100053D01*
X0084981Y0099569D01*
X0085465Y0099569D01*
X0085949Y0100053D01*
X0085949Y0101504D01*
X0086916Y0101504D02*
X0087400Y0101020D01*
X0087400Y0100053D01*
X0086916Y0099569D01*
X0086916Y0098558D02*
X0086433Y0098558D01*
X0085949Y0098074D01*
X0085949Y0097106D01*
X0085465Y0096623D01*
X0084981Y0096623D01*
X0084498Y0097106D01*
X0084498Y0098074D01*
X0084981Y0098558D01*
X0086916Y0098558D02*
X0087400Y0098074D01*
X0087400Y0097106D01*
X0086916Y0096623D01*
X0086916Y0095611D02*
X0084981Y0095611D01*
X0084498Y0095127D01*
X0084498Y0093676D01*
X0087400Y0093676D01*
X0087400Y0095127D01*
X0086916Y0095611D01*
X0089373Y0096092D02*
X0089373Y0095124D01*
X0089856Y0094641D01*
X0090340Y0094641D01*
X0090824Y0095124D01*
X0090824Y0096576D01*
X0091791Y0096576D02*
X0089856Y0096576D01*
X0089373Y0096092D01*
X0090824Y0097587D02*
X0090824Y0099038D01*
X0091308Y0099522D01*
X0091791Y0099522D01*
X0092275Y0099038D01*
X0092275Y0098071D01*
X0091791Y0097587D01*
X0090824Y0097587D01*
X0089856Y0098555D01*
X0089373Y0099522D01*
X0089856Y0100534D02*
X0089373Y0101017D01*
X0089373Y0101985D01*
X0089856Y0102469D01*
X0091791Y0100534D01*
X0092275Y0101017D01*
X0092275Y0101985D01*
X0091791Y0102469D01*
X0089856Y0102469D01*
X0089856Y0100534D02*
X0091791Y0100534D01*
X0091791Y0096576D02*
X0092275Y0096092D01*
X0092275Y0095124D01*
X0091791Y0094641D01*
X0091791Y0093629D02*
X0089856Y0093629D01*
X0089373Y0093145D01*
X0089373Y0092178D01*
X0089856Y0091694D01*
X0090340Y0091694D01*
X0090824Y0092178D01*
X0090824Y0093629D01*
X0091791Y0093629D02*
X0092275Y0093145D01*
X0092275Y0092178D01*
X0091791Y0091694D01*
X0091791Y0090683D02*
X0092275Y0090199D01*
X0092275Y0089231D01*
X0091791Y0088748D01*
X0091791Y0087736D02*
X0089856Y0087736D01*
X0089373Y0087252D01*
X0089373Y0085801D01*
X0092275Y0085801D01*
X0092275Y0087252D01*
X0091791Y0087736D01*
X0090340Y0088748D02*
X0090824Y0089231D01*
X0090824Y0090199D01*
X0091308Y0090683D01*
X0091791Y0090683D01*
X0089856Y0090683D02*
X0089373Y0090199D01*
X0089373Y0089231D01*
X0089856Y0088748D01*
X0090340Y0088748D01*
X0087400Y0087783D02*
X0085465Y0087783D01*
X0084498Y0088751D01*
X0085465Y0089718D01*
X0087400Y0089718D01*
X0087400Y0090730D02*
X0084498Y0090730D01*
X0084498Y0092181D01*
X0084981Y0092665D01*
X0085949Y0092665D01*
X0086433Y0092181D01*
X0086433Y0090730D01*
X0085949Y0089718D02*
X0085949Y0087783D01*
X0089373Y0084306D02*
X0089856Y0084790D01*
X0090824Y0084790D01*
X0091308Y0084306D01*
X0091308Y0082855D01*
X0092275Y0082855D02*
X0089373Y0082855D01*
X0089373Y0084306D01*
X0090340Y0081843D02*
X0092275Y0081843D01*
X0090824Y0081843D02*
X0090824Y0079908D01*
X0090340Y0079908D02*
X0089373Y0080876D01*
X0090340Y0081843D01*
X0090340Y0079908D02*
X0092275Y0079908D01*
X0082275Y0092533D02*
X0079373Y0092533D01*
X0079373Y0093984D01*
X0079856Y0094468D01*
X0080340Y0094468D01*
X0080824Y0093984D01*
X0080824Y0092533D01*
X0082275Y0092533D02*
X0082275Y0093984D01*
X0081791Y0094468D01*
X0081308Y0094468D01*
X0080824Y0093984D01*
X0082275Y0095480D02*
X0079373Y0095480D01*
X0080340Y0096447D01*
X0079373Y0097415D01*
X0082275Y0097415D01*
X0082275Y0098426D02*
X0082275Y0100361D01*
X0082275Y0101373D02*
X0080340Y0103308D01*
X0079856Y0103308D01*
X0079373Y0102824D01*
X0079373Y0101856D01*
X0079856Y0101373D01*
X0079373Y0100361D02*
X0079373Y0098426D01*
X0082275Y0098426D01*
X0080824Y0098426D02*
X0080824Y0099394D01*
X0082275Y0101373D02*
X0082275Y0103308D01*
X0085949Y0106430D02*
X0085949Y0106913D01*
X0086916Y0108409D02*
X0084981Y0108409D01*
X0084498Y0108892D01*
X0084498Y0109860D01*
X0084981Y0110344D01*
X0086916Y0108409D01*
X0087400Y0108892D01*
X0087400Y0109860D01*
X0086916Y0110344D01*
X0084981Y0110344D01*
X0079856Y0109201D02*
X0079373Y0108717D01*
X0053775Y0095877D02*
X0053775Y0094426D01*
X0050873Y0094426D01*
X0050873Y0095877D01*
X0051356Y0096361D01*
X0053291Y0096361D01*
X0053775Y0095877D01*
X0053775Y0093415D02*
X0050873Y0093415D01*
X0050873Y0091480D02*
X0053775Y0093415D01*
X0053775Y0091480D02*
X0050873Y0091480D01*
X0051356Y0090468D02*
X0050873Y0089984D01*
X0050873Y0089017D01*
X0051356Y0088533D01*
X0053291Y0088533D01*
X0053775Y0089017D01*
X0053775Y0089984D01*
X0053291Y0090468D01*
X0052324Y0090468D01*
X0052324Y0089501D01*
X0053775Y0082326D02*
X0053775Y0080391D01*
X0053775Y0081358D02*
X0050873Y0081358D01*
X0051840Y0080391D01*
X0051356Y0079379D02*
X0050873Y0078895D01*
X0050873Y0077928D01*
X0051356Y0077444D01*
X0053291Y0077444D01*
X0053775Y0077928D01*
X0053775Y0078895D01*
X0053291Y0079379D01*
X0051356Y0079379D01*
X0050873Y0076433D02*
X0052808Y0076433D01*
X0053775Y0075465D01*
X0052808Y0074498D01*
X0050873Y0074498D01*
X0051356Y0073486D02*
X0050873Y0073002D01*
X0050873Y0071551D01*
X0053775Y0071551D01*
X0052808Y0071551D02*
X0052808Y0073002D01*
X0052324Y0073486D01*
X0051356Y0073486D01*
X0052808Y0072519D02*
X0053775Y0073486D01*
X0053775Y0070540D02*
X0053775Y0068605D01*
X0050873Y0068605D01*
X0050873Y0070540D01*
X0052324Y0069572D02*
X0052324Y0068605D01*
X0052808Y0067593D02*
X0052324Y0067109D01*
X0052324Y0066142D01*
X0051840Y0065658D01*
X0051356Y0065658D01*
X0050873Y0066142D01*
X0050873Y0067109D01*
X0051356Y0067593D01*
X0052808Y0067593D02*
X0053291Y0067593D01*
X0053775Y0067109D01*
X0053775Y0066142D01*
X0053291Y0065658D01*
X0053775Y0052576D02*
X0053775Y0050641D01*
X0051840Y0052576D01*
X0051356Y0052576D01*
X0050873Y0052092D01*
X0050873Y0051124D01*
X0051356Y0050641D01*
X0051356Y0049629D02*
X0050873Y0049145D01*
X0050873Y0048178D01*
X0051356Y0047694D01*
X0053291Y0047694D01*
X0053775Y0048178D01*
X0053775Y0049145D01*
X0053291Y0049629D01*
X0051356Y0049629D01*
X0050873Y0046683D02*
X0052808Y0046683D01*
X0053775Y0045715D01*
X0052808Y0044748D01*
X0050873Y0044748D01*
X0051356Y0043736D02*
X0050873Y0043252D01*
X0050873Y0041801D01*
X0053775Y0041801D01*
X0052808Y0041801D02*
X0052808Y0043252D01*
X0052324Y0043736D01*
X0051356Y0043736D01*
X0052808Y0042769D02*
X0053775Y0043736D01*
X0053775Y0040790D02*
X0053775Y0038855D01*
X0050873Y0038855D01*
X0050873Y0040790D01*
X0052324Y0039822D02*
X0052324Y0038855D01*
X0052808Y0037843D02*
X0052324Y0037359D01*
X0052324Y0036392D01*
X0051840Y0035908D01*
X0051356Y0035908D01*
X0050873Y0036392D01*
X0050873Y0037359D01*
X0051356Y0037843D01*
X0052808Y0037843D02*
X0053291Y0037843D01*
X0053775Y0037359D01*
X0053775Y0036392D01*
X0053291Y0035908D01*
D21*
X0084625Y0035558D02*
X0084625Y0030558D01*
X0087125Y0028058D01*
X0092125Y0028058D01*
X0094625Y0030558D01*
X0094625Y0035558D01*
X0092125Y0038058D01*
X0094625Y0040558D01*
X0094625Y0045558D01*
X0092125Y0048058D01*
X0094625Y0050558D01*
X0094625Y0055558D01*
X0092125Y0058058D01*
X0094625Y0060558D01*
X0094625Y0065558D01*
X0092125Y0068058D01*
X0094625Y0070558D01*
X0094625Y0075558D01*
X0092125Y0078058D01*
X0087125Y0078058D01*
X0084625Y0075558D01*
X0084625Y0070558D01*
X0087125Y0068058D01*
X0084625Y0065558D01*
X0084625Y0060558D01*
X0087125Y0058058D01*
X0084625Y0055558D01*
X0084625Y0050558D01*
X0087125Y0048058D01*
X0084625Y0045558D01*
X0084625Y0040558D01*
X0087125Y0038058D01*
X0084625Y0035558D01*
M02*
